NewsreaderCaption-ExtraBold.ufo
<glyph name="exclam" format="2">
	<unicode hex="0021"/>
	<advance width="764"/>
	<outline>
		<contour>
			<point x="670" y="1315" type="line" smooth="yes"/>
			<point x="674" y="1390"/>
			<point x="644" y="1432"/>
			<point x="382" y="1432" type="curve" smooth="yes"/>
			<point x="122" y="1432"/>
			<point x="90" y="1390"/>
			<point x="94" y="1315" type="curve" smooth="yes"/>
			<point x="99" y="1229" type="line" smooth="yes"/>
			<point x="106" y="1101"/>
			<point x="205" y="887"/>
			<point x="238" y="555" type="curve"/>
			<point x="526" y="555" type="line"/>
			<point x="559" y="887"/>
			<point x="658" y="1101"/>
			<point x="665" y="1229" type="curve" smooth="yes"/>
		</contour>
		<contour>
			<point x="382" y="408" type="curve" smooth="yes"/>
			<point x="217" y="408"/>
			<point x="125" y="331"/>
			<point x="125" y="193" type="curve" smooth="yes"/>
			<point x="125" y="50"/>
			<point x="217" y="-30"/>
			<point x="382" y="-30" type="curve" smooth="yes"/>
			<point x="547" y="-30"/>
			<point x="639" y="50"/>
			<point x="639" y="193" type="curve" smooth="yes"/>
			<point x="639" y="331"/>
			<point x="547" y="408"/>
		</contour>
	</outline>
</glyph>
<glyph name="ampersand" format="2">
	<unicode hex="0026"/>
	<advance width="1799"/>
	<outline>
		<contour>
			<point x="863" y="889" type="line"/>
			<point x="1284" y="921"/>
			<point x="1361" y="1002"/>
			<point x="1361" y="1176" type="curve" smooth="yes"/>
			<point x="1361" y="1363"/>
			<point x="1206" y="1444"/>
			<point x="855" y="1444" type="curve" smooth="yes"/>
			<point x="414" y="1444"/>
			<point x="269" y="1311"/>
			<point x="269" y="1087" type="curve" smooth="yes"/>
			<point x="269" y="972"/>
			<point x="308" y="899"/>
			<point x="437" y="756" type="curve" smooth="yes"/>
			<point x="1119" y="0" type="line"/>
			<point x="1736" y="0" type="line"/>
			<point x="1736" y="123" type="line"/>
			<point x="1579" y="186" type="line"/>
			<point x="883" y="945" type="line" smooth="yes"/>
			<point x="768" y="1071"/>
			<point x="749" y="1110"/>
			<point x="749" y="1165" type="curve" smooth="yes"/>
			<point x="749" y="1250"/>
			<point x="778" y="1278"/>
			<point x="851" y="1278" type="curve" smooth="yes"/>
			<point x="920" y="1278"/>
			<point x="944" y="1244"/>
			<point x="944" y="1162" type="curve" smooth="yes"/>
			<point x="944" y="1057"/>
			<point x="907" y="972"/>
			<point x="827" y="911" type="curve"/>
			<point x="523" y="747" type="line"/>
			<point x="174" y="702"/>
			<point x="46" y="583"/>
			<point x="46" y="352" type="curve" smooth="yes"/>
			<point x="46" y="105"/>
			<point x="179" y="-30"/>
			<point x="578" y="-30" type="curve" smooth="yes"/>
			<point x="818" y="-30"/>
			<point x="1003" y="19"/>
			<point x="1189" y="174" type="curve"/>
			<point x="1272" y="249" type="line"/>
			<point x="1383" y="360"/>
			<point x="1497" y="510"/>
			<point x="1627" y="712" type="curve"/>
			<point x="1760" y="742" type="line"/>
			<point x="1760" y="864" type="line"/>
			<point x="1170" y="864" type="line"/>
			<point x="1170" y="742" type="line"/>
			<point x="1308" y="712" type="line"/>
			<point x="1310" y="525"/>
			<point x="1281" y="396"/>
			<point x="1211" y="314" type="curve"/>
			<point x="1137" y="252" type="line"/>
			<point x="1070" y="214"/>
			<point x="983" y="197"/>
			<point x="871" y="197" type="curve" smooth="yes"/>
			<point x="612" y="197"/>
			<point x="530" y="278"/>
			<point x="530" y="538" type="curve" smooth="yes"/>
			<point x="530" y="609"/>
			<point x="536" y="683"/>
			<point x="550" y="740" type="curve"/>
		</contour>
	</outline>
</glyph>
<glyph name="quotesingle" format="2">
	<unicode hex="0027"/>
	<advance width="588"/>
	<outline>
		<contour>
			<point x="163" y="800" type="line"/>
			<point x="425" y="800" type="line"/>
			<point x="490" y="1336" type="line"/>
			<point x="490" y="1414" type="line"/>
			<point x="98" y="1414" type="line"/>
			<point x="98" y="1336" type="line"/>
		</contour>
	</outline>
</glyph>
<glyph name="parenleft" format="2">
	<unicode hex="0028"/>
	<advance width="783"/>
	<outline>
		<contour>
			<point x="455" y="623" type="curve" smooth="yes"/>
			<point x="455" y="939"/>
			<point x="524" y="1143"/>
			<point x="740" y="1345" type="curve"/>
			<point x="603" y="1494" type="line"/>
			<point x="205" y="1196"/>
			<point x="75" y="935"/>
			<point x="75" y="623" type="curve" smooth="yes"/>
			<point x="75" y="311"/>
			<point x="205" y="50"/>
			<point x="603" y="-248" type="curve"/>
			<point x="740" y="-99" type="line"/>
			<point x="524" y="103"/>
			<point x="455" y="307"/>
		</contour>
	</outline>
</glyph>
<glyph name="parenright" format="2">
	<unicode hex="0029"/>
	<advance width="784"/>
	<outline>
		<contour>
			<point x="329" y="623" type="curve" smooth="yes"/>
			<point x="329" y="307"/>
			<point x="260" y="103"/>
			<point x="44" y="-99" type="curve"/>
			<point x="181" y="-248" type="line"/>
			<point x="579" y="50"/>
			<point x="709" y="311"/>
			<point x="709" y="623" type="curve" smooth="yes"/>
			<point x="709" y="935"/>
			<point x="579" y="1196"/>
			<point x="181" y="1494" type="curve"/>
			<point x="44" y="1345" type="line"/>
			<point x="260" y="1143"/>
			<point x="329" y="939"/>
		</contour>
	</outline>
</glyph>
<glyph name="asterisk" format="2">
	<unicode hex="002A"/>
	<advance width="986"/>
	<outline>
		<contour>
			<point x="724" y="730" type="line"/>
			<point x="657" y="950" type="line"/>
			<point x="883" y="989" type="line"/>
			<point x="869" y="1174" type="line"/>
			<point x="638" y="1177" type="line"/>
			<point x="671" y="1405" type="line"/>
			<point x="491" y="1448" type="line"/>
			<point x="418" y="1230" type="line"/>
			<point x="210" y="1331" type="line"/>
			<point x="114" y="1174" type="line"/>
			<point x="298" y="1036" type="line"/>
			<point x="138" y="871" type="line"/>
			<point x="257" y="730" type="line"/>
			<point x="447" y="862" type="line"/>
			<point x="554" y="659" type="line"/>
		</contour>
	</outline>
</glyph>
<glyph name="plus" format="2">
	<unicode hex="002B"/>
	<advance width="1140"/>
	<outline>
		<contour>
			<point x="436" y="982" type="line"/>
			<point x="436" y="62" type="line"/>
			<point x="704" y="62" type="line"/>
			<point x="704" y="982" type="line"/>
		</contour>
		<contour>
			<point x="1030" y="656" type="line"/>
			<point x="110" y="656" type="line"/>
			<point x="110" y="388" type="line"/>
			<point x="1030" y="388" type="line"/>
		</contour>
	</outline>
</glyph>
<glyph name="comma" format="2">
	<unicode hex="002C"/>
	<advance width="673"/>
	<outline>
		<contour>
			<point x="58" y="-271" type="curve"/>
			<point x="151" y="-405" type="line"/>
			<point x="505" y="-186"/>
			<point x="576" y="-45"/>
			<point x="576" y="185" type="curve" smooth="yes"/>
			<point x="576" y="346"/>
			<point x="493" y="437"/>
			<point x="328" y="437" type="curve" smooth="yes"/>
			<point x="178" y="437"/>
			<point x="80" y="346"/>
			<point x="80" y="207" type="curve" smooth="yes"/>
			<point x="80" y="148"/>
			<point x="263" y="106"/>
			<point x="263" y="-22" type="curve" smooth="yes"/>
			<point x="263" y="-114"/>
			<point x="202" y="-172"/>
		</contour>
	</outline>
</glyph>
<glyph name="hyphen" format="2">
	<unicode hex="002D"/>
	<advance width="931"/>
	<outline>
		<contour>
			<point x="124" y="674" type="line"/>
			<point x="124" y="370" type="line"/>
			<point x="807" y="370" type="line"/>
			<point x="807" y="674" type="line"/>
		</contour>
	</outline>
</glyph>
<glyph name="period" format="2">
	<unicode hex="002E"/>
	<advance width="672"/>
	<outline>
		<contour>
			<point x="336" y="460" type="curve" smooth="yes"/>
			<point x="184" y="460"/>
			<point x="88" y="365"/>
			<point x="88" y="215" type="curve" smooth="yes"/>
			<point x="88" y="65"/>
			<point x="184" y="-30"/>
			<point x="336" y="-30" type="curve" smooth="yes"/>
			<point x="488" y="-30"/>
			<point x="584" y="65"/>
			<point x="584" y="215" type="curve" smooth="yes"/>
			<point x="584" y="365"/>
			<point x="488" y="460"/>
		</contour>
	</outline>
</glyph>
<glyph name="slash" format="2">
  <advance width="1023.0"/>
  <unicode hex="002F"/>
  <outline>
    <contour>
      <point x="47.0" y="0.0" type="line"/>
      <point x="387.0" y="0.0" type="line"/>
      <point x="978.0" y="1414.0" type="line"/>
      <point x="638.0" y="1414.0" type="line"/>
    </contour>
  </outline>
</glyph>
<glyph name="zero" format="2">
	<unicode hex="0030"/>
	<advance width="1550"/>
	<outline>
		<contour>
			<point x="777" y="263" type="curve" smooth="yes"/>
			<point x="667.9484536082" y="263"/>
			<point x="613" y="328"/>
			<point x="613" y="764" type="curve" smooth="yes"/>
			<point x="613" y="1049"/>
			<point x="653.2994652406" y="1151"/>
			<point x="770" y="1151" type="curve" smooth="yes"/>
			<point x="880.8461538462" y="1151"/>
			<point x="935" y="1086"/>
			<point x="935" y="650" type="curve" smooth="yes"/>
			<point x="935" y="365"/>
			<point x="896.3404255319" y="263"/>
		</contour>
		<contour>
			<point x="792" y="1444" type="curve" smooth="yes"/>
			<point x="320" y="1444"/>
			<point x="84" y="1182"/>
			<point x="84" y="680" type="curve" smooth="yes"/>
			<point x="84" y="211"/>
			<point x="317.6022727273" y="-30"/>
			<point x="758" y="-30" type="curve" smooth="yes"/>
			<point x="1228.1082543978" y="-30"/>
			<point x="1467" y="231"/>
			<point x="1467" y="734" type="curve" smooth="yes"/>
			<point x="1467" y="1203"/>
			<point x="1230.5106382979" y="1444"/>
		</contour>
	</outline>
</glyph>
<glyph name="one" format="2">
	<unicode hex="0031"/>
	<advance width="1550"/>
	<outline>
		<contour>
			<point x="601" y="204" type="line"/>
			<point x="286" y="139" type="line"/>
			<point x="286" y="0" type="line"/>
			<point x="1428" y="0" type="line"/>
			<point x="1428" y="139" type="line"/>
			<point x="1126" y="204" type="line"/>
			<point x="1126" y="1414" type="line"/>
			<point x="715" y="1414" type="line"/>
			<point x="152" y="1128" type="line"/>
			<point x="222" y="920" type="line"/>
			<point x="713" y="1071" type="line"/>
			<point x="601" y="1297" type="line"/>
		</contour>
	</outline>
</glyph>
<glyph name="colon" format="2">
	<unicode hex="003A"/>
	<advance width="712"/>
	<outline>
		<contour>
			<point x="356" y="437" type="curve" smooth="yes"/>
			<point x="204" y="437"/>
			<point x="108" y="347"/>
			<point x="108" y="204" type="curve" smooth="yes"/>
			<point x="108" y="60"/>
			<point x="204" y="-30"/>
			<point x="356" y="-30" type="curve" smooth="yes"/>
			<point x="508" y="-30"/>
			<point x="604" y="60"/>
			<point x="604" y="204" type="curve" smooth="yes"/>
			<point x="604" y="347"/>
			<point x="508" y="437"/>
		</contour>
		<contour>
			<point x="356" y="1074" type="curve" smooth="yes"/>
			<point x="204" y="1074"/>
			<point x="108" y="984"/>
			<point x="108" y="841" type="curve" smooth="yes"/>
			<point x="108" y="697"/>
			<point x="204" y="607"/>
			<point x="356" y="607" type="curve" smooth="yes"/>
			<point x="508" y="607"/>
			<point x="604" y="697"/>
			<point x="604" y="841" type="curve" smooth="yes"/>
			<point x="604" y="984"/>
			<point x="508" y="1074"/>
		</contour>
	</outline>
</glyph>
<glyph name="semicolon" format="2">
	<unicode hex="003B"/>
	<advance width="711"/>
	<outline>
		<contour>
			<point x="81" y="-271" type="curve"/>
			<point x="174" y="-405" type="line"/>
			<point x="528" y="-186"/>
			<point x="599" y="-45"/>
			<point x="599" y="185" type="curve" smooth="yes"/>
			<point x="599" y="346"/>
			<point x="516" y="437"/>
			<point x="351" y="437" type="curve" smooth="yes"/>
			<point x="201" y="437"/>
			<point x="103" y="346"/>
			<point x="103" y="207" type="curve" smooth="yes"/>
			<point x="103" y="148"/>
			<point x="286" y="106"/>
			<point x="286" y="-22" type="curve" smooth="yes"/>
			<point x="286" y="-114"/>
			<point x="225" y="-172"/>
		</contour>
		<contour>
			<point x="351" y="1074" type="curve" smooth="yes"/>
			<point x="199" y="1074"/>
			<point x="103" y="984"/>
			<point x="103" y="841" type="curve" smooth="yes"/>
			<point x="103" y="697"/>
			<point x="199" y="607"/>
			<point x="351" y="607" type="curve" smooth="yes"/>
			<point x="503" y="607"/>
			<point x="599" y="697"/>
			<point x="599" y="841" type="curve" smooth="yes"/>
			<point x="599" y="984"/>
			<point x="503" y="1074"/>
		</contour>
	</outline>
</glyph>
<glyph name="less" format="2">
	<unicode hex="003C"/>
	<advance width="1140"/>
	<outline>
		<contour>
			<point x="244" y="444" type="line"/>
			<point x="1033" y="789" type="line"/>
			<point x="1033" y="1074" type="line"/>
			<point x="88" y="649" type="line"/>
			<point x="88" y="394" type="line"/>
			<point x="1033" y="-30" type="line"/>
			<point x="1033" y="262" type="line"/>
			<point x="244" y="606" type="line"/>
		</contour>
	</outline>
</glyph>
<glyph name="greater" format="2">
	<unicode hex="003E"/>
	<advance width="1140"/>
	<outline>
		<contour>
			<point x="896" y="444" type="line"/>
			<point x="896" y="606" type="line"/>
			<point x="107" y="262" type="line"/>
			<point x="107" y="-30" type="line"/>
			<point x="1052" y="394" type="line"/>
			<point x="1052" y="649" type="line"/>
			<point x="107" y="1074" type="line"/>
			<point x="107" y="789" type="line"/>
		</contour>
	</outline>
</glyph>
<glyph name="question" format="2">
	<unicode hex="003F"/>
	<advance width="1536"/>
	<outline>
		<contour>
			<point x="724" y="1444" type="curve" smooth="yes"/>
			<point x="215" y="1444"/>
			<point x="56" y="1329"/>
			<point x="56" y="1156" type="curve" smooth="yes"/>
			<point x="56" y="1049"/>
			<point x="139" y="977"/>
			<point x="264" y="977" type="curve" smooth="yes"/>
			<point x="339" y="977"/>
			<point x="444" y="1173"/>
			<point x="652" y="1173" type="curve" smooth="yes"/>
			<point x="844" y="1173"/>
			<point x="909" y="1101"/>
			<point x="909" y="1018" type="curve" smooth="yes"/>
			<point x="909" y="880"/>
			<point x="833" y="842"/>
			<point x="523" y="858" type="curve"/>
			<point x="583" y="524" type="line"/>
			<point x="910" y="524" type="line"/>
			<point x="968" y="718" type="line"/>
			<point x="861" y="624" type="line"/>
			<point x="1307" y="642"/>
			<point x="1454" y="772"/>
			<point x="1454" y="1031" type="curve" smooth="yes"/>
			<point x="1454" y="1253"/>
			<point x="1285" y="1444"/>
		</contour>
		<contour>
			<point x="734" y="408" type="curve" smooth="yes"/>
			<point x="569" y="408"/>
			<point x="477" y="331"/>
			<point x="477" y="193" type="curve" smooth="yes"/>
			<point x="477" y="50"/>
			<point x="569" y="-30"/>
			<point x="734" y="-30" type="curve" smooth="yes"/>
			<point x="899" y="-30"/>
			<point x="991" y="50"/>
			<point x="991" y="193" type="curve" smooth="yes"/>
			<point x="991" y="331"/>
			<point x="899" y="408"/>
		</contour>
	</outline>
</glyph>
<glyph name="at" format="2">
	<unicode hex="0040"/>
	<advance width="1932"/>
	<outline>
		<contour>
			<point x="1393" y="141" type="curve" smooth="yes"/>
			<point x="1709" y="141"/>
			<point x="1882" y="376"/>
			<point x="1882" y="760" type="curve" smooth="yes"/>
			<point x="1882" y="1189"/>
			<point x="1587" y="1444"/>
			<point x="1099" y="1444" type="curve" smooth="yes"/>
			<point x="467" y="1444"/>
			<point x="80" y="1089"/>
			<point x="80" y="491" type="curve" smooth="yes"/>
			<point x="80" y="-26"/>
			<point x="381" y="-272"/>
			<point x="970" y="-272" type="curve" smooth="yes"/>
			<point x="1229" y="-272"/>
			<point x="1448" y="-214"/>
			<point x="1664" y="-94" type="curve"/>
			<point x="1613" y="8" type="line"/>
			<point x="1412" y="-98"/>
			<point x="1196" y="-151"/>
			<point x="1017" y="-151" type="curve" smooth="yes"/>
			<point x="490" y="-151"/>
			<point x="230" y="53"/>
			<point x="230" y="510" type="curve" smooth="yes"/>
			<point x="230" y="1022"/>
			<point x="562" y="1332"/>
			<point x="1090" y="1332" type="curve" smooth="yes"/>
			<point x="1523" y="1332"/>
			<point x="1742" y="1125"/>
			<point x="1742" y="731" type="curve" smooth="yes"/>
			<point x="1742" y="493"/>
			<point x="1631" y="303"/>
			<point x="1480" y="303" type="curve" smooth="yes"/>
			<point x="1407" y="303"/>
			<point x="1374" y="327"/>
			<point x="1371" y="388" type="curve" smooth="yes"/>
			<point x="1369" y="422"/>
			<point x="1374" y="461"/>
			<point x="1392" y="519" type="curve" smooth="yes"/>
			<point x="1538" y="1024" type="line"/>
			<point x="1249" y="1024" type="line"/>
			<point x="1129" y="851" type="line"/>
			<point x="1083" y="733" type="line" smooth="yes"/>
			<point x="1010" y="536"/>
			<point x="923" y="405"/>
			<point x="857" y="405" type="curve" smooth="yes"/>
			<point x="827" y="405"/>
			<point x="808" y="423"/>
			<point x="806" y="455" type="curve" smooth="yes"/>
			<point x="797" y="601"/>
			<point x="957" y="846"/>
			<point x="1061" y="846" type="curve" smooth="yes"/>
			<point x="1111" y="846"/>
			<point x="1125" y="824"/>
			<point x="1152" y="758" type="curve"/>
			<point x="1174" y="801" type="line"/>
			<point x="1127" y="967"/>
			<point x="1048" y="1047"/>
			<point x="931" y="1047" type="curve" smooth="yes"/>
			<point x="666" y="1048"/>
			<point x="393" y="706"/>
			<point x="411" y="398" type="curve" smooth="yes"/>
			<point x="420" y="255"/>
			<point x="525" y="157"/>
			<point x="670" y="157" type="curve" smooth="yes"/>
			<point x="830" y="157"/>
			<point x="912" y="238"/>
			<point x="1071" y="532" type="curve"/>
			<point x="1099" y="532" type="line"/>
			<point x="1082" y="483" type="line" smooth="yes"/>
			<point x="1069" y="440"/>
			<point x="1061" y="399"/>
			<point x="1063" y="361" type="curve" smooth="yes"/>
			<point x="1072" y="222"/>
			<point x="1194" y="141"/>
		</contour>
	</outline>
</glyph>
<glyph name="A" format="2">
	<unicode hex="0041"/>
	<advance width="1961"/>
	<outline>
		<contour>
			<point x="450" y="368" type="line"/>
			<point x="1206" y="368" type="line"/>
			<point x="1206" y="634" type="line"/>
			<point x="450" y="634" type="line"/>
		</contour>
		<contour>
			<point x="1767" y="189" type="line"/>
			<point x="1297" y="1414" type="line"/>
			<point x="658" y="1414" type="line"/>
			<point x="180" y="169" type="line"/>
			<point x="12" y="136" type="line"/>
			<point x="12" y="0" type="line"/>
			<point x="663" y="0" type="line"/>
			<point x="663" y="136" type="line"/>
			<point x="506" y="175" type="line"/>
			<point x="866" y="1204" type="line"/>
			<point x="831" y="1204" type="line"/>
			<point x="1199" y="169" type="line"/>
			<point x="1039" y="136" type="line"/>
			<point x="1039" y="0" type="line"/>
			<point x="1952" y="0" type="line"/>
			<point x="1952" y="136" type="line"/>
		</contour>
	</outline>
	<anchor name="UCtop" x="962" y="1414"/>
	<anchor name="bottom" x="872" y="0"/>
	<anchor name="right" x="1692" y="0"/>
</glyph>
<glyph name="B" format="2">
	<unicode hex="0042"/>
	<advance width="1774"/>
	<outline>
		<contour>
			<point x="547" y="1157" type="line"/>
			<point x="937" y="1157" type="line" smooth="yes"/>
			<point x="1048" y="1157"/>
			<point x="1079" y="1110"/>
			<point x="1079" y="1007" type="curve" smooth="yes"/>
			<point x="1079" y="890"/>
			<point x="1036" y="846"/>
			<point x="949" y="846" type="curve" smooth="yes"/>
			<point x="547" y="846" type="line"/>
			<point x="547" y="628" type="line"/>
			<point x="953" y="628" type="line" smooth="yes"/>
			<point x="1087" y="628"/>
			<point x="1133" y="562"/>
			<point x="1133" y="449" type="curve" smooth="yes"/>
			<point x="1133" y="299"/>
			<point x="1080" y="257"/>
			<point x="947" y="257" type="curve" smooth="yes"/>
			<point x="547" y="257" type="line"/>
			<point x="547" y="0" type="line"/>
			<point x="1114" y="0" type="line" smooth="yes"/>
			<point x="1530" y="0"/>
			<point x="1688" y="146"/>
			<point x="1688" y="391" type="curve" smooth="yes"/>
			<point x="1688" y="614"/>
			<point x="1538" y="761"/>
			<point x="1268" y="774" type="curve"/>
			<point x="1268" y="755" type="line"/>
			<point x="1494" y="773"/>
			<point x="1615" y="891"/>
			<point x="1615" y="1081" type="curve" smooth="yes"/>
			<point x="1615" y="1282"/>
			<point x="1488" y="1414"/>
			<point x="1129" y="1414" type="curve" smooth="yes"/>
			<point x="547" y="1414" type="line"/>
		</contour>
		<contour>
			<point x="94" y="0" type="line"/>
			<point x="800" y="0" type="line"/>
			<point x="800" y="1414" type="line"/>
			<point x="94" y="1414" type="line"/>
			<point x="94" y="1278" type="line"/>
			<point x="262" y="1229" type="line"/>
			<point x="262" y="185" type="line"/>
			<point x="94" y="136" type="line"/>
		</contour>
	</outline>
	<anchor name="UCtop" x="921" y="1414"/>
	<anchor name="bottom" x="921" y="0"/>
</glyph>
<glyph name="C" format="2">
	<unicode hex="0043"/>
	<advance width="1636"/>
	<outline>
		<contour>
			<point x="1077" y="239" type="curve" smooth="yes"/>
			<point x="770" y="239"/>
			<point x="632" y="373"/>
			<point x="632" y="732" type="curve" smooth="yes"/>
			<point x="632" y="1053"/>
			<point x="737" y="1158"/>
			<point x="998" y="1158" type="curve" smooth="yes"/>
			<point x="1145" y="1158"/>
			<point x="1259" y="1128"/>
			<point x="1375" y="1050" type="curve"/>
			<point x="1167" y="1280" type="line"/>
			<point x="1313" y="886" type="line"/>
			<point x="1514" y="886" type="line"/>
			<point x="1514" y="1512" type="line"/>
			<point x="1355" y="1512" type="line"/>
			<point x="1225" y="1368" type="line"/>
			<point x="1352" y="1383" type="line"/>
			<point x="1215" y="1424"/>
			<point x="1079" y="1444"/>
			<point x="949" y="1444" type="curve" smooth="yes"/>
			<point x="353" y="1444"/>
			<point x="92" y="1123"/>
			<point x="92" y="684" type="curve" smooth="yes"/>
			<point x="92" y="204"/>
			<point x="373" y="-30"/>
			<point x="967" y="-30" type="curve" smooth="yes"/>
			<point x="1160" y="-30"/>
			<point x="1319" y="-6"/>
			<point x="1484" y="51" type="curve"/>
			<point x="1538" y="537" type="line"/>
			<point x="1369" y="537" type="line"/>
			<point x="1153" y="134" type="line"/>
			<point x="1384" y="302" type="line"/>
			<point x="1286" y="261"/>
			<point x="1174" y="239"/>
		</contour>
	</outline>
	<anchor name="UCtop" x="875" y="1414"/>
	<anchor name="bottom" x="955" y="0"/>
	<anchor name="right" x="1458" y="0"/>
</glyph>
<glyph name="D" format="2">
	<unicode hex="0044"/>
	<advance width="1843"/>
	<outline>
		<contour>
			<point x="1201" y="721" type="curve" smooth="yes"/>
			<point x="1201" y="417"/>
			<point x="1141" y="294"/>
			<point x="978" y="294" type="curve" smooth="yes"/>
			<point x="573" y="294" type="line"/>
			<point x="519" y="0" type="line"/>
			<point x="991" y="0" type="line" smooth="yes"/>
			<point x="1450" y="0"/>
			<point x="1749" y="257"/>
			<point x="1749" y="736" type="curve" smooth="yes"/>
			<point x="1749" y="1177"/>
			<point x="1495" y="1414"/>
			<point x="1000" y="1414" type="curve" smooth="yes"/>
			<point x="519" y="1414" type="line"/>
			<point x="573" y="1120" type="line"/>
			<point x="935" y="1120" type="line" smooth="yes"/>
			<point x="1143" y="1120"/>
			<point x="1201" y="1004"/>
		</contour>
		<contour>
			<point x="94" y="0" type="line"/>
			<point x="800" y="0" type="line"/>
			<point x="800" y="1414" type="line"/>
			<point x="94" y="1414" type="line"/>
			<point x="94" y="1278" type="line"/>
			<point x="262" y="1229" type="line"/>
			<point x="262" y="185" type="line"/>
			<point x="94" y="136" type="line"/>
		</contour>
	</outline>
	<anchor name="UCtop" x="901" y="1414"/>
	<anchor name="bottom" x="901" y="0"/>
</glyph>
<glyph name="E" format="2">
	<unicode hex="0045"/>
	<advance width="1725"/>
	<outline>
		<contour>
			<point x="1202" y="990" type="line"/>
			<point x="1018" y="990" type="line"/>
			<point x="1001" y="846" type="line"/>
			<point x="547" y="846" type="line"/>
			<point x="547" y="628" type="line"/>
			<point x="1001" y="628" type="line"/>
			<point x="1018" y="480" type="line"/>
			<point x="1202" y="480" type="line"/>
			<point x="1202" y="735" type="line"/>
		</contour>
		<contour>
			<point x="1595" y="948" type="line"/>
			<point x="1595" y="1512" type="line"/>
			<point x="1453" y="1512" type="line"/>
			<point x="1322" y="1414" type="line"/>
			<point x="547" y="1414" type="line"/>
			<point x="547" y="1157" type="line"/>
			<point x="1392" y="1157" type="line"/>
			<point x="1239" y="1328" type="line"/>
			<point x="1391" y="948" type="line"/>
		</contour>
		<contour>
			<point x="1206" y="91" type="line"/>
			<point x="1344" y="257" type="line"/>
			<point x="547" y="257" type="line"/>
			<point x="547" y="0" type="line"/>
			<point x="1282" y="0" type="line"/>
			<point x="1386" y="-103" type="line"/>
			<point x="1550" y="-103" type="line"/>
			<point x="1653" y="535" type="line"/>
			<point x="1438" y="535" type="line"/>
		</contour>
		<contour>
			<point x="94" y="0" type="line"/>
			<point x="800" y="0" type="line"/>
			<point x="800" y="1414" type="line"/>
			<point x="94" y="1414" type="line"/>
			<point x="94" y="1278" type="line"/>
			<point x="262" y="1229" type="line"/>
			<point x="262" y="185" type="line"/>
			<point x="94" y="136" type="line"/>
		</contour>
	</outline>
	<anchor name="UCtop" x="873" y="1414"/>
	<anchor name="right" x="1463" y="0"/>
	<anchor name="bottom" x="873" y="0"/>
</glyph>
<glyph name="F" format="2">
	<unicode hex="0046"/>
	<advance width="1594"/>
	<outline>
		<contour>
			<point x="1202" y="920" type="line"/>
			<point x="1018" y="920" type="line"/>
			<point x="1001" y="756" type="line"/>
			<point x="547" y="756" type="line"/>
			<point x="547" y="538" type="line"/>
			<point x="1001" y="538" type="line"/>
			<point x="1018" y="370" type="line"/>
			<point x="1202" y="370" type="line"/>
			<point x="1202" y="645" type="line"/>
		</contour>
		<contour>
			<point x="1393" y="1512" type="line"/>
			<point x="1262" y="1414" type="line"/>
			<point x="547" y="1414" type="line"/>
			<point x="547" y="1157" type="line"/>
			<point x="1332" y="1157" type="line"/>
			<point x="1179" y="1328" type="line"/>
			<point x="1331" y="918" type="line"/>
			<point x="1535" y="918" type="line"/>
			<point x="1535" y="1512" type="line"/>
		</contour>
		<contour>
			<point x="800" y="1414" type="line"/>
			<point x="94" y="1414" type="line"/>
			<point x="94" y="1278" type="line"/>
			<point x="262" y="1229" type="line"/>
			<point x="262" y="185" type="line"/>
			<point x="94" y="136" type="line"/>
			<point x="94" y="0" type="line"/>
			<point x="968" y="0" type="line"/>
			<point x="968" y="136" type="line"/>
			<point x="800" y="185" type="line"/>
		</contour>
	</outline>
	<anchor name="UCtop" x="805" y="1414"/>
	<anchor name="bottom" x="531" y="0"/>
</glyph>
<glyph name="G" format="2">
	<unicode hex="0047"/>
	<advance width="1779"/>
	<outline>
		<contour>
			<point x="1584" y="265" type="line"/>
			<point x="1584" y="492" type="line"/>
			<point x="1704" y="561" type="line"/>
			<point x="1704" y="677" type="line"/>
			<point x="909" y="677" type="line"/>
			<point x="909" y="561" type="line"/>
			<point x="1046" y="502" type="line"/>
			<point x="1046" y="16" type="line"/>
			<point x="1331" y="306" type="line"/>
			<point x="1230" y="267"/>
			<point x="1170" y="253"/>
			<point x="1077" y="253" type="curve" smooth="yes"/>
			<point x="768" y="253"/>
			<point x="632" y="380"/>
			<point x="632" y="732" type="curve" smooth="yes"/>
			<point x="632" y="1053"/>
			<point x="746" y="1158"/>
			<point x="1028" y="1158" type="curve" smooth="yes"/>
			<point x="1175" y="1158"/>
			<point x="1289" y="1128"/>
			<point x="1405" y="1050" type="curve"/>
			<point x="1197" y="1280" type="line"/>
			<point x="1343" y="886" type="line"/>
			<point x="1544" y="886" type="line"/>
			<point x="1544" y="1512" type="line"/>
			<point x="1385" y="1512" type="line"/>
			<point x="1255" y="1368" type="line"/>
			<point x="1382" y="1383" type="line"/>
			<point x="1245" y="1424"/>
			<point x="1109" y="1444"/>
			<point x="979" y="1444" type="curve" smooth="yes"/>
			<point x="362" y="1444"/>
			<point x="92" y="1123"/>
			<point x="92" y="684" type="curve" smooth="yes"/>
			<point x="92" y="204"/>
			<point x="373" y="-30"/>
			<point x="967" y="-30" type="curve" smooth="yes"/>
			<point x="1219" y="-30"/>
			<point x="1465" y="31"/>
			<point x="1688" y="126" type="curve"/>
			<point x="1688" y="265" type="line"/>
		</contour>
	</outline>
	<anchor name="UCtop" x="898" y="1414"/>
	<anchor name="bottom" x="968" y="0"/>
</glyph>
<glyph name="H" format="2">
	<unicode hex="0048"/>
	<advance width="2050"/>
	<outline>
		<contour>
			<point x="800" y="185" type="line"/>
			<point x="800" y="1229" type="line"/>
			<point x="968" y="1278" type="line"/>
			<point x="968" y="1414" type="line"/>
			<point x="94" y="1414" type="line"/>
			<point x="94" y="1278" type="line"/>
			<point x="262" y="1229" type="line"/>
			<point x="262" y="185" type="line"/>
			<point x="94" y="136" type="line"/>
			<point x="94" y="0" type="line"/>
			<point x="968" y="0" type="line"/>
			<point x="968" y="136" type="line"/>
		</contour>
		<contour>
			<point x="1788" y="185" type="line"/>
			<point x="1788" y="1229" type="line"/>
			<point x="1956" y="1278" type="line"/>
			<point x="1956" y="1414" type="line"/>
			<point x="1082" y="1414" type="line"/>
			<point x="1082" y="1278" type="line"/>
			<point x="1250" y="1229" type="line"/>
			<point x="1250" y="185" type="line"/>
			<point x="1082" y="136" type="line"/>
			<point x="1082" y="0" type="line"/>
			<point x="1956" y="0" type="line"/>
			<point x="1956" y="136" type="line"/>
		</contour>
		<contour>
			<point x="523" y="576" type="line"/>
			<point x="1529" y="576" type="line"/>
			<point x="1529" y="870" type="line"/>
			<point x="523" y="870" type="line"/>
		</contour>
	</outline>
	<anchor name="UCtop" x="1025" y="1414"/>
	<anchor name="bottom" x="1025" y="0"/>
</glyph>
<glyph name="I" format="2">
	<unicode hex="0049"/>
	<advance width="1062"/>
	<outline>
		<contour>
			<point x="968" y="136" type="line"/>
			<point x="800" y="185" type="line"/>
			<point x="800" y="1229" type="line"/>
			<point x="968" y="1278" type="line"/>
			<point x="968" y="1414" type="line"/>
			<point x="94" y="1414" type="line"/>
			<point x="94" y="1278" type="line"/>
			<point x="262" y="1229" type="line"/>
			<point x="262" y="185" type="line"/>
			<point x="94" y="136" type="line"/>
			<point x="94" y="0" type="line"/>
			<point x="968" y="0" type="line"/>
		</contour>
	</outline>
	<anchor name="UCtop" x="531" y="1414"/>
	<anchor name="right" x="731" y="0"/>
	<anchor name="bottom" x="531" y="0"/>
</glyph>
<glyph name="J" format="2">
	<unicode hex="004A"/>
	<advance width="1405"/>
	<outline>
		<contour>
			<point x="1193" y="511" type="curve" smooth="yes"/>
			<point x="1193" y="1229" type="line"/>
			<point x="1361" y="1278" type="line"/>
			<point x="1361" y="1414" type="line"/>
			<point x="487" y="1414" type="line"/>
			<point x="487" y="1278" type="line"/>
			<point x="655" y="1229" type="line"/>
			<point x="655" y="454" type="line" smooth="yes"/>
			<point x="655" y="307"/>
			<point x="607" y="255"/>
			<point x="458" y="255" type="curve" smooth="yes"/>
			<point x="336" y="255"/>
			<point x="217" y="410"/>
			<point x="167" y="410" type="curve" smooth="yes"/>
			<point x="79" y="410"/>
			<point x="10" y="349"/>
			<point x="10" y="240" type="curve" smooth="yes"/>
			<point x="10" y="79"/>
			<point x="136" y="-26"/>
			<point x="472" y="-26" type="curve" smooth="yes"/>
			<point x="967" y="-26"/>
			<point x="1193" y="199"/>
		</contour>
	</outline>
	<anchor name="UCtop" x="924" y="1414"/>
	<anchor name="bottom" x="695" y="0"/>
</glyph>
<glyph name="K" format="2">
  <advance width="1923"/>
  <unicode hex="004B"/>
  <anchor x="1021.0" y="1414" name="UCtop"/>
  <anchor x="1031.0" y="0" name="bottom"/>
  <outline>
    <contour>
      <point x="1754" y="199" type="line"/>
      <point x="1271" y="1014" type="line"/>
      <point x="1118" y="701" type="line"/>
      <point x="1651" y="1225" type="line"/>
      <point x="1817" y="1278" type="line"/>
      <point x="1817" y="1414" type="line"/>
      <point x="1128" y="1414" type="line"/>
      <point x="1128" y="1278" type="line"/>
      <point x="1300" y="1241" type="line"/>
      <point x="927" y="874" type="line"/>
      <point x="620" y="874" type="line"/>
      <point x="620" y="580" type="line"/>
      <point x="910" y="580" type="line"/>
      <point x="1158" y="116" type="line"/>
      <point x="1158" y="116" type="line"/>
      <point x="1158" y="0" type="line"/>
      <point x="1908" y="0" type="line"/>
      <point x="1908" y="136" type="line"/>
    </contour>
    <contour>
      <point x="800" y="1229" type="line"/>
      <point x="968" y="1278" type="line"/>
      <point x="968" y="1414" type="line"/>
      <point x="94" y="1414" type="line"/>
      <point x="94" y="1278" type="line"/>
      <point x="262" y="1229" type="line"/>
      <point x="262" y="185" type="line"/>
      <point x="94" y="136" type="line"/>
      <point x="94" y="0" type="line"/>
      <point x="968" y="0" type="line"/>
      <point x="968" y="136" type="line"/>
      <point x="800" y="185" type="line"/>
    </contour>
  </outline>
</glyph>
<glyph name="L" format="2">
	<unicode hex="004C"/>
	<advance width="1615"/>
	<outline>
		<contour>
			<point x="1459" y="-103" type="line"/>
			<point x="1581" y="603" type="line"/>
			<point x="1366" y="603" type="line"/>
			<point x="1103" y="148" type="line"/>
			<point x="1266" y="294" type="line"/>
			<point x="560" y="294" type="line"/>
			<point x="547" y="0" type="line"/>
			<point x="1191" y="0" type="line"/>
			<point x="1295" y="-103" type="line"/>
		</contour>
		<contour>
			<point x="800" y="1229" type="line"/>
			<point x="968" y="1278" type="line"/>
			<point x="968" y="1414" type="line"/>
			<point x="94" y="1414" type="line"/>
			<point x="94" y="1278" type="line"/>
			<point x="262" y="1229" type="line"/>
			<point x="262" y="185" type="line"/>
			<point x="94" y="136" type="line"/>
			<point x="94" y="0" type="line"/>
			<point x="800" y="0" type="line"/>
		</contour>
	</outline>
	<anchor name="UCtop" x="531" y="1414"/>
	<anchor name="right" x="981" y="1414"/>
	<anchor name="bottom" x="817" y="0"/>
	<anchor name="mid" x="1351" y="854"/>
</glyph>
<glyph name="M" format="2">
  <advance width="2553"/>
  <unicode hex="004D"/>
  <anchor x="1240.0" y="1414" name="UCtop"/>
  <anchor x="1150.0" y="0" name="bottom"/>
  <outline>
    <contour>
      <point x="2306" y="195" type="line"/>
      <point x="2260" y="1213" type="line"/>
      <point x="2432" y="1278" type="line"/>
      <point x="2432" y="1414" type="line"/>
      <point x="1490" y="1414" type="line"/>
      <point x="1254" y="460" type="line"/>
      <point x="1268" y="460" type="line"/>
      <point x="1040" y="1414" type="line"/>
      <point x="100" y="1414" type="line"/>
      <point x="100" y="1278" type="line"/>
      <point x="298" y="1198" type="line"/>
      <point x="247" y="188" type="line"/>
      <point x="79" y="136" type="line"/>
      <point x="79" y="0" type="line"/>
      <point x="656" y="0" type="line"/>
      <point x="656" y="136" type="line"/>
      <point x="538" y="184" type="line"/>
      <point x="578" y="1134" type="line"/>
      <point x="569" y="1133" type="line"/>
      <point x="866" y="0" type="line"/>
      <point x="1423" y="0" type="line"/>
      <point x="1723" y="1155" type="line"/>
      <point x="1706" y="1156" type="line"/>
      <point x="1756" y="184" type="line"/>
      <point x="1631" y="136" type="line"/>
      <point x="1631" y="0" type="line"/>
      <point x="2481" y="0" type="line"/>
      <point x="2481" y="136" type="line"/>
    </contour>
  </outline>
</glyph>
<glyph name="N" format="2">
	<unicode hex="004E"/>
	<advance width="1929"/>
	<outline>
		<contour>
			<point x="268" y="183" type="line"/>
			<point x="100" y="136" type="line"/>
			<point x="100" y="0" type="line"/>
			<point x="720" y="0" type="line"/>
			<point x="720" y="136" type="line"/>
			<point x="552" y="183" type="line"/>
			<point x="552" y="1298" type="line"/>
			<point x="412" y="1260" type="line"/>
			<point x="1082" y="0" type="line"/>
			<point x="1688" y="0" type="line"/>
			<point x="1688" y="1231" type="line"/>
			<point x="1856" y="1278" type="line"/>
			<point x="1856" y="1414" type="line"/>
			<point x="1236" y="1414" type="line"/>
			<point x="1236" y="1278" type="line"/>
			<point x="1404" y="1231" type="line"/>
			<point x="1404" y="242" type="line"/>
			<point x="1455" y="411" type="line"/>
			<point x="917" y="1414" type="line"/>
			<point x="80" y="1414" type="line"/>
			<point x="80" y="1278" type="line"/>
			<point x="268" y="1211" type="line"/>
		</contour>
	</outline>
	<anchor name="UCtop" x="998" y="1414"/>
	<anchor name="bottom" x="1018" y="0"/>
</glyph>
<glyph name="O" format="2">
	<unicode hex="004F"/>
	<advance width="1797"/>
	<outline>
		<contour>
			<point x="933" y="1444" type="curve" smooth="yes"/>
			<point x="410" y="1444"/>
			<point x="92" y="1181"/>
			<point x="92" y="706" type="curve" smooth="yes"/>
			<point x="92" y="234"/>
			<point x="363" y="-29"/>
			<point x="864" y="-29" type="curve" smooth="yes"/>
			<point x="1387" y="-29"/>
			<point x="1705" y="234"/>
			<point x="1705" y="709" type="curve" smooth="yes"/>
			<point x="1705" y="1181"/>
			<point x="1434" y="1444"/>
		</contour>
		<contour>
			<point x="897" y="275" type="curve" smooth="yes"/>
			<point x="701" y="275"/>
			<point x="633" y="417"/>
			<point x="633" y="773" type="curve" smooth="yes"/>
			<point x="633" y="1045"/>
			<point x="725" y="1140"/>
			<point x="900" y="1140" type="curve" smooth="yes"/>
			<point x="1096" y="1140"/>
			<point x="1164" y="998"/>
			<point x="1164" y="642" type="curve" smooth="yes"/>
			<point x="1164" y="370"/>
			<point x="1072" y="275"/>
		</contour>
	</outline>
	<anchor name="UCtop" x="898" y="1414"/>
	<anchor name="bottom" x="898" y="0"/>
	<anchor name="right" x="1108" y="0"/>
	<anchor name="horn" x="1265" y="1414"/>
</glyph>
<glyph name="P" format="2">
	<unicode hex="0050"/>
	<advance width="1698"/>
	<outline>
		<contour>
			<point x="1125" y="940" type="curve" smooth="yes"/>
			<point x="1125" y="812"/>
			<point x="1077" y="759"/>
			<point x="961" y="759" type="curve" smooth="yes"/>
			<point x="670" y="759" type="line"/>
			<point x="475" y="479" type="line"/>
			<point x="1077" y="479" type="line" smooth="yes"/>
			<point x="1483" y="479"/>
			<point x="1642" y="668"/>
			<point x="1642" y="940" type="curve" smooth="yes"/>
			<point x="1642" y="1237"/>
			<point x="1463" y="1414"/>
			<point x="1041" y="1414" type="curve" smooth="yes"/>
			<point x="508" y="1414" type="line"/>
			<point x="670" y="1120" type="line"/>
			<point x="985" y="1120" type="line" smooth="yes"/>
			<point x="1089" y="1120"/>
			<point x="1125" y="1060"/>
		</contour>
		<contour>
			<point x="800" y="1414" type="line"/>
			<point x="94" y="1414" type="line"/>
			<point x="94" y="1278" type="line"/>
			<point x="262" y="1229" type="line"/>
			<point x="262" y="185" type="line"/>
			<point x="94" y="136" type="line"/>
			<point x="94" y="0" type="line"/>
			<point x="968" y="0" type="line"/>
			<point x="968" y="136" type="line"/>
			<point x="800" y="185" type="line"/>
		</contour>
	</outline>
	<anchor name="UCtop" x="868" y="1414"/>
	<anchor name="bottom" x="531" y="0"/>
</glyph>
<glyph name="Q" format="2">
	<unicode hex="0051"/>
	<advance width="1797"/>
	<outline>
		<contour>
			<point x="581" y="-175" type="line" smooth="yes"/>
			<point x="790" y="-407"/>
			<point x="884" y="-465"/>
			<point x="1193" y="-465" type="curve" smooth="yes"/>
			<point x="1365" y="-465"/>
			<point x="1449" y="-451"/>
			<point x="1542" y="-434" type="curve"/>
			<point x="1542" y="-221" type="line"/>
			<point x="1318" y="-237"/>
			<point x="1256" y="-221"/>
			<point x="1088" y="-108" type="curve" smooth="yes"/>
			<point x="725" y="137" type="line"/>
			<point x="796" y="34" type="line"/>
			<point x="1334" y="-45"/>
			<point x="1705" y="253"/>
			<point x="1705" y="709" type="curve" smooth="yes"/>
			<point x="1705" y="1181"/>
			<point x="1434" y="1444"/>
			<point x="933" y="1444" type="curve" smooth="yes"/>
			<point x="410" y="1444"/>
			<point x="92" y="1181"/>
			<point x="92" y="706" type="curve" smooth="yes"/>
			<point x="92" y="451"/>
			<point x="170" y="281"/>
			<point x="302" y="135" type="curve" smooth="yes"/>
		</contour>
		<contour>
			<point x="897" y="291" type="curve" smooth="yes"/>
			<point x="701" y="291"/>
			<point x="633" y="428"/>
			<point x="633" y="773" type="curve" smooth="yes"/>
			<point x="633" y="1045"/>
			<point x="725" y="1140"/>
			<point x="900" y="1140" type="curve" smooth="yes"/>
			<point x="1096" y="1140"/>
			<point x="1164" y="998"/>
			<point x="1164" y="642" type="curve" smooth="yes"/>
			<point x="1164" y="382"/>
			<point x="1072" y="291"/>
		</contour>
	</outline>
	<anchor name="UCtop" x="898" y="1414"/>
	<anchor name="bottom" x="928" y="-435"/>
</glyph>
<glyph name="R" format="2">
  <advance width="1860"/>
  <unicode hex="0052"/>
  <anchor x="945.0" y="1414" name="UCtop"/>
  <anchor x="1005.0" y="0" name="bottom"/>
  <outline>
    <contour>
      <point x="1051" y="784" type="curve" smooth="yes"/>
      <point x="508" y="784" type="line"/>
      <point x="508" y="567" type="line"/>
      <point x="898" y="567" type="line" smooth="yes"/>
      <point x="1045" y="567"/>
      <point x="1073" y="544"/>
      <point x="1091" y="415" type="curve" smooth="yes"/>
      <point x="1122" y="195" type="line" smooth="yes"/>
      <point x="1149" y="3"/>
      <point x="1251" y="-46"/>
      <point x="1796" y="0" type="curve"/>
      <point x="1796" y="188" type="line"/>
      <point x="1688" y="188"/>
      <point x="1666" y="202"/>
      <point x="1652" y="317" type="curve" smooth="yes"/>
      <point x="1642" y="402" type="line" smooth="yes"/>
      <point x="1621" y="581"/>
      <point x="1562" y="657"/>
      <point x="1223" y="677" type="curve"/>
      <point x="1223" y="674" type="line"/>
      <point x="1560" y="695"/>
      <point x="1716" y="852"/>
      <point x="1716" y="1060" type="curve" smooth="yes"/>
      <point x="1716" y="1276"/>
      <point x="1593" y="1414"/>
      <point x="1229" y="1414" type="curve" smooth="yes"/>
      <point x="508" y="1414" type="line"/>
      <point x="508" y="1120" type="line"/>
      <point x="1077" y="1120" type="line" smooth="yes"/>
      <point x="1172" y="1120"/>
      <point x="1202" y="1068"/>
      <point x="1202" y="951" type="curve" smooth="yes"/>
      <point x="1202" y="832"/>
      <point x="1159" y="784"/>
    </contour>
    <contour>
      <point x="800" y="1414" type="line"/>
      <point x="94" y="1414" type="line"/>
      <point x="94" y="1278" type="line"/>
      <point x="262" y="1229" type="line"/>
      <point x="262" y="185" type="line"/>
      <point x="94" y="136" type="line"/>
      <point x="94" y="0" type="line"/>
      <point x="938" y="0" type="line"/>
      <point x="938" y="136" type="line"/>
      <point x="800" y="185" type="line"/>
    </contour>
  </outline>
</glyph>
<glyph name="S" format="2">
	<unicode hex="0053"/>
	<advance width="1535"/>
	<outline>
		<contour>
			<point x="1256" y="1364" type="line"/>
			<point x="1108" y="1425"/>
			<point x="981" y="1444"/>
			<point x="818" y="1444" type="curve" smooth="yes"/>
			<point x="369" y="1444"/>
			<point x="104" y="1286"/>
			<point x="104" y="964" type="curve" smooth="yes"/>
			<point x="104" y="630"/>
			<point x="312" y="556"/>
			<point x="526" y="530" type="curve" smooth="yes"/>
			<point x="740" y="504"/>
			<point x="964" y="527"/>
			<point x="964" y="372" type="curve" smooth="yes"/>
			<point x="964" y="276"/>
			<point x="899" y="225"/>
			<point x="612" y="225" type="curve" smooth="yes"/>
			<point x="456" y="225"/>
			<point x="353" y="240"/>
			<point x="224" y="294" type="curve"/>
			<point x="570" y="29" type="line"/>
			<point x="296" y="440" type="line"/>
			<point x="129" y="440" type="line"/>
			<point x="162" y="18" type="line"/>
			<point x="324" y="-28"/>
			<point x="471" y="-30"/>
			<point x="664" y="-30" type="curve" smooth="yes"/>
			<point x="1188" y="-30"/>
			<point x="1438" y="139"/>
			<point x="1438" y="480" type="curve" smooth="yes"/>
			<point x="1438" y="828"/>
			<point x="1185" y="897"/>
			<point x="968" y="927" type="curve" smooth="yes"/>
			<point x="751" y="957"/>
			<point x="572" y="955"/>
			<point x="572" y="1080" type="curve" smooth="yes"/>
			<point x="572" y="1172"/>
			<point x="658" y="1188"/>
			<point x="830" y="1188" type="curve" smooth="yes"/>
			<point x="986" y="1188"/>
			<point x="1098" y="1168"/>
			<point x="1167" y="1122" type="curve"/>
			<point x="1057" y="1251" type="line"/>
			<point x="1182" y="1007" type="line"/>
			<point x="1374" y="1007" type="line"/>
			<point x="1374" y="1512" type="line"/>
			<point x="1214" y="1512" type="line"/>
			<point x="1093" y="1350" type="line"/>
		</contour>
	</outline>
	<anchor name="UCtop" x="731" y="1414"/>
	<anchor name="bottom" x="771" y="0"/>
</glyph>
<glyph name="T" format="2">
	<unicode hex="0054"/>
	<advance width="1740"/>
	<outline>
		<contour>
			<point x="601" y="1359" type="line"/>
			<point x="601" y="185" type="line"/>
			<point x="433" y="136" type="line"/>
			<point x="433" y="0" type="line"/>
			<point x="1307" y="0" type="line"/>
			<point x="1307" y="136" type="line"/>
			<point x="1139" y="185" type="line"/>
			<point x="1139" y="1359" type="line"/>
		</contour>
		<contour>
			<point x="1442" y="1120" type="line"/>
			<point x="1312" y="1267" type="line"/>
			<point x="1491" y="858" type="line"/>
			<point x="1696" y="858" type="line"/>
			<point x="1624" y="1514" type="line"/>
			<point x="1473" y="1514" type="line"/>
			<point x="1352" y="1365" type="line"/>
			<point x="1516" y="1414" type="line"/>
			<point x="223" y="1414" type="line"/>
			<point x="388" y="1365" type="line"/>
			<point x="267" y="1514" type="line"/>
			<point x="116" y="1514" type="line"/>
			<point x="44" y="858" type="line"/>
			<point x="249" y="858" type="line"/>
			<point x="428" y="1267" type="line"/>
			<point x="298" y="1120" type="line"/>
		</contour>
	</outline>
	<anchor name="UCtop" x="870" y="1414"/>
	<anchor name="bottom" x="870" y="0"/>
</glyph>
<glyph name="U" format="2">
	<unicode hex="0055"/>
	<advance width="1834"/>
	<outline>
		<contour>
			<point x="1339" y="612" type="line" smooth="yes"/>
			<point x="1339" y="426"/>
			<point x="1255" y="338"/>
			<point x="1048" y="338" type="curve" smooth="yes"/>
			<point x="850" y="338"/>
			<point x="752" y="409"/>
			<point x="752" y="565" type="curve" smooth="yes"/>
			<point x="752" y="1231" type="line"/>
			<point x="920" y="1278" type="line"/>
			<point x="920" y="1414" type="line"/>
			<point x="46" y="1414" type="line"/>
			<point x="46" y="1278" type="line"/>
			<point x="214" y="1231" type="line"/>
			<point x="214" y="528" type="line" smooth="yes"/>
			<point x="214" y="130"/>
			<point x="453" y="-30"/>
			<point x="944" y="-30" type="curve" smooth="yes"/>
			<point x="1393" y="-30"/>
			<point x="1623" y="154"/>
			<point x="1623" y="580" type="curve" smooth="yes"/>
			<point x="1623" y="1231" type="line"/>
			<point x="1791" y="1278" type="line"/>
			<point x="1791" y="1414" type="line"/>
			<point x="1171" y="1414" type="line"/>
			<point x="1171" y="1278" type="line"/>
			<point x="1339" y="1231" type="line"/>
		</contour>
	</outline>
	<anchor name="UCtop" x="1019" y="1414"/>
	<anchor name="right" x="1201" y="0"/>
	<anchor name="bottom" x="989" y="0"/>
	<anchor name="horn" x="1571" y="1414"/>
</glyph>
<glyph name="V" format="2">
	<unicode hex="0056"/>
	<advance width="1921"/>
	<outline>
		<contour>
			<point x="189" y="1225" type="line"/>
			<point x="659" y="0" type="line"/>
			<point x="1298" y="0" type="line"/>
			<point x="1736" y="1245" type="line"/>
			<point x="1904" y="1278" type="line"/>
			<point x="1904" y="1414" type="line"/>
			<point x="1272" y="1414" type="line"/>
			<point x="1272" y="1278" type="line"/>
			<point x="1429" y="1239" type="line"/>
			<point x="1090" y="210" type="line"/>
			<point x="1125" y="210" type="line"/>
			<point x="757" y="1245" type="line"/>
			<point x="917" y="1278" type="line"/>
			<point x="917" y="1414" type="line"/>
			<point x="4" y="1414" type="line"/>
			<point x="4" y="1278" type="line"/>
		</contour>
	</outline>
	<anchor name="UCtop" x="1054" y="1414"/>
	<anchor name="bottom" x="984" y="0"/>
</glyph>
<glyph name="W" format="2">
	<unicode hex="0057"/>
	<advance width="2633"/>
	<outline>
		<contour>
			<point x="1409" y="1034" type="line"/>
			<point x="1295" y="1034" type="line"/>
			<point x="1584" y="0" type="line"/>
			<point x="2183" y="0" type="line"/>
			<point x="2441" y="1248" type="line"/>
			<point x="2609" y="1278" type="line"/>
			<point x="2609" y="1414" type="line"/>
			<point x="2003" y="1414" type="line"/>
			<point x="2003" y="1278" type="line"/>
			<point x="2130" y="1242" type="line"/>
			<point x="1966" y="113" type="line"/>
			<point x="2095" y="153" type="line"/>
			<point x="1706" y="1414" type="line"/>
			<point x="1200" y="1414" type="line"/>
			<point x="846" y="139" type="line"/>
			<point x="961" y="158" type="line"/>
			<point x="768" y="1248" type="line"/>
			<point x="898" y="1278" type="line"/>
			<point x="898" y="1414" type="line"/>
			<point x="15" y="1414" type="line"/>
			<point x="15" y="1278" type="line"/>
			<point x="200" y="1228" type="line"/>
			<point x="470" y="0" type="line"/>
			<point x="1099" y="0" type="line"/>
		</contour>
	</outline>
	<anchor name="UCtop" x="1452" y="1414"/>
	<anchor name="bottom" x="1342" y="0"/>
</glyph>
<glyph name="Y" format="2">
	<unicode hex="0059"/>
	<advance width="1814"/>
	<outline>
		<contour>
			<point x="157" y="1239" type="line"/>
			<point x="660" y="600" type="line"/>
			<point x="660" y="185" type="line"/>
			<point x="492" y="136" type="line"/>
			<point x="492" y="0" type="line"/>
			<point x="1366" y="0" type="line"/>
			<point x="1366" y="136" type="line"/>
			<point x="1198" y="185" type="line"/>
			<point x="1198" y="602" type="line"/>
			<point x="1649" y="1239" type="line"/>
			<point x="1783" y="1278" type="line"/>
			<point x="1783" y="1414" type="line"/>
			<point x="1198" y="1414" type="line"/>
			<point x="1198" y="1278" type="line"/>
			<point x="1328" y="1239" type="line"/>
			<point x="982" y="732" type="line"/>
			<point x="1169" y="740" type="line"/>
			<point x="799" y="1239" type="line"/>
			<point x="932" y="1278" type="line"/>
			<point x="932" y="1414" type="line"/>
			<point x="5" y="1414" type="line"/>
			<point x="5" y="1278" type="line"/>
		</contour>
	</outline>
	<anchor name="UCtop" x="1034" y="1414"/>
	<anchor name="bottom" x="929" y="0"/>
</glyph>
<glyph name="Z" format="2">
	<unicode hex="005A"/>
	<advance width="1636"/>
	<outline>
		<contour>
			<point x="1468" y="1414" type="line"/>
			<point x="388" y="1414" type="line"/>
			<point x="260" y="1505" type="line"/>
			<point x="126" y="1505" type="line"/>
			<point x="126" y="864" type="line"/>
			<point x="288" y="864" type="line"/>
			<point x="405" y="1120" type="line"/>
			<point x="1280" y="1120" type="line"/>
			<point x="939" y="1280" type="line"/>
			<point x="135" y="274" type="line"/>
			<point x="135" y="0" type="line"/>
			<point x="1214" y="0" type="line"/>
			<point x="1311" y="-104" type="line"/>
			<point x="1466" y="-104" type="line"/>
			<point x="1574" y="599" type="line"/>
			<point x="1409" y="599" type="line"/>
			<point x="1196" y="294" type="line"/>
			<point x="379" y="294" type="line"/>
			<point x="656" y="133" type="line"/>
			<point x="1468" y="1141" type="line"/>
		</contour>
	</outline>
	<anchor name="UCtop" x="870" y="1414"/>
	<anchor name="bottom" x="760" y="0"/>
</glyph>
<glyph name="bracketleft" format="2">
	<unicode hex="005B"/>
	<advance width="923"/>
	<outline>
		<contour>
			<point x="184" y="-217" type="line"/>
			<point x="864" y="-217" type="line"/>
			<point x="864" y="0" type="line"/>
			<point x="544" y="0" type="line"/>
			<point x="544" y="1247" type="line"/>
			<point x="864" y="1247" type="line"/>
			<point x="864" y="1464" type="line"/>
			<point x="184" y="1464" type="line"/>
		</contour>
	</outline>
</glyph>
<glyph name="backslash" format="2">
  <advance width="1023.0"/>
  <unicode hex="005C"/>
  <outline>
    <contour>
      <point x="976.0" y="0.0" type="line"/>
      <point x="385.0" y="1414.0" type="line"/>
      <point x="45.0" y="1414.0" type="line"/>
      <point x="636.0" y="0.0" type="line"/>
    </contour>
  </outline>
</glyph>
<glyph name="bracketright" format="2">
	<unicode hex="005D"/>
	<advance width="923"/>
	<outline>
		<contour>
			<point x="739" y="1464" type="line"/>
			<point x="59" y="1464" type="line"/>
			<point x="59" y="1247" type="line"/>
			<point x="379" y="1247" type="line"/>
			<point x="379" y="0" type="line"/>
			<point x="59" y="0" type="line"/>
			<point x="59" y="-217" type="line"/>
			<point x="739" y="-217" type="line"/>
		</contour>
	</outline>
</glyph>
<glyph name="asciicircum" format="2">
	<unicode hex="005E"/>
	<advance width="1140"/>
	<outline>
		<contour>
			<point x="494" y="1248" type="line"/>
			<point x="777" y="650" type="line"/>
			<point x="1070" y="650" type="line"/>
			<point x="704" y="1414" type="line"/>
			<point x="437" y="1414" type="line"/>
			<point x="70" y="650" type="line"/>
			<point x="363" y="650" type="line"/>
			<point x="647" y="1248" type="line"/>
		</contour>
	</outline>
</glyph>
<glyph name="a" format="2">
	<unicode hex="0061"/>
	<advance width="1380"/>
	<outline>
		<contour>
			<point x="779" y="646" type="line"/>
			<point x="170" y="572"/>
			<point x="70" y="468"/>
			<point x="70" y="267" type="curve" smooth="yes"/>
			<point x="70" y="65"/>
			<point x="192" y="-30"/>
			<point x="418" y="-30" type="curve" smooth="yes"/>
			<point x="618" y="-30"/>
			<point x="713" y="42"/>
			<point x="778" y="304" type="curve"/>
			<point x="763" y="288" type="line"/>
			<point x="778" y="58"/>
			<point x="871" y="-30"/>
			<point x="1050" y="-30" type="curve" smooth="yes"/>
			<point x="1169" y="-30"/>
			<point x="1275" y="6"/>
			<point x="1363" y="51" type="curve"/>
			<point x="1363" y="192" type="line"/>
			<point x="1331" y="187"/>
			<point x="1310" y="185"/>
			<point x="1292" y="185" type="curve" smooth="yes"/>
			<point x="1242" y="185"/>
			<point x="1219" y="200"/>
			<point x="1219" y="257" type="curve" smooth="yes"/>
			<point x="1219" y="691" type="line" smooth="yes"/>
			<point x="1219" y="937"/>
			<point x="1096" y="1074"/>
			<point x="751" y="1074" type="curve" smooth="yes"/>
			<point x="346" y="1074"/>
			<point x="93" y="901"/>
			<point x="93" y="784" type="curve" smooth="yes"/>
			<point x="93" y="726"/>
			<point x="139" y="689"/>
			<point x="244" y="689" type="curve" smooth="yes"/>
			<point x="358" y="689"/>
			<point x="411" y="705"/>
			<point x="434" y="771" type="curve" smooth="yes"/>
			<point x="457" y="835"/>
			<point x="476" y="904"/>
			<point x="494" y="983" type="curve"/>
			<point x="438" y="895" type="line"/>
			<point x="465" y="899"/>
			<point x="500" y="902"/>
			<point x="575" y="902" type="curve" smooth="yes"/>
			<point x="696" y="902"/>
			<point x="745" y="843"/>
			<point x="745" y="722" type="curve" smooth="yes"/>
			<point x="745" y="336" type="line" smooth="yes"/>
			<point x="745" y="285"/>
			<point x="702" y="253"/>
			<point x="624" y="253" type="curve" smooth="yes"/>
			<point x="536" y="253"/>
			<point x="522" y="277"/>
			<point x="522" y="360" type="curve" smooth="yes"/>
			<point x="522" y="448"/>
			<point x="556" y="478"/>
			<point x="779" y="493" type="curve"/>
		</contour>
	</outline>
	<anchor name="top" x="676" y="1044"/>
	<anchor name="right" x="1363" y="0"/>
	<anchor name="bottom" x="696" y="0"/>
</glyph>
<glyph name="b" format="2">
	<unicode hex="0062"/>
	<advance width="1469"/>
	<outline>
		<contour>
			<point x="612" y="284" type="line"/>
			<point x="639" y="23"/>
			<point x="766" y="-30"/>
			<point x="919" y="-30" type="curve" smooth="yes"/>
			<point x="1194" y="-30"/>
			<point x="1388" y="152"/>
			<point x="1388" y="562" type="curve" smooth="yes"/>
			<point x="1388" y="878"/>
			<point x="1242" y="1074"/>
			<point x="948" y="1074" type="curve" smooth="yes"/>
			<point x="869" y="1074"/>
			<point x="830" y="1061"/>
			<point x="563" y="865" type="curve"/>
			<point x="563" y="792" type="line"/>
			<point x="619" y="798"/>
			<point x="685" y="801"/>
			<point x="724" y="801" type="curve" smooth="yes"/>
			<point x="872" y="801"/>
			<point x="926" y="733"/>
			<point x="926" y="528" type="curve" smooth="yes"/>
			<point x="926" y="301"/>
			<point x="866" y="240"/>
			<point x="770" y="240" type="curve" smooth="yes"/>
			<point x="669" y="240"/>
			<point x="633" y="282"/>
			<point x="633" y="451" type="curve" smooth="yes"/>
			<point x="633" y="1194" type="line"/>
			<point x="659" y="1494" type="line"/>
			<point x="537" y="1494" type="line"/>
			<point x="-27" y="1396" type="line"/>
			<point x="-27" y="1264" type="line"/>
			<point x="51" y="1210.1630434783"/>
			<point x="131" y="1154.9456521739"/>
			<point x="157" y="1137" type="curve"/>
			<point x="157" y="284" type="line"/>
			<point x="101" y="0" type="line"/>
			<point x="485" y="0" type="line"/>
			<point x="638" y="284" type="line"/>
		</contour>
	</outline>
	<anchor name="UCtop" x="754" y="1414"/>
	<anchor name="bottom" x="700" y="0"/>
</glyph>
<glyph name="c" format="2">
	<unicode hex="0063"/>
	<advance width="1238"/>
	<outline>
		<contour>
			<point x="729" y="1074" type="curve" smooth="yes"/>
			<point x="288" y="1074"/>
			<point x="75" y="822"/>
			<point x="75" y="504" type="curve" smooth="yes"/>
			<point x="75" y="154"/>
			<point x="284" y="-30"/>
			<point x="664" y="-30" type="curve" smooth="yes"/>
			<point x="777" y="-30"/>
			<point x="904" y="11"/>
			<point x="1159" y="168" type="curve"/>
			<point x="1159" y="330" type="line"/>
			<point x="1049" y="307"/>
			<point x="945" y="294"/>
			<point x="804" y="294" type="curve" smooth="yes"/>
			<point x="570" y="294"/>
			<point x="505" y="358"/>
			<point x="505" y="626" type="curve" smooth="yes"/>
			<point x="505" y="850"/>
			<point x="562" y="902"/>
			<point x="670" y="902" type="curve" smooth="yes"/>
			<point x="735" y="902"/>
			<point x="946" y="640"/>
			<point x="1006" y="640" type="curve" smooth="yes"/>
			<point x="1075" y="640"/>
			<point x="1183" y="710"/>
			<point x="1183" y="829" type="curve" smooth="yes"/>
			<point x="1183" y="975"/>
			<point x="1066" y="1074"/>
		</contour>
	</outline>
	<anchor name="top" x="651" y="1044"/>
	<anchor name="right" x="1183" y="0"/>
	<anchor name="bottom" x="669" y="0"/>
</glyph>
<glyph name="d" format="2">
	<unicode hex="0064"/>
	<advance width="1502"/>
	<outline>
		<contour>
			<point x="833" y="654" type="curve" smooth="yes"/>
			<point x="833" y="197" type="line"/>
			<point x="938" y="-30" type="line"/>
			<point x="1001" y="-30" type="line"/>
			<point x="1477" y="99" type="line"/>
			<point x="1477" y="189" type="line"/>
			<point x="1435" y="221"/>
			<point x="1333" y="298.7142857143"/>
			<point x="1309" y="317" type="curve"/>
			<point x="1309" y="1194" type="line"/>
			<point x="1335" y="1494" type="line"/>
			<point x="1213" y="1494" type="line"/>
			<point x="649" y="1396" type="line"/>
			<point x="649" y="1264" type="line"/>
			<point x="706" y="1240.1467391304"/>
			<point x="809" y="1197.0434782609"/>
			<point x="833" y="1187" type="curve"/>
			<point x="833" y="970" type="line"/>
			<point x="1130" y="970" type="line"/>
			<point x="978" y="1049"/>
			<point x="877" y="1074"/>
			<point x="715" y="1074" type="curve" smooth="yes"/>
			<point x="357" y="1074"/>
			<point x="78" y="853"/>
			<point x="78" y="482" type="curve" smooth="yes"/>
			<point x="78" y="165"/>
			<point x="224" y="-30"/>
			<point x="518" y="-30" type="curve" smooth="yes"/>
			<point x="597" y="-30"/>
			<point x="636" y="-17"/>
			<point x="903" y="179" type="curve"/>
			<point x="903" y="252" type="line"/>
			<point x="847" y="246"/>
			<point x="781" y="243"/>
			<point x="742" y="243" type="curve" smooth="yes"/>
			<point x="594" y="243"/>
			<point x="540" y="310"/>
			<point x="540" y="525" type="curve" smooth="yes"/>
			<point x="540" y="762"/>
			<point x="606" y="826"/>
			<point x="724" y="826" type="curve" smooth="yes"/>
			<point x="803" y="826"/>
			<point x="833" y="783"/>
		</contour>
	</outline>
	<anchor name="UCtop" x="708" y="1414"/>
	<anchor name="right" x="1310" y="1414"/>
	<anchor name="bottom" x="778" y="0"/>
	<anchor name="center" x="1054" y="1207"/>
</glyph>
<glyph name="e" format="2">
	<unicode hex="0065"/>
	<advance width="1282"/>
	<outline>
		<contour>
			<point x="665" y="1074" type="curve" smooth="yes"/>
			<point x="279" y="1074"/>
			<point x="77" y="856"/>
			<point x="77" y="504" type="curve" smooth="yes"/>
			<point x="77" y="154"/>
			<point x="288" y="-30"/>
			<point x="673" y="-30" type="curve" smooth="yes"/>
			<point x="798" y="-30"/>
			<point x="942" y="19"/>
			<point x="1174" y="168" type="curve"/>
			<point x="1174" y="309" type="line"/>
			<point x="1064" y="289"/>
			<point x="957" y="280"/>
			<point x="815" y="280" type="curve" smooth="yes"/>
			<point x="578" y="280"/>
			<point x="507" y="347"/>
			<point x="507" y="612" type="curve" smooth="yes"/>
			<point x="507" y="803"/>
			<point x="542" y="849"/>
			<point x="638" y="849" type="curve" smooth="yes"/>
			<point x="742" y="849"/>
			<point x="782" y="813"/>
			<point x="774" y="565" type="curve"/>
			<point x="858" y="643" type="line"/>
			<point x="391" y="643" type="line"/>
			<point x="391" y="483" type="line"/>
			<point x="1211" y="483" type="line"/>
			<point x="1192" y="919"/>
			<point x="1028" y="1074"/>
		</contour>
	</outline>
	<anchor name="top" x="661" y="1044"/>
	<anchor name="right" x="1174" y="0"/>
	<anchor name="bottom" x="661" y="0"/>
</glyph>
<glyph name="f" format="2">
	<unicode hex="0066"/>
	<advance width="1098"/>
	<outline>
		<contour>
			<point x="513" y="790" type="line"/>
			<point x="1060" y="790" type="line"/>
			<point x="1060" y="1044" type="line"/>
			<point x="519" y="1044" type="line"/>
			<point x="269" y="1077" type="line"/>
			<point x="25" y="962" type="line"/>
			<point x="25" y="873" type="line"/>
			<point x="251" y="764" type="line"/>
		</contour>
		<contour>
			<point x="727" y="152" type="line"/>
			<point x="727" y="1112" type="line" smooth="yes"/>
			<point x="727" y="1225"/>
			<point x="761" y="1269"/>
			<point x="886" y="1269" type="curve" smooth="yes"/>
			<point x="1082" y="1269"/>
			<point x="1119" y="1098"/>
			<point x="1164" y="1098" type="curve" smooth="yes"/>
			<point x="1294" y="1098"/>
			<point x="1366" y="1184"/>
			<point x="1366" y="1277" type="curve" smooth="yes"/>
			<point x="1366" y="1404"/>
			<point x="1305" y="1494"/>
			<point x="894" y="1494" type="curve" smooth="yes"/>
			<point x="433" y="1494"/>
			<point x="251" y="1359"/>
			<point x="251" y="995" type="curve" smooth="yes"/>
			<point x="251" y="152" type="line"/>
			<point x="129" y="119" type="line"/>
			<point x="129" y="0" type="line"/>
			<point x="869" y="0" type="line"/>
			<point x="869" y="119" type="line"/>
		</contour>
	</outline>
	<anchor name="UCtop" x="815" y="1464"/>
	<anchor name="bottom" x="489" y="0"/>
</glyph>
<glyph name="g" format="2">
	<unicode hex="0067"/>
	<advance width="1342"/>
	<outline>
		<contour>
			<point x="629" y="-465" type="curve" smooth="yes"/>
			<point x="1103" y="-465"/>
			<point x="1328" y="-328"/>
			<point x="1328" y="-87" type="curve" smooth="yes"/>
			<point x="1327" y="132"/>
			<point x="1201" y="210"/>
			<point x="791" y="211" type="curve" smooth="yes"/>
			<point x="381" y="212"/>
			<point x="379" y="226"/>
			<point x="379" y="278" type="curve" smooth="yes"/>
			<point x="379" y="313"/>
			<point x="397" y="330"/>
			<point x="479" y="330" type="curve"/>
			<point x="480" y="368" type="line"/>
			<point x="205" y="357"/>
			<point x="95" y="274"/>
			<point x="95" y="122" type="curve" smooth="yes"/>
			<point x="95" y="-28"/>
			<point x="197" y="-135"/>
			<point x="588" y="-135" type="curve" smooth="yes"/>
			<point x="979" y="-135"/>
			<point x="996" y="-148"/>
			<point x="996" y="-203" type="curve" smooth="yes"/>
			<point x="996" y="-260"/>
			<point x="927" y="-295"/>
			<point x="689" y="-295" type="curve" smooth="yes"/>
			<point x="462" y="-295"/>
			<point x="414" y="-269"/>
			<point x="414" y="-201" type="curve" smooth="yes"/>
			<point x="414" y="-140"/>
			<point x="472" y="-123"/>
			<point x="631" y="-123" type="curve"/>
			<point x="631" y="-113" type="line"/>
			<point x="511" y="-113" type="line"/>
			<point x="162" y="-114"/>
			<point x="56" y="-161"/>
			<point x="56" y="-279" type="curve" smooth="yes"/>
			<point x="56" y="-399"/>
			<point x="158" y="-465"/>
		</contour>
		<contour>
			<point x="623" y="321" type="curve" smooth="yes"/>
			<point x="943" y="321"/>
			<point x="1153" y="432"/>
			<point x="1153" y="697" type="curve" smooth="yes"/>
			<point x="1153" y="932"/>
			<point x="943" y="1074"/>
			<point x="623" y="1074" type="curve" smooth="yes"/>
			<point x="304" y="1074"/>
			<point x="91" y="960"/>
			<point x="91" y="697" type="curve" smooth="yes"/>
			<point x="91" y="436"/>
			<point x="272" y="321"/>
		</contour>
		<contour>
			<point x="629" y="517" type="curve" smooth="yes"/>
			<point x="550" y="517"/>
			<point x="517" y="543"/>
			<point x="517" y="684" type="curve" smooth="yes"/>
			<point x="517" y="857"/>
			<point x="551" y="897"/>
			<point x="622" y="897" type="curve" smooth="yes"/>
			<point x="701" y="897"/>
			<point x="734" y="871"/>
			<point x="734" y="730" type="curve" smooth="yes"/>
			<point x="734" y="557"/>
			<point x="700" y="517"/>
		</contour>
		<contour>
			<point x="816" y="948" type="line"/>
			<point x="1133" y="866"/>
			<point x="1248" y="846"/>
			<point x="1275" y="846" type="curve" smooth="yes"/>
			<point x="1301" y="846"/>
			<point x="1309" y="856"/>
			<point x="1309" y="971" type="curve" smooth="yes"/>
			<point x="1309" y="1037"/>
			<point x="1305" y="1044"/>
			<point x="1256" y="1044" type="curve" smooth="yes"/>
			<point x="1168" y="1044"/>
			<point x="939" y="1044"/>
			<point x="789" y="1044" type="curve"/>
		</contour>
	</outline>
	<anchor name="top" x="632" y="1044"/>
	<anchor name="bottom" x="662" y="-465"/>
</glyph>
<glyph name="h" format="2">
	<unicode hex="0068"/>
	<advance width="1554"/>
	<outline>
		<contour>
			<point x="850" y="119" type="line"/>
			<point x="850" y="0" type="line"/>
			<point x="1504" y="0" type="line"/>
			<point x="1504" y="119" type="line"/>
			<point x="1381" y="152" type="line"/>
			<point x="1381" y="759" type="line" smooth="yes"/>
			<point x="1381" y="958"/>
			<point x="1265" y="1074"/>
			<point x="1025" y="1074" type="curve" smooth="yes"/>
			<point x="921" y="1074"/>
			<point x="902" y="1067"/>
			<point x="590" y="821" type="curve"/>
			<point x="610" y="712" type="line"/>
			<point x="674" y="724"/>
			<point x="736" y="730"/>
			<point x="785" y="730" type="curve" smooth="yes"/>
			<point x="879" y="730"/>
			<point x="905" y="695"/>
			<point x="905" y="631" type="curve" smooth="yes"/>
			<point x="905" y="138" type="line"/>
		</contour>
		<contour>
			<point x="710" y="0" type="line"/>
			<point x="710" y="119" type="line"/>
			<point x="655" y="138" type="line"/>
			<point x="655" y="1194" type="line"/>
			<point x="681" y="1494" type="line"/>
			<point x="559" y="1494" type="line"/>
			<point x="-5" y="1396" type="line"/>
			<point x="-5" y="1264" type="line"/>
			<point x="73" y="1210.1630434783"/>
			<point x="153" y="1154.9456521739"/>
			<point x="179" y="1137" type="curve"/>
			<point x="179" y="152" type="line"/>
			<point x="57" y="119" type="line"/>
			<point x="57" y="0" type="line"/>
		</contour>
	</outline>
	<anchor name="UCtop" x="806" y="1464"/>
	<anchor name="bottom" x="769" y="0"/>
	<anchor name="center" x="434" y="1207"/>
</glyph>
<glyph name="i" format="2">
	<unicode hex="0069"/>
	<advance width="871"/>
	<outline>
		<contour>
			<point x="447" y="1164" type="curve" smooth="yes"/>
			<point x="642" y="1164"/>
			<point x="727" y="1221"/>
			<point x="727" y="1332" type="curve" smooth="yes"/>
			<point x="727" y="1442"/>
			<point x="642" y="1494"/>
			<point x="447" y="1494" type="curve" smooth="yes"/>
			<point x="252" y="1494"/>
			<point x="167" y="1442"/>
			<point x="167" y="1332" type="curve" smooth="yes"/>
			<point x="167" y="1221"/>
			<point x="252" y="1164"/>
		</contour>
		<contour>
			<point x="716" y="1074" type="line"/>
			<point x="574" y="1074" type="line"/>
			<point x="60" y="948" type="line"/>
			<point x="60" y="844" type="line"/>
			<point x="121" y="784.9805194805"/>
			<point x="192" y="716.2857142857"/>
			<point x="214" y="695" type="curve"/>
			<point x="214" y="152" type="line"/>
			<point x="92" y="119" type="line"/>
			<point x="92" y="0" type="line"/>
			<point x="812" y="0" type="line"/>
			<point x="812" y="119" type="line"/>
			<point x="690" y="152" type="line"/>
			<point x="690" y="704" type="line"/>
		</contour>
	</outline>
	<anchor name="top" x="466" y="1464"/>
	<anchor name="bottom" x="452" y="0"/>
	<anchor name="right" x="632" y="0"/>
</glyph>
<glyph name="k" format="2">
	<unicode hex="006B"/>
	<advance width="1607"/>
	<outline>
		<contour>
			<point x="874" y="498" type="line"/>
			<point x="1352" y="905" type="line"/>
			<point x="1521" y="935" type="line"/>
			<point x="1521" y="1044" type="line"/>
			<point x="905" y="1044" type="line"/>
			<point x="905" y="935" type="line"/>
			<point x="1065" y="907" type="line"/>
			<point x="815" y="681" type="line"/>
			<point x="462" y="681" type="line"/>
			<point x="462" y="449" type="line"/>
			<point x="814" y="449" type="line"/>
			<point x="1024" y="102" type="line"/>
			<point x="1024" y="102" type="line"/>
			<point x="1024" y="0" type="line"/>
			<point x="1606" y="0" type="line"/>
			<point x="1606" y="102" type="line"/>
			<point x="1505" y="159" type="line"/>
			<point x="1093" y="797" type="line"/>
		</contour>
		<contour>
			<point x="655" y="152" type="line"/>
			<point x="655" y="1194" type="line"/>
			<point x="681" y="1494" type="line"/>
			<point x="559" y="1494" type="line"/>
			<point x="-5" y="1396" type="line"/>
			<point x="-5" y="1264" type="line"/>
			<point x="73" y="1210.1630434783"/>
			<point x="153" y="1154.9456521739"/>
			<point x="179" y="1137" type="curve"/>
			<point x="179" y="152" type="line"/>
			<point x="57" y="119" type="line"/>
			<point x="57" y="0" type="line"/>
			<point x="777" y="0" type="line"/>
			<point x="777" y="119" type="line"/>
		</contour>
	</outline>
	<anchor name="UCtop" x="811" y="1464"/>
	<anchor name="bottom" x="871" y="0"/>
</glyph>
<glyph name="l" format="2">
	<unicode hex="006C"/>
	<advance width="834"/>
	<outline>
		<contour>
			<point x="655" y="152" type="line"/>
			<point x="655" y="1194" type="line"/>
			<point x="681" y="1494" type="line"/>
			<point x="559" y="1494" type="line"/>
			<point x="-5" y="1396" type="line"/>
			<point x="-5" y="1264" type="line"/>
			<point x="73" y="1210.1630434783"/>
			<point x="153" y="1154.9456521739"/>
			<point x="179" y="1137" type="curve"/>
			<point x="179" y="152" type="line"/>
			<point x="57" y="119" type="line"/>
			<point x="57" y="0" type="line"/>
			<point x="777" y="0" type="line"/>
			<point x="777" y="119" type="line"/>
		</contour>
	</outline>
	<anchor name="UCtop" x="406" y="1464"/>
	<anchor name="right" x="655" y="1464"/>
	<anchor name="bottom" x="417" y="0"/>
	<anchor name="mid" x="947" y="512"/>
</glyph>
<glyph name="m" format="2">
	<unicode hex="006D"/>
	<advance width="2256"/>
	<outline>
		<contour>
			<point x="691" y="824" type="line"/>
			<point x="567" y="1074" type="line"/>
			<point x="475" y="1074" type="line"/>
			<point x="61" y="948" type="line"/>
			<point x="61" y="844" type="line"/>
			<point x="152" y="755.9545454545"/>
			<point x="193" y="716.2857142857"/>
			<point x="215" y="695" type="curve"/>
			<point x="215" y="152" type="line"/>
			<point x="93" y="119" type="line"/>
			<point x="93" y="0" type="line"/>
			<point x="745" y="0" type="line"/>
			<point x="745" y="119" type="line"/>
			<point x="691" y="138" type="line"/>
		</contour>
		<contour>
			<point x="1387" y="771" type="line" smooth="yes"/>
			<point x="1387" y="962"/>
			<point x="1276" y="1074"/>
			<point x="1045" y="1074" type="curve" smooth="yes"/>
			<point x="945" y="1074"/>
			<point x="926" y="1067"/>
			<point x="626" y="831" type="curve"/>
			<point x="645" y="714" type="line"/>
			<point x="703" y="724"/>
			<point x="758" y="730"/>
			<point x="803" y="730" type="curve" smooth="yes"/>
			<point x="888" y="730"/>
			<point x="911" y="698"/>
			<point x="911" y="641" type="curve" smooth="yes"/>
			<point x="911" y="138" type="line"/>
			<point x="857" y="119" type="line"/>
			<point x="857" y="0" type="line"/>
			<point x="1441" y="0" type="line"/>
			<point x="1441" y="119" type="line"/>
			<point x="1387" y="138" type="line"/>
		</contour>
		<contour>
			<point x="2083" y="770" type="line" smooth="yes"/>
			<point x="2083" y="962"/>
			<point x="1971" y="1074"/>
			<point x="1740" y="1074" type="curve" smooth="yes"/>
			<point x="1639" y="1074"/>
			<point x="1621" y="1067"/>
			<point x="1320" y="830" type="curve"/>
			<point x="1339" y="714" type="line"/>
			<point x="1397" y="724"/>
			<point x="1454" y="730"/>
			<point x="1498" y="730" type="curve" smooth="yes"/>
			<point x="1583" y="730"/>
			<point x="1607" y="699"/>
			<point x="1607" y="641" type="curve" smooth="yes"/>
			<point x="1607" y="138" type="line"/>
			<point x="1553" y="119" type="line"/>
			<point x="1553" y="0" type="line"/>
			<point x="2205" y="0" type="line"/>
			<point x="2205" y="119" type="line"/>
			<point x="2083" y="152" type="line"/>
		</contour>
	</outline>
	<anchor name="top" x="1149" y="1044"/>
	<anchor name="bottom" x="1149" y="0"/>
</glyph>
<glyph name="n" format="2">
  <advance width="1590.0"/>
  <unicode hex="006E"/>
  <anchor x="820.0" y="1044.0" name="top"/>
  <anchor x="800.0" y="0" name="bottom"/>
  <outline>
    <contour>
      <point x="691.0" y="824.0" type="line"/>
      <point x="567.0" y="1074.0" type="line"/>
      <point x="475.0" y="1074.0" type="line"/>
      <point x="61.0" y="948.0" type="line"/>
      <point x="61.0" y="844.0" type="line"/>
      <point x="152.0" y="755.9545454545455"/>
      <point x="193.0" y="716.2857142857143"/>
      <point x="215.0" y="695.0" type="curve"/>
      <point x="215.0" y="152.0" type="line"/>
      <point x="93.0" y="119.0" type="line"/>
      <point x="93.0" y="0.0" type="line"/>
      <point x="745.0" y="0.0" type="line"/>
      <point x="745.0" y="119.0" type="line"/>
      <point x="691.0" y="138.0" type="line"/>
    </contour>
    <contour>
      <point x="886.0" y="119.0" type="line"/>
      <point x="886.0" y="0.0" type="line"/>
      <point x="1540.0" y="0.0" type="line"/>
      <point x="1540.0" y="119.0" type="line"/>
      <point x="1417.0" y="152.0" type="line"/>
      <point x="1417.0" y="759.0" type="line" smooth="yes"/>
      <point x="1417.0" y="958.0"/>
      <point x="1301.0" y="1074.0"/>
      <point x="1061.0" y="1074.0" type="curve" smooth="yes"/>
      <point x="957.0" y="1074.0"/>
      <point x="938.0" y="1067.0"/>
      <point x="626.0" y="821.0" type="curve"/>
      <point x="646.0" y="712.0" type="line"/>
      <point x="710.0" y="724.0"/>
      <point x="772.0" y="730.0"/>
      <point x="821.0" y="730.0" type="curve" smooth="yes"/>
      <point x="915.0" y="730.0"/>
      <point x="941.0" y="695.0"/>
      <point x="941.0" y="631.0" type="curve" smooth="yes"/>
      <point x="941.0" y="138.0" type="line"/>
    </contour>
  </outline>
</glyph>
<glyph name="o" format="2">
	<unicode hex="006F"/>
	<advance width="1374"/>
	<outline>
		<contour>
			<point x="682" y="240" type="curve" smooth="yes"/>
			<point x="576" y="240"/>
			<point x="538" y="317"/>
			<point x="538" y="540" type="curve" smooth="yes"/>
			<point x="538" y="736"/>
			<point x="578" y="804"/>
			<point x="692" y="804" type="curve" smooth="yes"/>
			<point x="798" y="804"/>
			<point x="836" y="727"/>
			<point x="836" y="504" type="curve" smooth="yes"/>
			<point x="836" y="308"/>
			<point x="796" y="240"/>
		</contour>
		<contour>
			<point x="667" y="-30" type="curve" smooth="yes"/>
			<point x="1069" y="-30"/>
			<point x="1298" y="173"/>
			<point x="1298" y="529" type="curve" smooth="yes"/>
			<point x="1298" y="876"/>
			<point x="1083" y="1074"/>
			<point x="707" y="1074" type="curve" smooth="yes"/>
			<point x="305" y="1074"/>
			<point x="76" y="871"/>
			<point x="76" y="515" type="curve" smooth="yes"/>
			<point x="76" y="168"/>
			<point x="291" y="-30"/>
		</contour>
	</outline>
	<anchor name="top" x="687" y="1044"/>
	<anchor name="bottom" x="687" y="0"/>
	<anchor name="horn" x="918" y="1044"/>
	<anchor name="right" x="908" y="0"/>
</glyph>
<glyph name="p" format="2">
	<unicode hex="0070"/>
	<advance width="1508"/>
	<outline>
		<contour>
			<point x="966" y="528" type="curve" smooth="yes"/>
			<point x="966" y="300"/>
			<point x="906" y="240"/>
			<point x="810" y="240" type="curve" smooth="yes"/>
			<point x="709" y="240"/>
			<point x="673" y="281"/>
			<point x="673" y="454" type="curve" smooth="yes"/>
			<point x="673" y="864" type="line"/>
			<point x="549" y="1074" type="line"/>
			<point x="457" y="1074" type="line"/>
			<point x="43" y="948" type="line"/>
			<point x="43" y="844" type="line"/>
			<point x="117" y="772.4025974026"/>
			<point x="171" y="720.1558441558"/>
			<point x="197" y="695" type="curve"/>
			<point x="197" y="-283" type="line"/>
			<point x="75" y="-316" type="line"/>
			<point x="75" y="-435" type="line"/>
			<point x="815" y="-435" type="line"/>
			<point x="815" y="-316" type="line"/>
			<point x="673" y="-283" type="line"/>
			<point x="673" y="282" type="line"/>
			<point x="658" y="282" type="line"/>
			<point x="658" y="100"/>
			<point x="763" y="-30"/>
			<point x="972" y="-30" type="curve" smooth="yes"/>
			<point x="1215" y="-30"/>
			<point x="1428" y="170"/>
			<point x="1428" y="562" type="curve" smooth="yes"/>
			<point x="1428" y="878"/>
			<point x="1282" y="1074"/>
			<point x="988" y="1074" type="curve" smooth="yes"/>
			<point x="909" y="1074"/>
			<point x="870" y="1061"/>
			<point x="603" y="865" type="curve"/>
			<point x="603" y="793" type="line"/>
			<point x="659" y="798"/>
			<point x="725" y="801"/>
			<point x="764" y="801" type="curve" smooth="yes"/>
			<point x="912" y="801"/>
			<point x="966" y="734"/>
		</contour>
	</outline>
	<anchor name="top" x="766" y="1044"/>
	<anchor name="bottom" x="435" y="-435"/>
</glyph>
<glyph name="q" format="2">
	<unicode hex="0071"/>
	<advance width="1463"/>
	<outline>
		<contour>
			<point x="540" y="528" type="curve" smooth="yes"/>
			<point x="540" y="762"/>
			<point x="607" y="826"/>
			<point x="724" y="826" type="curve" smooth="yes"/>
			<point x="809" y="826"/>
			<point x="833" y="778"/>
			<point x="833" y="640" type="curve" smooth="yes"/>
			<point x="833" y="-283" type="line"/>
			<point x="691" y="-316" type="line"/>
			<point x="691" y="-435" type="line"/>
			<point x="1431" y="-435" type="line"/>
			<point x="1431" y="-316" type="line"/>
			<point x="1309" y="-283" type="line"/>
			<point x="1309" y="823" type="line"/>
			<point x="1366" y="1038" type="line"/>
			<point x="1314" y="1083" type="line"/>
			<point x="978" y="959" type="line"/>
			<point x="1099" y="946" type="line"/>
			<point x="972" y="1046"/>
			<point x="877" y="1074"/>
			<point x="715" y="1074" type="curve" smooth="yes"/>
			<point x="370" y="1074"/>
			<point x="78" y="858"/>
			<point x="78" y="482" type="curve" smooth="yes"/>
			<point x="78" y="165"/>
			<point x="224" y="-30"/>
			<point x="518" y="-30" type="curve" smooth="yes"/>
			<point x="597" y="-30"/>
			<point x="636" y="-17"/>
			<point x="903" y="179" type="curve"/>
			<point x="903" y="251" type="line"/>
			<point x="847" y="246"/>
			<point x="781" y="243"/>
			<point x="742" y="243" type="curve" smooth="yes"/>
			<point x="594" y="243"/>
			<point x="540" y="312"/>
		</contour>
	</outline>
	<anchor name="top" x="764" y="1044"/>
	<anchor name="bottom" x="1071" y="-435"/>
</glyph>
<glyph name="r" format="2">
	<unicode hex="0072"/>
	<advance width="1240"/>
	<outline>
		<contour>
			<point x="1027" y="1069" type="curve" smooth="yes"/>
			<point x="883" y="1069"/>
			<point x="827" y="1034"/>
			<point x="554" y="726" type="curve"/>
			<point x="587" y="656" type="line"/>
			<point x="636" y="686"/>
			<point x="648" y="689"/>
			<point x="718" y="689" type="curve" smooth="yes"/>
			<point x="864" y="689"/>
			<point x="980" y="689"/>
			<point x="1126" y="689" type="curve" smooth="yes"/>
			<point x="1158" y="689"/>
			<point x="1206" y="778"/>
			<point x="1206" y="890" type="curve" smooth="yes"/>
			<point x="1206" y="996"/>
			<point x="1154" y="1069"/>
		</contour>
		<contour>
			<point x="691" y="824" type="line"/>
			<point x="567" y="1074" type="line"/>
			<point x="475" y="1074" type="line"/>
			<point x="61" y="948" type="line"/>
			<point x="61" y="844" type="line"/>
			<point x="135" y="772.4025974026"/>
			<point x="189" y="720.1558441558"/>
			<point x="215" y="695" type="curve"/>
			<point x="215" y="152" type="line"/>
			<point x="93" y="119" type="line"/>
			<point x="93" y="0" type="line"/>
			<point x="827" y="0" type="line"/>
			<point x="827" y="119" type="line"/>
			<point x="691" y="157" type="line"/>
		</contour>
	</outline>
	<anchor name="top" x="634" y="1044"/>
	<anchor name="bottom" x="453" y="0"/>
</glyph>
<glyph name="s" format="2">
	<unicode hex="0073"/>
	<advance width="1221"/>
	<outline>
		<contour>
			<point x="675" y="1074" type="curve" smooth="yes"/>
			<point x="282" y="1074"/>
			<point x="89" y="950"/>
			<point x="89" y="706" type="curve" smooth="yes"/>
			<point x="89" y="559"/>
			<point x="141" y="455"/>
			<point x="392" y="409" type="curve" smooth="yes"/>
			<point x="643" y="363"/>
			<point x="696" y="350"/>
			<point x="696" y="267" type="curve" smooth="yes"/>
			<point x="696" y="201"/>
			<point x="652" y="167"/>
			<point x="486" y="167" type="curve" smooth="yes"/>
			<point x="402" y="167"/>
			<point x="284" y="177"/>
			<point x="230" y="188" type="curve"/>
			<point x="407" y="55" type="line"/>
			<point x="224" y="324" type="line"/>
			<point x="86" y="324" type="line"/>
			<point x="136" y="0" type="line"/>
			<point x="230" y="-16"/>
			<point x="394" y="-30"/>
			<point x="560" y="-30" type="curve" smooth="yes"/>
			<point x="983" y="-30"/>
			<point x="1150" y="116"/>
			<point x="1150" y="343" type="curve" smooth="yes"/>
			<point x="1150" y="545"/>
			<point x="1049" y="637"/>
			<point x="793" y="676" type="curve" smooth="yes"/>
			<point x="537" y="715"/>
			<point x="514" y="741"/>
			<point x="514" y="802" type="curve" smooth="yes"/>
			<point x="514" y="860"/>
			<point x="559" y="887"/>
			<point x="684" y="887" type="curve" smooth="yes"/>
			<point x="731" y="887"/>
			<point x="822" y="876"/>
			<point x="902" y="856" type="curve"/>
			<point x="754" y="997" type="line"/>
			<point x="913" y="759" type="line"/>
			<point x="1066" y="759" type="line"/>
			<point x="1038" y="1044" type="line"/>
			<point x="935" y="1066"/>
			<point x="825" y="1074"/>
		</contour>
	</outline>
	<anchor name="top" x="598" y="1044"/>
	<anchor name="bottom" x="618" y="0"/>
</glyph>
<glyph name="t" format="2">
	<unicode hex="0074"/>
	<advance width="1140"/>
	<outline>
		<contour>
			<point x="685" y="397" type="curve" smooth="yes"/>
			<point x="685" y="1023" type="line"/>
			<point x="685" y="1342" type="line"/>
			<point x="565" y="1342" type="line"/>
			<point x="383.0936454849" y="1244"/>
			<point x="50.8361204013" y="1065"/>
			<point x="10" y="1043" type="curve"/>
			<point x="10" y="941" type="line"/>
			<point x="211" y="765" type="line"/>
			<point x="211" y="309" type="line" smooth="yes"/>
			<point x="211" y="85"/>
			<point x="341" y="-30"/>
			<point x="597" y="-30" type="curve" smooth="yes"/>
			<point x="725" y="-30"/>
			<point x="819" y="-2"/>
			<point x="1109" y="115" type="curve"/>
			<point x="1109" y="281" type="line"/>
			<point x="1015" y="264"/>
			<point x="941" y="258"/>
			<point x="876" y="258" type="curve" smooth="yes"/>
			<point x="725" y="258"/>
			<point x="685" y="292"/>
		</contour>
		<contour>
			<point x="489" y="790" type="line"/>
			<point x="1076" y="790" type="line"/>
			<point x="1076" y="1044" type="line"/>
			<point x="495" y="1044" type="line"/>
		</contour>
	</outline>
	<anchor name="right" x="669" y="1535"/>
	<anchor name="bottom" x="670" y="0"/>
</glyph>
<glyph name="u" format="2">
	<unicode hex="0075"/>
	<advance width="1554"/>
	<outline>
		<contour>
			<point x="659" y="403" type="curve" smooth="yes"/>
			<point x="659" y="886" type="line"/>
			<point x="680" y="1054" type="line"/>
			<point x="30" y="1024" type="line"/>
			<point x="30" y="922" type="line"/>
			<point x="183" y="812" type="line"/>
			<point x="183" y="272" type="line" smooth="yes"/>
			<point x="183" y="81"/>
			<point x="295" y="-30"/>
			<point x="525" y="-30" type="curve" smooth="yes"/>
			<point x="624" y="-30"/>
			<point x="645" y="-24"/>
			<point x="943" y="213" type="curve"/>
			<point x="924" y="331" type="line"/>
			<point x="859" y="319"/>
			<point x="803" y="314"/>
			<point x="767" y="314" type="curve" smooth="yes"/>
			<point x="687" y="314"/>
			<point x="659" y="339"/>
		</contour>
		<contour>
			<point x="982" y="-30" type="line"/>
			<point x="1045" y="-30" type="line"/>
			<point x="1521" y="99" type="line"/>
			<point x="1521" y="189" type="line"/>
			<point x="1479" y="221"/>
			<point x="1377" y="298.7142857143"/>
			<point x="1353" y="317" type="curve"/>
			<point x="1353" y="872" type="line"/>
			<point x="1353" y="1044" type="line"/>
			<point x="877" y="1044" type="line"/>
			<point x="877" y="942" type="line"/>
			<point x="877" y="863" type="line"/>
			<point x="877" y="197" type="line"/>
		</contour>
	</outline>
	<anchor name="top" x="765" y="1044"/>
	<anchor name="right" x="1231" y="0"/>
	<anchor name="bottom" x="775" y="0"/>
	<anchor name="horn" x="1251" y="1044"/>
</glyph>
<glyph name="v" format="2">
	<unicode hex="0076"/>
	<advance width="1463"/>
	<outline>
		<contour>
			<point x="1341" y="893" type="line"/>
			<point x="1429" y="921" type="line"/>
			<point x="1429" y="1044" type="line"/>
			<point x="952" y="1044" type="line"/>
			<point x="952" y="921" type="line"/>
			<point x="1041" y="891" type="line"/>
			<point x="788" y="131" type="line"/>
			<point x="898" y="131" type="line"/>
			<point x="619" y="899" type="line"/>
			<point x="719" y="921" type="line"/>
			<point x="719" y="1044" type="line"/>
			<point x="10" y="1044" type="line"/>
			<point x="10" y="924" type="line"/>
			<point x="123" y="880" type="line"/>
			<point x="475" y="0" type="line"/>
			<point x="999" y="0" type="line"/>
		</contour>
	</outline>
	<anchor name="top" x="790" y="1044"/>
	<anchor name="bottom" x="740" y="0"/>
</glyph>
<glyph name="w" format="2">
	<unicode hex="0077"/>
	<advance width="2043"/>
	<outline>
		<contour>
			<point x="1631" y="891" type="line"/>
			<point x="1515" y="163" type="line"/>
			<point x="1631" y="158" type="line"/>
			<point x="1339" y="1044" type="line"/>
			<point x="904" y="1044" type="line"/>
			<point x="641" y="214" type="line"/>
			<point x="738" y="195" type="line"/>
			<point x="594" y="899" type="line"/>
			<point x="674" y="921" type="line"/>
			<point x="674" y="1044" type="line"/>
			<point x="13" y="1044" type="line"/>
			<point x="13" y="924" type="line"/>
			<point x="126" y="880" type="line"/>
			<point x="337" y="0" type="line"/>
			<point x="842" y="0" type="line"/>
			<point x="1081" y="736" type="line"/>
			<point x="989" y="731" type="line"/>
			<point x="1227" y="0" type="line"/>
			<point x="1730" y="0" type="line"/>
			<point x="1931" y="893" type="line"/>
			<point x="2009" y="921" type="line"/>
			<point x="2009" y="1044" type="line"/>
			<point x="1562" y="1044" type="line"/>
			<point x="1562" y="921" type="line"/>
		</contour>
	</outline>
	<anchor name="top" x="1061" y="1044"/>
	<anchor name="bottom" x="1011" y="0"/>
</glyph>
<glyph name="y" format="2">
	<unicode hex="0079"/>
	<advance width="1460"/>
	<outline>
		<contour>
			<point x="980" y="193" type="line"/>
			<point x="618" y="899" type="line"/>
			<point x="718" y="921" type="line"/>
			<point x="718" y="1044" type="line"/>
			<point x="-1" y="1044" type="line"/>
			<point x="-1" y="924" type="line"/>
			<point x="122" y="880" type="line"/>
			<point x="682" y="-103" type="line"/>
		</contour>
		<contour>
			<point x="389" y="-465" type="curve" smooth="yes"/>
			<point x="628" y="-465"/>
			<point x="802" y="-349"/>
			<point x="915" y="-88" type="curve" smooth="yes"/>
			<point x="1340" y="893" type="line"/>
			<point x="1438" y="921" type="line"/>
			<point x="1438" y="1044" type="line"/>
			<point x="956" y="1044" type="line"/>
			<point x="956" y="921" type="line"/>
			<point x="1045" y="891" type="line"/>
			<point x="747" y="131" type="line"/>
			<point x="669" y="24" type="line"/>
			<point x="636" y="-31" type="line" smooth="yes"/>
			<point x="610" y="-74"/>
			<point x="571" y="-115"/>
			<point x="444" y="-115" type="curve" smooth="yes"/>
			<point x="329" y="-115"/>
			<point x="237" y="-95"/>
			<point x="191" y="-95" type="curve" smooth="yes"/>
			<point x="166" y="-95"/>
			<point x="110" y="-181"/>
			<point x="110" y="-268" type="curve" smooth="yes"/>
			<point x="110" y="-396"/>
			<point x="196" y="-465"/>
		</contour>
	</outline>
	<anchor name="top" x="789" y="1044"/>
	<anchor name="bottom" x="1148" y="-81"/>
</glyph>
<glyph name="z" format="2">
  <advance width="1281.0"/>
  <unicode hex="007A"/>
  <anchor x="661.0" y="1044.0" name="top"/>
  <anchor x="621.0" y="0" name="bottom"/>
  <outline>
    <contour>
      <point x="114.0" y="0.0" type="line"/>
      <point x="1130.0" y="0.0" type="line"/>
      <point x="1235.0" y="467.0" type="line"/>
      <point x="1097.0" y="467.0" type="line"/>
      <point x="829.0" y="85.0" type="line"/>
      <point x="1019.0" y="241.0" type="line"/>
      <point x="317.0" y="241.0" type="line"/>
      <point x="509.0" y="95.0" type="line"/>
      <point x="1164.0" y="841.0" type="line"/>
      <point x="1164.0" y="1044.0" type="line"/>
      <point x="296.0" y="1044.0" type="line"/>
      <point x="218.0" y="1074.0" type="line"/>
      <point x="124.0" y="1074.0" type="line"/>
      <point x="67.0" y="632.0" type="line"/>
      <point x="219.0" y="632.0" type="line"/>
      <point x="401.0" y="1010.0" type="line"/>
      <point x="162.0" y="805.0" type="line"/>
      <point x="944.0" y="805.0" type="line"/>
      <point x="744.0" y="945.0" type="line"/>
      <point x="114.0" y="207.0" type="line"/>
    </contour>
  </outline>
</glyph>
<glyph name="braceleft" format="2">
	<unicode hex="007B"/>
	<advance width="873"/>
	<outline>
		<contour>
			<point x="57" y="526" type="line"/>
			<point x="132" y="523" type="line" smooth="yes"/>
			<point x="230" y="519"/>
			<point x="264" y="489"/>
			<point x="264" y="408" type="curve" smooth="yes"/>
			<point x="264" y="308"/>
			<point x="207" y="189"/>
			<point x="207" y="47" type="curve" smooth="yes"/>
			<point x="207" y="-92"/>
			<point x="324" y="-217"/>
			<point x="565" y="-233" type="curve" smooth="yes"/>
			<point x="787" y="-248" type="line"/>
			<point x="807" y="-39" type="line"/>
			<point x="712" y="-26" type="line" smooth="yes"/>
			<point x="630" y="-15"/>
			<point x="607" y="22"/>
			<point x="607" y="104" type="curve" smooth="yes"/>
			<point x="607" y="200"/>
			<point x="614" y="292"/>
			<point x="614" y="361" type="curve" smooth="yes"/>
			<point x="614" y="516"/>
			<point x="523" y="609"/>
			<point x="285" y="663" type="curve"/>
			<point x="285" y="583" type="line"/>
			<point x="523" y="637"/>
			<point x="614" y="730"/>
			<point x="614" y="885" type="curve" smooth="yes"/>
			<point x="614" y="954"/>
			<point x="607" y="1046"/>
			<point x="607" y="1142" type="curve" smooth="yes"/>
			<point x="607" y="1224"/>
			<point x="630" y="1261"/>
			<point x="712" y="1272" type="curve" smooth="yes"/>
			<point x="807" y="1285" type="line"/>
			<point x="787" y="1494" type="line"/>
			<point x="565" y="1479" type="line" smooth="yes"/>
			<point x="324" y="1463"/>
			<point x="207" y="1338"/>
			<point x="207" y="1199" type="curve" smooth="yes"/>
			<point x="207" y="1057"/>
			<point x="264" y="938"/>
			<point x="264" y="838" type="curve" smooth="yes"/>
			<point x="264" y="757"/>
			<point x="230" y="727"/>
			<point x="132" y="723" type="curve" smooth="yes"/>
			<point x="57" y="720" type="line"/>
		</contour>
	</outline>
</glyph>
<glyph name="bar" format="2">
	<unicode hex="007C"/>
	<advance width="670"/>
	<outline>
		<contour>
			<point x="185" y="-465" type="line"/>
			<point x="485" y="-465" type="line"/>
			<point x="485" y="1535" type="line"/>
			<point x="185" y="1535" type="line"/>
		</contour>
	</outline>
</glyph>
<glyph name="braceright" format="2">
	<unicode hex="007D"/>
	<advance width="873"/>
	<outline>
		<contour>
			<point x="816" y="720" type="line"/>
			<point x="741" y="723" type="line" smooth="yes"/>
			<point x="643" y="727"/>
			<point x="609" y="757"/>
			<point x="609" y="838" type="curve" smooth="yes"/>
			<point x="609" y="938"/>
			<point x="666" y="1057"/>
			<point x="666" y="1199" type="curve" smooth="yes"/>
			<point x="666" y="1338"/>
			<point x="549" y="1463"/>
			<point x="308" y="1479" type="curve" smooth="yes"/>
			<point x="86" y="1494" type="line"/>
			<point x="66" y="1285" type="line"/>
			<point x="161" y="1272" type="line" smooth="yes"/>
			<point x="243" y="1261"/>
			<point x="266" y="1224"/>
			<point x="266" y="1142" type="curve" smooth="yes"/>
			<point x="266" y="1046"/>
			<point x="259" y="954"/>
			<point x="259" y="885" type="curve" smooth="yes"/>
			<point x="259" y="730"/>
			<point x="350" y="637"/>
			<point x="588" y="583" type="curve"/>
			<point x="588" y="663" type="line"/>
			<point x="350" y="609"/>
			<point x="259" y="516"/>
			<point x="259" y="361" type="curve" smooth="yes"/>
			<point x="259" y="292"/>
			<point x="266" y="200"/>
			<point x="266" y="104" type="curve" smooth="yes"/>
			<point x="266" y="22"/>
			<point x="243" y="-15"/>
			<point x="161" y="-26" type="curve" smooth="yes"/>
			<point x="66" y="-39" type="line"/>
			<point x="86" y="-248" type="line"/>
			<point x="308" y="-233" type="line" smooth="yes"/>
			<point x="549" y="-217"/>
			<point x="666" y="-92"/>
			<point x="666" y="47" type="curve" smooth="yes"/>
			<point x="666" y="189"/>
			<point x="609" y="308"/>
			<point x="609" y="408" type="curve" smooth="yes"/>
			<point x="609" y="489"/>
			<point x="643" y="519"/>
			<point x="741" y="523" type="curve" smooth="yes"/>
			<point x="816" y="526" type="line"/>
		</contour>
	</outline>
</glyph>
<glyph name="asciitilde" format="2">
	<unicode hex="007E"/>
	<advance width="1140"/>
	<outline>
		<contour>
			<point x="111" y="330" type="curve"/>
			<point x="376" y="330" type="line"/>
			<point x="378" y="419"/>
			<point x="399" y="455"/>
			<point x="451" y="455" type="curve" smooth="yes"/>
			<point x="524" y="455"/>
			<point x="584" y="317"/>
			<point x="772" y="317" type="curve" smooth="yes"/>
			<point x="951" y="317"/>
			<point x="1034" y="444"/>
			<point x="1031" y="713" type="curve"/>
			<point x="766" y="713" type="line"/>
			<point x="764" y="623"/>
			<point x="743" y="588"/>
			<point x="691" y="588" type="curve" smooth="yes"/>
			<point x="618" y="588"/>
			<point x="558" y="726"/>
			<point x="370" y="726" type="curve" smooth="yes"/>
			<point x="191" y="726"/>
			<point x="108" y="599"/>
		</contour>
	</outline>
</glyph>
<glyph name="exclamdown" format="2">
	<unicode hex="00A1"/>
	<advance width="748"/>
	<outline>
		<contour>
			<point x="86" y="-281" type="line" smooth="yes"/>
			<point x="82" y="-356"/>
			<point x="112" y="-398"/>
			<point x="374" y="-398" type="curve" smooth="yes"/>
			<point x="634" y="-398"/>
			<point x="666" y="-356"/>
			<point x="662" y="-281" type="curve" smooth="yes"/>
			<point x="657" y="-195" type="line" smooth="yes"/>
			<point x="650" y="-67"/>
			<point x="551" y="147"/>
			<point x="518" y="479" type="curve"/>
			<point x="230" y="479" type="line"/>
			<point x="197" y="147"/>
			<point x="98" y="-67"/>
			<point x="91" y="-195" type="curve" smooth="yes"/>
		</contour>
		<contour>
			<point x="374" y="626" type="curve" smooth="yes"/>
			<point x="539" y="626"/>
			<point x="631" y="703"/>
			<point x="631" y="841" type="curve" smooth="yes"/>
			<point x="631" y="984"/>
			<point x="539" y="1064"/>
			<point x="374" y="1064" type="curve" smooth="yes"/>
			<point x="209" y="1064"/>
			<point x="117" y="984"/>
			<point x="117" y="841" type="curve" smooth="yes"/>
			<point x="117" y="703"/>
			<point x="209" y="626"/>
		</contour>
	</outline>
</glyph>
<glyph name="currency" format="2">
	<unicode hex="00A4"/>
	<advance width="1208"/>
	<outline>
		<contour>
			<point x="296" y="1005" type="line"/>
			<point x="120" y="829" type="line"/>
			<point x="306" y="643" type="line"/>
			<point x="482" y="819" type="line"/>
		</contour>
		<contour>
			<point x="120" y="213" type="line"/>
			<point x="296" y="37" type="line"/>
			<point x="498" y="239" type="line"/>
			<point x="322" y="415" type="line"/>
		</contour>
		<contour>
			<point x="604" y="922" type="curve" smooth="yes"/>
			<point x="356" y="922"/>
			<point x="196" y="766"/>
			<point x="196" y="522" type="curve" smooth="yes"/>
			<point x="196" y="278"/>
			<point x="356" y="122"/>
			<point x="604" y="122" type="curve" smooth="yes"/>
			<point x="852" y="122"/>
			<point x="1012" y="278"/>
			<point x="1012" y="522" type="curve" smooth="yes"/>
			<point x="1012" y="766"/>
			<point x="852" y="922"/>
		</contour>
		<contour>
			<point x="604" y="333" type="curve" smooth="yes"/>
			<point x="489" y="333"/>
			<point x="415" y="408"/>
			<point x="415" y="522" type="curve" smooth="yes"/>
			<point x="415" y="636"/>
			<point x="489" y="711"/>
			<point x="604" y="711" type="curve" smooth="yes"/>
			<point x="719" y="711"/>
			<point x="793" y="636"/>
			<point x="793" y="522" type="curve" smooth="yes"/>
			<point x="793" y="408"/>
			<point x="719" y="333"/>
		</contour>
		<contour>
			<point x="1088" y="829" type="line"/>
			<point x="912" y="1005" type="line"/>
			<point x="719" y="812" type="line"/>
			<point x="895" y="636" type="line"/>
		</contour>
		<contour>
			<point x="1088" y="213" type="line"/>
			<point x="902" y="399" type="line"/>
			<point x="726" y="223" type="line"/>
			<point x="912" y="37" type="line"/>
		</contour>
	</outline>
</glyph>
<glyph name="brokenbar" format="2">
	<unicode hex="00A6"/>
	<advance width="670"/>
	<outline>
		<contour>
			<point x="485" y="725" type="line"/>
			<point x="485" y="1535" type="line"/>
			<point x="185" y="1535" type="line"/>
			<point x="185" y="725" type="line"/>
		</contour>
		<contour>
			<point x="185" y="-465" type="line"/>
			<point x="485" y="-465" type="line"/>
			<point x="485" y="345" type="line"/>
			<point x="185" y="345" type="line"/>
		</contour>
	</outline>
</glyph>
<glyph name="section" format="2">
	<unicode hex="00A7"/>
	<advance width="1558"/>
	<outline>
		<contour>
			<point x="701" y="-247" type="curve" smooth="yes"/>
			<point x="1220" y="-247"/>
			<point x="1379" y="-107"/>
			<point x="1379" y="123" type="curve" smooth="yes"/>
			<point x="1379" y="674"/>
			<point x="527" y="383"/>
			<point x="527" y="613" type="curve" smooth="yes"/>
			<point x="527" y="698"/>
			<point x="613" y="721"/>
			<point x="763" y="730" type="curve"/>
			<point x="531" y="769" type="line"/>
			<point x="219" y="768"/>
			<point x="90" y="674"/>
			<point x="90" y="449" type="curve" smooth="yes"/>
			<point x="90" y="24"/>
			<point x="929" y="234"/>
			<point x="929" y="40" type="curve" smooth="yes"/>
			<point x="929" y="-7"/>
			<point x="889" y="-32"/>
			<point x="740" y="-32" type="curve" smooth="yes"/>
			<point x="474" y="-32"/>
			<point x="387" y="106"/>
			<point x="358" y="106" type="curve" smooth="yes"/>
			<point x="263" y="106"/>
			<point x="198" y="43"/>
			<point x="198" y="-48" type="curve" smooth="yes"/>
			<point x="198" y="-173"/>
			<point x="289" y="-247"/>
		</contour>
		<contour>
			<point x="1030" y="584" type="curve" smooth="yes"/>
			<point x="1030" y="499"/>
			<point x="944" y="476"/>
			<point x="794" y="467" type="curve"/>
			<point x="1026" y="428" type="line"/>
			<point x="1338" y="429"/>
			<point x="1467" y="523"/>
			<point x="1467" y="748" type="curve" smooth="yes"/>
			<point x="1467" y="1173"/>
			<point x="628" y="963"/>
			<point x="628" y="1157" type="curve" smooth="yes"/>
			<point x="628" y="1204"/>
			<point x="668" y="1229"/>
			<point x="817" y="1229" type="curve" smooth="yes"/>
			<point x="1083" y="1229"/>
			<point x="1170" y="1091"/>
			<point x="1199" y="1091" type="curve" smooth="yes"/>
			<point x="1294" y="1091"/>
			<point x="1359" y="1154"/>
			<point x="1359" y="1245" type="curve" smooth="yes"/>
			<point x="1359" y="1370"/>
			<point x="1268" y="1444"/>
			<point x="856" y="1444" type="curve" smooth="yes"/>
			<point x="337" y="1444"/>
			<point x="178" y="1304"/>
			<point x="178" y="1074" type="curve" smooth="yes"/>
			<point x="178" y="523"/>
			<point x="1030" y="814"/>
		</contour>
	</outline>
</glyph>
<glyph name="copyright" format="2">
  <advance width="1724"/>
  <unicode hex="00A9"/>
  <outline>
    <contour>
      <point x="862.0" y="1444.0" type="curve" smooth="yes"/>
      <point x="383.0" y="1444.0"/>
      <point x="117.0" y="1181.0"/>
      <point x="117.0" y="707.0" type="curve" smooth="yes"/>
      <point x="117.0" y="233.0"/>
      <point x="383.0" y="-30.0"/>
      <point x="862.0" y="-30.0" type="curve" smooth="yes"/>
      <point x="1341.0" y="-30.0"/>
      <point x="1607.0" y="233.0"/>
      <point x="1607.0" y="707.0" type="curve" smooth="yes"/>
      <point x="1607.0" y="1181.0"/>
      <point x="1341.0" y="1444.0"/>
    </contour>
    <contour>
      <point x="862.0" y="1327.0" type="curve" smooth="yes"/>
      <point x="1253.0" y="1327.0"/>
      <point x="1471.0" y="1106.0"/>
      <point x="1471.0" y="707.0" type="curve" smooth="yes"/>
      <point x="1471.0" y="308.0"/>
      <point x="1253.0" y="87.0"/>
      <point x="862.0" y="87.0" type="curve" smooth="yes"/>
      <point x="471.0" y="87.0"/>
      <point x="253.0" y="308.0"/>
      <point x="253.0" y="707.0" type="curve" smooth="yes"/>
      <point x="253.0" y="1106.0"/>
      <point x="471.0" y="1327.0"/>
    </contour>
    <contour>
      <point x="986.0" y="466.0" type="curve" smooth="yes"/>
      <point x="820.0" y="466.0"/>
      <point x="746.0" y="533.0"/>
      <point x="746.0" y="713.0" type="curve" smooth="yes"/>
      <point x="746.0" y="891.0"/>
      <point x="804.0" y="947.0"/>
      <point x="942.0" y="947.0" type="curve" smooth="yes"/>
      <point x="1021.0" y="947.0"/>
      <point x="1081.0" y="932.0"/>
      <point x="1145.0" y="894.0" type="curve"/>
      <point x="1038.0" y="1014.0" type="line"/>
      <point x="1121.0" y="797.0" type="line"/>
      <point x="1237.0" y="797.0" type="line"/>
      <point x="1237.0" y="1140.0" type="line"/>
      <point x="1147.0" y="1140.0" type="line"/>
      <point x="1071.0" y="1062.0" type="line"/>
      <point x="1145.0" y="1090.0" type="line"/>
      <point x="1066.0" y="1112.0"/>
      <point x="989.0" y="1123.0"/>
      <point x="913.0" y="1123.0" type="curve" smooth="yes"/>
      <point x="572.0" y="1123.0"/>
      <point x="422.0" y="941.0"/>
      <point x="422.0" y="688.0" type="curve" smooth="yes"/>
      <point x="422.0" y="426.0"/>
      <point x="574.0" y="301.0"/>
      <point x="914.0" y="301.0" type="curve" smooth="yes"/>
      <point x="1025.0" y="301.0"/>
      <point x="1115.0" y="314.0"/>
      <point x="1210.0" y="345.0" type="curve"/>
      <point x="1241.0" y="608.0" type="line"/>
      <point x="1134.0" y="608.0" type="line"/>
      <point x="1031.0" y="388.0" type="line"/>
      <point x="1149.0" y="498.0" type="line"/>
      <point x="1095.0" y="477.0"/>
      <point x="1036.0" y="466.0"/>
    </contour>
  </outline>
</glyph>
<glyph name="ordfeminine" format="2">
	<unicode hex="00AA"/>
	<advance width="1120"/>
	<outline>
		<contour>
			<point x="136" y="412" type="line"/>
			<point x="1011" y="412" type="line"/>
			<point x="1011" y="612" type="line"/>
			<point x="136" y="612" type="line"/>
		</contour>
		<contour>
			<point x="597" y="1063" type="curve"/>
			<point x="597" y="1167" type="line"/>
			<point x="225" y="1124"/>
			<point x="126" y="1068"/>
			<point x="126" y="922" type="curve" smooth="yes"/>
			<point x="126" y="794"/>
			<point x="205" y="729"/>
			<point x="362" y="729" type="curve" smooth="yes"/>
			<point x="502" y="729"/>
			<point x="554" y="784"/>
			<point x="596" y="946" type="curve"/>
			<point x="586" y="936" type="line"/>
			<point x="596" y="792"/>
			<point x="664" y="729"/>
			<point x="791" y="729" type="curve" smooth="yes"/>
			<point x="859" y="729"/>
			<point x="929" y="747"/>
			<point x="1002" y="783" type="curve"/>
			<point x="1002" y="874" type="line"/>
			<point x="975" y="870"/>
			<point x="965" y="869"/>
			<point x="956" y="869" type="curve" smooth="yes"/>
			<point x="919" y="869"/>
			<point x="905" y="882"/>
			<point x="905" y="916" type="curve" smooth="yes"/>
			<point x="905" y="1196" type="line" smooth="yes"/>
			<point x="905" y="1367"/>
			<point x="806" y="1444"/>
			<point x="588" y="1444" type="curve" smooth="yes"/>
			<point x="359" y="1444"/>
			<point x="141" y="1352"/>
			<point x="141" y="1256" type="curve" smooth="yes"/>
			<point x="141" y="1216"/>
			<point x="176" y="1195"/>
			<point x="243" y="1195" type="curve" smooth="yes"/>
			<point x="327" y="1195"/>
			<point x="349" y="1212"/>
			<point x="372" y="1247" type="curve" smooth="yes"/>
			<point x="391" y="1276"/>
			<point x="401" y="1314"/>
			<point x="414" y="1385" type="curve"/>
			<point x="375" y="1297" type="line"/>
			<point x="402" y="1300"/>
			<point x="429" y="1301"/>
			<point x="469" y="1301" type="curve" smooth="yes"/>
			<point x="547" y="1301"/>
			<point x="574" y="1267"/>
			<point x="574" y="1196" type="curve" smooth="yes"/>
			<point x="574" y="972" type="line" smooth="yes"/>
			<point x="574" y="938"/>
			<point x="563" y="918"/>
			<point x="511" y="918" type="curve" smooth="yes"/>
			<point x="458" y="918"/>
			<point x="442" y="933"/>
			<point x="442" y="982" type="curve" smooth="yes"/>
			<point x="442" y="1036"/>
			<point x="473" y="1054"/>
		</contour>
	</outline>
</glyph>
<glyph name="guillemotleft" format="2">
	<unicode hex="00AB"/>
	<advance width="1521"/>
	<outline>
		<contour>
			<point x="488" y="582" type="line"/>
			<point x="488" y="462" type="line"/>
			<point x="762" y="907" type="line"/>
			<point x="578" y="1074" type="line"/>
			<point x="80" y="662" type="line"/>
			<point x="80" y="382" type="line"/>
			<point x="578" y="-30" type="line"/>
			<point x="762" y="137" type="line"/>
		</contour>
		<contour>
			<point x="1168" y="582" type="line"/>
			<point x="1168" y="462" type="line"/>
			<point x="1442" y="907" type="line"/>
			<point x="1258" y="1074" type="line"/>
			<point x="760" y="662" type="line"/>
			<point x="760" y="382" type="line"/>
			<point x="1258" y="-30" type="line"/>
			<point x="1442" y="137" type="line"/>
		</contour>
	</outline>
</glyph>
<glyph name="logicalnot" format="2">
  <advance width="1140.0"/>
  <unicode hex="00AC"/>
  <outline>
    <contour>
      <point x="85.0" y="847.0" type="line"/>
      <point x="85.0" y="579.0" type="line"/>
      <point x="1035.0" y="579.0" type="line"/>
      <point x="1035.0" y="847.0" type="line"/>
    </contour>
    <contour>
      <point x="1035.0" y="754.0" type="line"/>
      <point x="767.0" y="754.0" type="line"/>
      <point x="767.0" y="197.0" type="line"/>
      <point x="1035.0" y="197.0" type="line"/>
    </contour>
  </outline>
</glyph>
<glyph name="registered" format="2">
	<unicode hex="00AE"/>
	<advance width="1318"/>
	<outline>
		<contour>
			<point x="657" y="1444" type="curve" smooth="yes"/>
			<point x="313.5687022901" y="1444"/>
			<point x="123" y="1269"/>
			<point x="123" y="954" type="curve" smooth="yes"/>
			<point x="123" y="639"/>
			<point x="313.5687022901" y="464"/>
			<point x="657" y="464" type="curve" smooth="yes"/>
			<point x="1003.4393939394" y="464"/>
			<point x="1195" y="639"/>
			<point x="1195" y="954" type="curve" smooth="yes"/>
			<point x="1195" y="1269"/>
			<point x="1003.4393939394" y="1444"/>
		</contour>
		<contour>
			<point x="657" y="1336" type="curve" smooth="yes"/>
			<point x="945" y="1336"/>
			<point x="1062" y="1200"/>
			<point x="1062" y="954" type="curve" smooth="yes"/>
			<point x="1062" y="708"/>
			<point x="945" y="572"/>
			<point x="657" y="572" type="curve" smooth="yes"/>
			<point x="369" y="572"/>
			<point x="256" y="708"/>
			<point x="256" y="954" type="curve" smooth="yes"/>
			<point x="256" y="1200"/>
			<point x="369" y="1336"/>
		</contour>
		<contour>
			<point x="536" y="999" type="line"/>
			<point x="536" y="926" type="line"/>
			<point x="650" y="926" type="line" smooth="yes"/>
			<point x="698" y="926"/>
			<point x="706" y="919"/>
			<point x="714" y="875" type="curve" smooth="yes"/>
			<point x="724" y="802" type="line" smooth="yes"/>
			<point x="733" y="736"/>
			<point x="777" y="723"/>
			<point x="947" y="738" type="curve"/>
			<point x="947" y="800" type="line"/>
			<point x="911" y="800"/>
			<point x="903" y="805"/>
			<point x="899" y="843" type="curve" smooth="yes"/>
			<point x="895" y="881" type="line" smooth="yes"/>
			<point x="889" y="936"/>
			<point x="860" y="957"/>
			<point x="784" y="961" type="curve"/>
			<point x="784" y="960" type="line"/>
			<point x="875" y="964"/>
			<point x="920" y="1007"/>
			<point x="920" y="1084" type="curve" smooth="yes"/>
			<point x="920" y="1168"/>
			<point x="868" y="1205"/>
			<point x="759" y="1205" type="curve" smooth="yes"/>
			<point x="536" y="1205" type="line"/>
			<point x="536" y="1106" type="line"/>
			<point x="708" y="1106" type="line" smooth="yes"/>
			<point x="739" y="1106"/>
			<point x="751" y="1090"/>
			<point x="751" y="1051" type="curve" smooth="yes"/>
			<point x="751" y="1015"/>
			<point x="735" y="999"/>
			<point x="701" y="999" type="curve" smooth="yes"/>
		</contour>
		<contour>
			<point x="453" y="1145" type="line"/>
			<point x="453" y="799" type="line"/>
			<point x="397" y="782" type="line"/>
			<point x="397" y="738" type="line"/>
			<point x="666" y="738" type="line"/>
			<point x="666" y="782" type="line"/>
			<point x="629" y="799" type="line"/>
			<point x="629" y="1205" type="line"/>
			<point x="397" y="1205" type="line"/>
			<point x="397" y="1160" type="line"/>
		</contour>
	</outline>
</glyph>
<glyph name="degree" format="2">
	<unicode hex="00B0"/>
	<advance width="745"/>
	<outline>
		<contour>
			<point x="372" y="1434" type="curve" smooth="yes"/>
			<point x="200" y="1434"/>
			<point x="76" y="1313"/>
			<point x="76" y="1140" type="curve" smooth="yes"/>
			<point x="76" y="967"/>
			<point x="200" y="846"/>
			<point x="372" y="846" type="curve" smooth="yes"/>
			<point x="545" y="846"/>
			<point x="669" y="967"/>
			<point x="669" y="1140" type="curve" smooth="yes"/>
			<point x="669" y="1313"/>
			<point x="545" y="1434"/>
		</contour>
		<contour>
			<point x="372" y="1003" type="curve" smooth="yes"/>
			<point x="295" y="1003"/>
			<point x="240" y="1057"/>
			<point x="240" y="1140" type="curve" smooth="yes"/>
			<point x="240" y="1223"/>
			<point x="295" y="1277"/>
			<point x="372" y="1277" type="curve" smooth="yes"/>
			<point x="450" y="1277"/>
			<point x="504" y="1223"/>
			<point x="504" y="1140" type="curve" smooth="yes"/>
			<point x="504" y="1057"/>
			<point x="450" y="1003"/>
		</contour>
	</outline>
</glyph>
<glyph name="plusminus" format="2">
	<unicode hex="00B1"/>
	<advance width="1140"/>
	<outline>
		<contour>
			<point x="436" y="1044" type="line"/>
			<point x="436" y="124" type="line"/>
			<point x="704" y="124" type="line"/>
			<point x="704" y="1044" type="line"/>
		</contour>
		<contour>
			<point x="110" y="718" type="line"/>
			<point x="110" y="450" type="line"/>
			<point x="1030" y="450" type="line"/>
			<point x="1030" y="718" type="line"/>
		</contour>
		<contour>
			<point x="110" y="268" type="line"/>
			<point x="110" y="0" type="line"/>
			<point x="1030" y="0" type="line"/>
			<point x="1030" y="268" type="line"/>
		</contour>
	</outline>
</glyph>
<glyph name="uni00B2" format="2">
	<unicode hex="00B2"/>
	<advance width="872"/>
	<outline>
		<contour>
			<point x="550" y="758" type="line"/>
			<point x="777" y="909" type="line"/>
			<point x="291" y="909" type="line"/>
			<point x="288" y="858" type="line"/>
			<point x="424" y="913" type="line" smooth="yes"/>
			<point x="711" y="1029"/>
			<point x="760" y="1098"/>
			<point x="760" y="1214" type="curve" smooth="yes"/>
			<point x="760" y="1366"/>
			<point x="649" y="1438"/>
			<point x="441" y="1438" type="curve" smooth="yes"/>
			<point x="233" y="1438"/>
			<point x="112" y="1361"/>
			<point x="43" y="1167" type="curve"/>
			<point x="166" y="1106" type="line"/>
			<point x="210" y="1180"/>
			<point x="247" y="1215"/>
			<point x="324" y="1215" type="curve" smooth="yes"/>
			<point x="399" y="1215"/>
			<point x="438" y="1190"/>
			<point x="438" y="1136" type="curve" smooth="yes"/>
			<point x="438" y="1071"/>
			<point x="406" y="1035"/>
			<point x="251" y="930" type="curve" smooth="yes"/>
			<point x="83" y="816" type="line"/>
			<point x="83" y="662" type="line"/>
			<point x="632" y="662" type="line"/>
			<point x="685" y="629" type="line"/>
			<point x="752" y="629" type="line"/>
			<point x="821" y="977" type="line"/>
			<point x="727" y="977" type="line"/>
		</contour>
	</outline>
</glyph>
<glyph name="uni00B3" format="2">
	<unicode hex="00B3"/>
	<advance width="842"/>
	<outline>
		<contour>
			<point x="324" y="642" type="curve" smooth="yes"/>
			<point x="662" y="642"/>
			<point x="782" y="742"/>
			<point x="782" y="918" type="curve" smooth="yes"/>
			<point x="782" y="1060"/>
			<point x="652" y="1121"/>
			<point x="463" y="1105" type="curve"/>
			<point x="485" y="1098" type="line"/>
			<point x="674" y="1121"/>
			<point x="735" y="1188"/>
			<point x="735" y="1272" type="curve" smooth="yes"/>
			<point x="735" y="1382"/>
			<point x="648" y="1438"/>
			<point x="446" y="1438" type="curve" smooth="yes"/>
			<point x="225" y="1438"/>
			<point x="124" y="1359"/>
			<point x="59" y="1195" type="curve"/>
			<point x="169" y="1136" type="line"/>
			<point x="204" y="1205"/>
			<point x="257" y="1247"/>
			<point x="329" y="1247" type="curve" smooth="yes"/>
			<point x="399" y="1247"/>
			<point x="429" y="1220"/>
			<point x="429" y="1175" type="curve" smooth="yes"/>
			<point x="429" y="1115"/>
			<point x="398" y="1091"/>
			<point x="251" y="1071" type="curve"/>
			<point x="263" y="957" type="line"/>
			<point x="303" y="960" type="line" smooth="yes"/>
			<point x="437" y="970"/>
			<point x="476" y="945"/>
			<point x="476" y="878" type="curve" smooth="yes"/>
			<point x="476" y="796"/>
			<point x="423" y="775"/>
			<point x="344" y="775" type="curve" smooth="yes"/>
			<point x="230" y="775"/>
			<point x="168" y="859"/>
			<point x="151" y="859" type="curve" smooth="yes"/>
			<point x="86" y="859"/>
			<point x="54" y="818"/>
			<point x="54" y="762" type="curve" smooth="yes"/>
			<point x="54" y="703"/>
			<point x="117" y="642"/>
		</contour>
	</outline>
</glyph>
<glyph name="uni00B5" format="2">
	<unicode hex="00B5"/>
	<advance width="1563"/>
	<outline>
		<contour>
			<point x="184" y="1044" type="line"/>
			<point x="184" y="-462" type="line"/>
			<point x="246" y="-462" type="line"/>
			<point x="582" y="-432" type="line"/>
			<point x="448" y="139" type="line"/>
			<point x="434" y="139" type="line"/>
			<point x="445" y="25"/>
			<point x="509" y="-10"/>
			<point x="604" y="-10" type="curve" smooth="yes"/>
			<point x="684" y="-10"/>
			<point x="742" y="14"/>
			<point x="944" y="213" type="curve"/>
			<point x="925" y="331" type="line"/>
			<point x="860" y="319"/>
			<point x="804" y="314"/>
			<point x="768" y="314" type="curve" smooth="yes"/>
			<point x="688" y="314"/>
			<point x="660" y="339"/>
			<point x="660" y="403" type="curve" smooth="yes"/>
			<point x="660" y="1044" type="line"/>
		</contour>
		<contour>
			<point x="1354" y="257" type="curve" smooth="yes"/>
			<point x="1354" y="1044" type="line"/>
			<point x="878" y="1044" type="line"/>
			<point x="878" y="312" type="line" smooth="yes"/>
			<point x="878" y="90"/>
			<point x="981" y="-30"/>
			<point x="1174" y="-30" type="curve" smooth="yes"/>
			<point x="1297" y="-30"/>
			<point x="1407" y="7"/>
			<point x="1498" y="54" type="curve"/>
			<point x="1498" y="192" type="line"/>
			<point x="1466" y="187"/>
			<point x="1445" y="185"/>
			<point x="1427" y="185" type="curve" smooth="yes"/>
			<point x="1377" y="185"/>
			<point x="1354" y="200"/>
		</contour>
	</outline>
</glyph>
<glyph name="paragraph" format="2">
	<unicode hex="00B6"/>
	<advance width="1461"/>
	<outline>
		<contour>
			<point x="818" y="1414" type="line"/>
			<point x="503" y="1414" type="line" smooth="yes"/>
			<point x="215" y="1414"/>
			<point x="61" y="1265"/>
			<point x="61" y="989" type="curve" smooth="yes"/>
			<point x="61" y="720"/>
			<point x="210" y="582"/>
			<point x="503" y="582" type="curve" smooth="yes"/>
			<point x="818" y="582" type="line"/>
		</contour>
		<contour>
			<point x="867" y="-217" type="line"/>
			<point x="867" y="1247" type="line"/>
			<point x="1116" y="1247" type="line"/>
			<point x="1116" y="1414" type="line"/>
			<point x="664" y="1414" type="line"/>
			<point x="664" y="-217" type="line"/>
		</contour>
		<contour>
			<point x="1210" y="-217" type="line"/>
			<point x="1210" y="1250" type="line"/>
			<point x="1378" y="1297" type="line"/>
			<point x="1378" y="1414" type="line"/>
			<point x="1007" y="1414" type="line"/>
			<point x="1007" y="-217" type="line"/>
		</contour>
	</outline>
</glyph>
<glyph name="uni00B9" format="2">
	<unicode hex="00B9"/>
	<advance width="718"/>
	<outline>
		<contour>
			<point x="229" y="788" type="line"/>
			<point x="122" y="761" type="line"/>
			<point x="122" y="662" type="line"/>
			<point x="654" y="662" type="line"/>
			<point x="654" y="761" type="line"/>
			<point x="565" y="788" type="line"/>
			<point x="565" y="1414" type="line"/>
			<point x="321" y="1414" type="line"/>
			<point x="27" y="1260" type="line"/>
			<point x="67" y="1146" type="line"/>
			<point x="302" y="1214" type="line"/>
			<point x="229" y="1352" type="line"/>
		</contour>
	</outline>
</glyph>
<glyph name="ordmasculine" format="2">
	<unicode hex="00BA"/>
	<advance width="1133"/>
	<outline>
		<contour>
			<point x="129" y="412" type="line"/>
			<point x="1004" y="412" type="line"/>
			<point x="1004" y="612" type="line"/>
			<point x="129" y="612" type="line"/>
		</contour>
		<contour>
			<point x="563" y="925" type="curve" smooth="yes"/>
			<point x="487" y="925"/>
			<point x="460" y="970"/>
			<point x="460" y="1096" type="curve" smooth="yes"/>
			<point x="460" y="1208"/>
			<point x="489" y="1247"/>
			<point x="570" y="1247" type="curve" smooth="yes"/>
			<point x="646" y="1247"/>
			<point x="673" y="1203"/>
			<point x="673" y="1076" type="curve" smooth="yes"/>
			<point x="673" y="964"/>
			<point x="645" y="925"/>
		</contour>
		<contour>
			<point x="552" y="729" type="curve" smooth="yes"/>
			<point x="856" y="729"/>
			<point x="1004" y="848"/>
			<point x="1004" y="1092" type="curve" smooth="yes"/>
			<point x="1004" y="1328"/>
			<point x="865" y="1444"/>
			<point x="580" y="1444" type="curve" smooth="yes"/>
			<point x="277" y="1444"/>
			<point x="129" y="1325"/>
			<point x="129" y="1083" type="curve" smooth="yes"/>
			<point x="129" y="845"/>
			<point x="268" y="729"/>
		</contour>
	</outline>
</glyph>
<glyph name="guillemotright" format="2">
	<unicode hex="00BB"/>
	<advance width="1549"/>
	<outline>
		<contour>
			<point x="362" y="462" type="line"/>
			<point x="362" y="582" type="line"/>
			<point x="88" y="137" type="line"/>
			<point x="272" y="-30" type="line"/>
			<point x="770" y="382" type="line"/>
			<point x="770" y="662" type="line"/>
			<point x="272" y="1074" type="line"/>
			<point x="88" y="907" type="line"/>
		</contour>
		<contour>
			<point x="1042" y="462" type="line"/>
			<point x="1042" y="582" type="line"/>
			<point x="768" y="137" type="line"/>
			<point x="952" y="-30" type="line"/>
			<point x="1450" y="382" type="line"/>
			<point x="1450" y="662" type="line"/>
			<point x="952" y="1074" type="line"/>
			<point x="768" y="907" type="line"/>
		</contour>
	</outline>
</glyph>
<glyph name="questiondown" format="2">
	<unicode hex="00BF"/>
	<advance width="1526"/>
	<outline>
		<contour>
			<point x="806" y="-410" type="curve" smooth="yes"/>
			<point x="1315" y="-410"/>
			<point x="1474" y="-295"/>
			<point x="1474" y="-122" type="curve" smooth="yes"/>
			<point x="1474" y="-15"/>
			<point x="1391" y="57"/>
			<point x="1266" y="57" type="curve" smooth="yes"/>
			<point x="1191" y="57"/>
			<point x="1086" y="-139"/>
			<point x="878" y="-139" type="curve" smooth="yes"/>
			<point x="686" y="-139"/>
			<point x="621" y="-67"/>
			<point x="621" y="16" type="curve" smooth="yes"/>
			<point x="621" y="154"/>
			<point x="697" y="192"/>
			<point x="1007" y="176" type="curve"/>
			<point x="947" y="510" type="line"/>
			<point x="620" y="510" type="line"/>
			<point x="562" y="316" type="line"/>
			<point x="669" y="410" type="line"/>
			<point x="223" y="392"/>
			<point x="76" y="262"/>
			<point x="76" y="3" type="curve" smooth="yes"/>
			<point x="76" y="-219"/>
			<point x="245" y="-410"/>
		</contour>
		<contour>
			<point x="796" y="626" type="curve" smooth="yes"/>
			<point x="961" y="626"/>
			<point x="1053" y="703"/>
			<point x="1053" y="841" type="curve" smooth="yes"/>
			<point x="1053" y="984"/>
			<point x="961" y="1064"/>
			<point x="796" y="1064" type="curve" smooth="yes"/>
			<point x="631" y="1064"/>
			<point x="539" y="984"/>
			<point x="539" y="841" type="curve" smooth="yes"/>
			<point x="539" y="703"/>
			<point x="631" y="626"/>
		</contour>
	</outline>
</glyph>
<glyph name="AE" format="2">
	<unicode hex="00C6"/>
	<advance width="2646"/>
	<outline>
		<contour>
			<point x="598" y="388" type="line"/>
			<point x="1214" y="388" type="line"/>
			<point x="1214" y="654" type="line"/>
			<point x="598" y="654" type="line"/>
		</contour>
		<contour>
			<point x="1026" y="1414" type="line"/>
			<point x="168" y="169" type="line"/>
			<point x="0" y="136" type="line"/>
			<point x="0" y="0" type="line"/>
			<point x="671" y="0" type="line"/>
			<point x="671" y="136" type="line"/>
			<point x="514" y="175" type="line"/>
			<point x="1214" y="1204" type="line"/>
			<point x="1214" y="1414" type="line"/>
		</contour>
		<contour>
			<point x="695" y="1278" type="line"/>
			<point x="992" y="1191" type="line"/>
			<point x="1067" y="1414" type="line"/>
			<point x="695" y="1414" type="line"/>
		</contour>
		<contour>
			<point x="2123" y="990" type="line"/>
			<point x="1939" y="990" type="line"/>
			<point x="1922" y="846" type="line"/>
			<point x="1468" y="846" type="line"/>
			<point x="1468" y="628" type="line"/>
			<point x="1922" y="628" type="line"/>
			<point x="1939" y="480" type="line"/>
			<point x="2123" y="480" type="line"/>
			<point x="2123" y="735" type="line"/>
		</contour>
		<contour>
			<point x="2516" y="948" type="line"/>
			<point x="2516" y="1512" type="line"/>
			<point x="2374" y="1512" type="line"/>
			<point x="2243" y="1414" type="line"/>
			<point x="1468" y="1414" type="line"/>
			<point x="1468" y="1157" type="line"/>
			<point x="2313" y="1157" type="line"/>
			<point x="2160" y="1328" type="line"/>
			<point x="2312" y="948" type="line"/>
		</contour>
		<contour>
			<point x="2127" y="91" type="line"/>
			<point x="2265" y="257" type="line"/>
			<point x="1468" y="257" type="line"/>
			<point x="1468" y="0" type="line"/>
			<point x="2203" y="0" type="line"/>
			<point x="2307" y="-103" type="line"/>
			<point x="2471" y="-103" type="line"/>
			<point x="2574" y="535" type="line"/>
			<point x="2359" y="535" type="line"/>
		</contour>
		<contour>
			<point x="1015" y="0" type="line"/>
			<point x="1721" y="0" type="line"/>
			<point x="1721" y="1414" type="line"/>
			<point x="1183" y="1414" type="line"/>
			<point x="1183" y="185" type="line"/>
			<point x="1015" y="136" type="line"/>
		</contour>
	</outline>
	<anchor name="UCtop" x="1467" y="1414"/>
	<anchor name="bottom" x="1287" y="0"/>
</glyph>
<glyph name="Ccedilla" format="2">
	<unicode hex="00C7"/>
	<advance width="1636"/>
	<outline>
		<contour>
			<point x="1077" y="239" type="curve" smooth="yes"/>
			<point x="770" y="239"/>
			<point x="632" y="373"/>
			<point x="632" y="732" type="curve" smooth="yes"/>
			<point x="632" y="1053"/>
			<point x="737" y="1158"/>
			<point x="998" y="1158" type="curve" smooth="yes"/>
			<point x="1145" y="1158"/>
			<point x="1259" y="1128"/>
			<point x="1375" y="1050" type="curve"/>
			<point x="1167" y="1280" type="line"/>
			<point x="1313" y="886" type="line"/>
			<point x="1514" y="886" type="line"/>
			<point x="1514" y="1512" type="line"/>
			<point x="1355" y="1512" type="line"/>
			<point x="1225" y="1368" type="line"/>
			<point x="1352" y="1383" type="line"/>
			<point x="1215" y="1424"/>
			<point x="1079" y="1444"/>
			<point x="949" y="1444" type="curve" smooth="yes"/>
			<point x="353" y="1444"/>
			<point x="92" y="1123"/>
			<point x="92" y="684" type="curve" smooth="yes"/>
			<point x="92" y="204"/>
			<point x="373" y="-30"/>
			<point x="967" y="-30" type="curve" smooth="yes"/>
			<point x="1160" y="-30"/>
			<point x="1319" y="-6"/>
			<point x="1484" y="51" type="curve"/>
			<point x="1538" y="537" type="line"/>
			<point x="1369" y="537" type="line"/>
			<point x="1153" y="134" type="line"/>
			<point x="1384" y="302" type="line"/>
			<point x="1286" y="261"/>
			<point x="1174" y="239"/>
		</contour>
		<contour>
			<point x="851" y="-465" type="curve" smooth="yes"/>
			<point x="1049" y="-465"/>
			<point x="1189" y="-419"/>
			<point x="1189" y="-263" type="curve" smooth="yes"/>
			<point x="1189" y="-159"/>
			<point x="1149" y="-102"/>
			<point x="882" y="-65" type="curve"/>
			<point x="888" y="-190" type="line"/>
			<point x="1107" y="49" type="line"/>
			<point x="943" y="49" type="line"/>
			<point x="735" y="-184" type="line"/>
			<point x="735" y="-229" type="line"/>
			<point x="933" y="-250"/>
			<point x="965" y="-264"/>
			<point x="965" y="-307" type="curve" smooth="yes"/>
			<point x="965" y="-342"/>
			<point x="947" y="-356"/>
			<point x="888" y="-356" type="curve" smooth="yes"/>
			<point x="824" y="-356"/>
			<point x="743" y="-312"/>
			<point x="718" y="-312" type="curve" smooth="yes"/>
			<point x="695" y="-312"/>
			<point x="667" y="-329"/>
			<point x="667" y="-373" type="curve" smooth="yes"/>
			<point x="667" y="-437"/>
			<point x="700" y="-465"/>
		</contour>
	</outline>
</glyph>
<glyph name="multiply" format="2">
	<unicode hex="00D7"/>
	<advance width="1140"/>
	<outline>
		<contour>
			<point x="125" y="267" type="line"/>
			<point x="315" y="77" type="line"/>
			<point x="1015" y="777" type="line"/>
			<point x="825" y="967" type="line"/>
		</contour>
		<contour>
			<point x="125" y="777" type="line"/>
			<point x="825" y="77" type="line"/>
			<point x="1015" y="267" type="line"/>
			<point x="315" y="967" type="line"/>
		</contour>
	</outline>
</glyph>
<glyph name="Oslash" format="2">
	<unicode hex="00D8"/>
	<advance width="1829"/>
	<outline>
		<contour>
			<point x="505" y="408" type="line"/>
			<point x="371" y="301" type="line"/>
			<point x="78" y="0" type="line"/>
			<point x="373" y="0" type="line"/>
			<point x="530" y="161" type="line"/>
			<point x="661" y="265" type="line"/>
			<point x="1324" y="1006" type="line"/>
			<point x="1458" y="1113" type="line"/>
			<point x="1751" y="1414" type="line"/>
			<point x="1456" y="1414" type="line"/>
			<point x="1299" y="1253" type="line"/>
			<point x="1168" y="1149" type="line"/>
		</contour>
		<contour>
			<point x="949" y="1444" type="curve" smooth="yes"/>
			<point x="426" y="1444"/>
			<point x="108" y="1181"/>
			<point x="108" y="706" type="curve" smooth="yes"/>
			<point x="108" y="234"/>
			<point x="379" y="-29"/>
			<point x="880" y="-29" type="curve" smooth="yes"/>
			<point x="1403" y="-29"/>
			<point x="1721" y="234"/>
			<point x="1721" y="709" type="curve" smooth="yes"/>
			<point x="1721" y="1181"/>
			<point x="1450" y="1444"/>
		</contour>
		<contour>
			<point x="913" y="275" type="curve" smooth="yes"/>
			<point x="717" y="275"/>
			<point x="649" y="417"/>
			<point x="649" y="773" type="curve" smooth="yes"/>
			<point x="649" y="1045"/>
			<point x="741" y="1140"/>
			<point x="916" y="1140" type="curve" smooth="yes"/>
			<point x="1112" y="1140"/>
			<point x="1180" y="998"/>
			<point x="1180" y="642" type="curve" smooth="yes"/>
			<point x="1180" y="370"/>
			<point x="1088" y="275"/>
		</contour>
	</outline>
	<anchor name="UCtop" x="914" y="1414"/>
	<anchor name="bottom" x="914" y="0"/>
</glyph>
<glyph name="Thorn" format="2">
	<unicode hex="00DE"/>
	<advance width="1721"/>
	<outline>
		<contour>
			<point x="1125" y="710" type="curve" smooth="yes"/>
			<point x="1125" y="582"/>
			<point x="1077" y="529"/>
			<point x="961" y="529" type="curve" smooth="yes"/>
			<point x="670" y="529" type="line"/>
			<point x="475" y="249" type="line"/>
			<point x="1077" y="249" type="line" smooth="yes"/>
			<point x="1483" y="249"/>
			<point x="1642" y="438"/>
			<point x="1642" y="710" type="curve" smooth="yes"/>
			<point x="1642" y="1007"/>
			<point x="1463" y="1184"/>
			<point x="1041" y="1184" type="curve" smooth="yes"/>
			<point x="508" y="1184" type="line"/>
			<point x="670" y="890" type="line"/>
			<point x="985" y="890" type="line" smooth="yes"/>
			<point x="1089" y="890"/>
			<point x="1125" y="830"/>
		</contour>
		<contour>
			<point x="968" y="136" type="line"/>
			<point x="800" y="185" type="line"/>
			<point x="800" y="1229" type="line"/>
			<point x="968" y="1278" type="line"/>
			<point x="968" y="1414" type="line"/>
			<point x="94" y="1414" type="line"/>
			<point x="94" y="1278" type="line"/>
			<point x="262" y="1229" type="line"/>
			<point x="262" y="185" type="line"/>
			<point x="94" y="136" type="line"/>
			<point x="94" y="0" type="line"/>
			<point x="968" y="0" type="line"/>
		</contour>
	</outline>
</glyph>
<glyph name="germandbls" format="2">
	<unicode hex="00DF"/>
	<advance width="1822"/>
	<outline>
		<contour>
			<point x="251" y="995" type="curve" smooth="yes"/>
			<point x="251" y="152" type="line"/>
			<point x="129" y="119" type="line"/>
			<point x="129" y="0" type="line"/>
			<point x="799" y="0" type="line"/>
			<point x="799" y="119" type="line"/>
			<point x="727" y="152" type="line"/>
			<point x="727" y="1073" type="line" smooth="yes"/>
			<point x="727" y="1225"/>
			<point x="759" y="1269"/>
			<point x="953" y="1269" type="curve" smooth="yes"/>
			<point x="1109" y="1269"/>
			<point x="1155" y="1235"/>
			<point x="1155" y="1145" type="curve" smooth="yes"/>
			<point x="1155" y="983"/>
			<point x="927" y="1006"/>
			<point x="927" y="713" type="curve" smooth="yes"/>
			<point x="927" y="365"/>
			<point x="1326" y="503"/>
			<point x="1326" y="283" type="curve" smooth="yes"/>
			<point x="1326" y="217"/>
			<point x="1301" y="167"/>
			<point x="1178" y="167" type="curve" smooth="yes"/>
			<point x="1110" y="167"/>
			<point x="1015" y="177"/>
			<point x="972" y="188" type="curve"/>
			<point x="1207" y="55" type="line"/>
			<point x="1044" y="324" type="line"/>
			<point x="906" y="324" type="line"/>
			<point x="936" y="0" type="line"/>
			<point x="1012" y="-16"/>
			<point x="1134" y="-30"/>
			<point x="1237" y="-30" type="curve" smooth="yes"/>
			<point x="1610" y="-30"/>
			<point x="1752" y="103"/>
			<point x="1752" y="384" type="curve" smooth="yes"/>
			<point x="1752" y="820"/>
			<point x="1289" y="721"/>
			<point x="1289" y="861" type="curve" smooth="yes"/>
			<point x="1289" y="1008"/>
			<point x="1611" y="919"/>
			<point x="1611" y="1210" type="curve" smooth="yes"/>
			<point x="1611" y="1383"/>
			<point x="1508" y="1494"/>
			<point x="982" y="1494" type="curve" smooth="yes"/>
			<point x="439" y="1494"/>
			<point x="251" y="1359"/>
		</contour>
		<contour>
			<point x="269" y="1077" type="line"/>
			<point x="25" y="962" type="line"/>
			<point x="25" y="873" type="line"/>
			<point x="251" y="764" type="line"/>
		</contour>
	</outline>
</glyph>
<glyph name="ae" format="2">
	<unicode hex="00E6"/>
	<advance width="1974"/>
	<outline>
		<contour>
			<point x="575" y="902" type="curve" smooth="yes"/>
			<point x="696" y="902"/>
			<point x="745" y="843"/>
			<point x="745" y="722" type="curve" smooth="yes"/>
			<point x="745" y="340" type="line" smooth="yes"/>
			<point x="745" y="285"/>
			<point x="702" y="253"/>
			<point x="624" y="253" type="curve" smooth="yes"/>
			<point x="536" y="253"/>
			<point x="522" y="277"/>
			<point x="522" y="360" type="curve" smooth="yes"/>
			<point x="522" y="448"/>
			<point x="556" y="478"/>
			<point x="779" y="493" type="curve"/>
			<point x="779" y="646" type="line"/>
			<point x="170" y="572"/>
			<point x="70" y="468"/>
			<point x="70" y="267" type="curve" smooth="yes"/>
			<point x="70" y="65"/>
			<point x="192" y="-30"/>
			<point x="418" y="-30" type="curve" smooth="yes"/>
			<point x="630" y="-30"/>
			<point x="756" y="40"/>
			<point x="801" y="354" type="curve"/>
			<point x="752" y="354" type="line"/>
			<point x="775" y="97"/>
			<point x="995" y="-30"/>
			<point x="1365" y="-30" type="curve" smooth="yes"/>
			<point x="1490" y="-30"/>
			<point x="1634" y="19"/>
			<point x="1866" y="168" type="curve"/>
			<point x="1866" y="309" type="line"/>
			<point x="1756" y="289"/>
			<point x="1649" y="280"/>
			<point x="1507" y="280" type="curve" smooth="yes"/>
			<point x="1270" y="280"/>
			<point x="1199" y="347"/>
			<point x="1199" y="612" type="curve" smooth="yes"/>
			<point x="1199" y="803"/>
			<point x="1234" y="849"/>
			<point x="1330" y="849" type="curve" smooth="yes"/>
			<point x="1434" y="849"/>
			<point x="1474" y="813"/>
			<point x="1466" y="565" type="curve"/>
			<point x="1650" y="643" type="line"/>
			<point x="1083" y="643" type="line"/>
			<point x="1083" y="483" type="line"/>
			<point x="1903" y="483" type="line"/>
			<point x="1884" y="919"/>
			<point x="1720" y="1074"/>
			<point x="1357" y="1074" type="curve" smooth="yes"/>
			<point x="1151" y="1074"/>
			<point x="1033" y="972"/>
			<point x="959" y="850" type="curve"/>
			<point x="1234" y="850" type="line"/>
			<point x="1179" y="950"/>
			<point x="1030" y="1074"/>
			<point x="751" y="1074" type="curve" smooth="yes"/>
			<point x="346" y="1074"/>
			<point x="93" y="901"/>
			<point x="93" y="784" type="curve" smooth="yes"/>
			<point x="93" y="726"/>
			<point x="139" y="689"/>
			<point x="244" y="689" type="curve" smooth="yes"/>
			<point x="358" y="689"/>
			<point x="411" y="705"/>
			<point x="434" y="771" type="curve" smooth="yes"/>
			<point x="457" y="835"/>
			<point x="476" y="904"/>
			<point x="494" y="983" type="curve"/>
			<point x="438" y="895" type="line"/>
			<point x="465" y="899"/>
			<point x="500" y="902"/>
		</contour>
	</outline>
	<anchor name="top" x="986" y="1044"/>
	<anchor name="bottom" x="986" y="0"/>
</glyph>
<glyph name="ccedilla" format="2">
	<unicode hex="00E7"/>
	<advance width="1238"/>
	<outline>
		<contour>
			<point x="729" y="1074" type="curve" smooth="yes"/>
			<point x="288" y="1074"/>
			<point x="75" y="822"/>
			<point x="75" y="504" type="curve" smooth="yes"/>
			<point x="75" y="154"/>
			<point x="284" y="-30"/>
			<point x="664" y="-30" type="curve" smooth="yes"/>
			<point x="777" y="-30"/>
			<point x="904" y="11"/>
			<point x="1159" y="168" type="curve"/>
			<point x="1159" y="330" type="line"/>
			<point x="1049" y="307"/>
			<point x="945" y="294"/>
			<point x="804" y="294" type="curve" smooth="yes"/>
			<point x="570" y="294"/>
			<point x="505" y="358"/>
			<point x="505" y="626" type="curve" smooth="yes"/>
			<point x="505" y="850"/>
			<point x="562" y="902"/>
			<point x="670" y="902" type="curve" smooth="yes"/>
			<point x="735" y="902"/>
			<point x="946" y="640"/>
			<point x="1006" y="640" type="curve" smooth="yes"/>
			<point x="1075" y="640"/>
			<point x="1183" y="710"/>
			<point x="1183" y="829" type="curve" smooth="yes"/>
			<point x="1183" y="975"/>
			<point x="1066" y="1074"/>
		</contour>
		<contour>
			<point x="565" y="-465" type="curve" smooth="yes"/>
			<point x="763" y="-465"/>
			<point x="903" y="-419"/>
			<point x="903" y="-263" type="curve" smooth="yes"/>
			<point x="903" y="-159"/>
			<point x="863" y="-102"/>
			<point x="596" y="-65" type="curve"/>
			<point x="602" y="-190" type="line"/>
			<point x="821" y="49" type="line"/>
			<point x="657" y="49" type="line"/>
			<point x="449" y="-184" type="line"/>
			<point x="449" y="-229" type="line"/>
			<point x="647" y="-250"/>
			<point x="679" y="-264"/>
			<point x="679" y="-307" type="curve" smooth="yes"/>
			<point x="679" y="-342"/>
			<point x="661" y="-356"/>
			<point x="602" y="-356" type="curve" smooth="yes"/>
			<point x="538" y="-356"/>
			<point x="457" y="-312"/>
			<point x="432" y="-312" type="curve" smooth="yes"/>
			<point x="409" y="-312"/>
			<point x="381" y="-329"/>
			<point x="381" y="-373" type="curve" smooth="yes"/>
			<point x="381" y="-437"/>
			<point x="414" y="-465"/>
		</contour>
	</outline>
</glyph>
<glyph name="eth" format="2">
	<unicode hex="00F0"/>
	<advance width="1395"/>
	<outline>
		<contour>
			<point x="668" y="-30" type="curve" smooth="yes"/>
			<point x="1056" y="-30"/>
			<point x="1299" y="121"/>
			<point x="1299" y="603" type="curve" smooth="yes"/>
			<point x="1299" y="962"/>
			<point x="1215" y="1310"/>
			<point x="309" y="1494" type="curve"/>
			<point x="231" y="1291" type="line"/>
			<point x="769" y="1127"/>
			<point x="856" y="1021"/>
			<point x="856" y="683" type="curve"/>
			<point x="869" y="683" type="line"/>
			<point x="866" y="832"/>
			<point x="765" y="970"/>
			<point x="572" y="970" type="curve" smooth="yes"/>
			<point x="253" y="970"/>
			<point x="77" y="820"/>
			<point x="77" y="484" type="curve" smooth="yes"/>
			<point x="77" y="157"/>
			<point x="292" y="-30"/>
		</contour>
		<contour>
			<point x="683" y="225" type="curve" smooth="yes"/>
			<point x="577" y="225"/>
			<point x="539" y="298"/>
			<point x="539" y="508" type="curve" smooth="yes"/>
			<point x="539" y="693"/>
			<point x="579" y="757"/>
			<point x="693" y="757" type="curve" smooth="yes"/>
			<point x="799" y="757"/>
			<point x="837" y="685"/>
			<point x="837" y="474" type="curve" smooth="yes"/>
			<point x="837" y="289"/>
			<point x="797" y="225"/>
		</contour>
		<contour>
			<point x="366" y="1009" type="line"/>
			<point x="1040" y="1380" type="line"/>
			<point x="976" y="1494" type="line"/>
			<point x="302" y="1123" type="line"/>
		</contour>
	</outline>
</glyph>
<glyph name="divide" format="2">
	<unicode hex="00F7"/>
	<advance width="1140"/>
	<outline>
		<contour>
			<point x="570" y="317" type="curve" smooth="yes"/>
			<point x="458" y="317"/>
			<point x="387" y="251"/>
			<point x="387" y="144" type="curve" smooth="yes"/>
			<point x="387" y="37"/>
			<point x="458" y="-30"/>
			<point x="570" y="-30" type="curve" smooth="yes"/>
			<point x="682" y="-30"/>
			<point x="753" y="37"/>
			<point x="753" y="144" type="curve" smooth="yes"/>
			<point x="753" y="251"/>
			<point x="682" y="317"/>
		</contour>
		<contour>
			<point x="570" y="1074" type="curve" smooth="yes"/>
			<point x="458" y="1074"/>
			<point x="387" y="1008"/>
			<point x="387" y="901" type="curve" smooth="yes"/>
			<point x="387" y="794"/>
			<point x="458" y="727"/>
			<point x="570" y="727" type="curve" smooth="yes"/>
			<point x="682" y="727"/>
			<point x="753" y="794"/>
			<point x="753" y="901" type="curve" smooth="yes"/>
			<point x="753" y="1008"/>
			<point x="682" y="1074"/>
		</contour>
		<contour>
			<point x="110" y="656" type="line"/>
			<point x="110" y="388" type="line"/>
			<point x="1030" y="388" type="line"/>
			<point x="1030" y="656" type="line"/>
		</contour>
	</outline>
</glyph>
<glyph name="oslash" format="2">
	<unicode hex="00F8"/>
	<advance width="1403"/>
	<outline>
		<contour>
			<point x="69" y="0" type="line"/>
			<point x="272" y="0" type="line"/>
			<point x="401" y="127" type="line"/>
			<point x="463" y="167" type="line"/>
			<point x="1021" y="767" type="line"/>
			<point x="1097" y="812" type="line"/>
			<point x="1332" y="1044" type="line"/>
			<point x="1129" y="1044" type="line"/>
			<point x="1000" y="917" type="line"/>
			<point x="938" y="877" type="line"/>
			<point x="380" y="277" type="line"/>
			<point x="304" y="232" type="line"/>
		</contour>
		<contour>
			<point x="696" y="240" type="curve" smooth="yes"/>
			<point x="590" y="240"/>
			<point x="552" y="317"/>
			<point x="552" y="540" type="curve" smooth="yes"/>
			<point x="552" y="736"/>
			<point x="592" y="804"/>
			<point x="706" y="804" type="curve" smooth="yes"/>
			<point x="812" y="804"/>
			<point x="850" y="727"/>
			<point x="850" y="504" type="curve" smooth="yes"/>
			<point x="850" y="308"/>
			<point x="810" y="240"/>
		</contour>
		<contour>
			<point x="681" y="-30" type="curve" smooth="yes"/>
			<point x="1083" y="-30"/>
			<point x="1312" y="173"/>
			<point x="1312" y="529" type="curve" smooth="yes"/>
			<point x="1312" y="876"/>
			<point x="1097" y="1074"/>
			<point x="721" y="1074" type="curve" smooth="yes"/>
			<point x="319" y="1074"/>
			<point x="90" y="871"/>
			<point x="90" y="515" type="curve" smooth="yes"/>
			<point x="90" y="168"/>
			<point x="305" y="-30"/>
		</contour>
	</outline>
	<anchor name="top" x="700" y="1044"/>
	<anchor name="bottom" x="700" y="0"/>
</glyph>
<glyph name="thorn" format="2">
	<unicode hex="00FE"/>
	<advance width="1459"/>
	<outline>
		<contour>
			<point x="147" y="1137" type="curve"/>
			<point x="147" y="-283" type="line"/>
			<point x="25" y="-316" type="line"/>
			<point x="25" y="-435" type="line"/>
			<point x="765" y="-435" type="line"/>
			<point x="765" y="-316" type="line"/>
			<point x="623" y="-283" type="line"/>
			<point x="623" y="282" type="line"/>
			<point x="608" y="282" type="line"/>
			<point x="608" y="100"/>
			<point x="713" y="-30"/>
			<point x="922" y="-30" type="curve" smooth="yes"/>
			<point x="1165" y="-30"/>
			<point x="1378" y="170"/>
			<point x="1378" y="562" type="curve" smooth="yes"/>
			<point x="1378" y="878"/>
			<point x="1232" y="1074"/>
			<point x="938" y="1074" type="curve" smooth="yes"/>
			<point x="859" y="1074"/>
			<point x="820" y="1061"/>
			<point x="553" y="865" type="curve"/>
			<point x="553" y="793" type="line"/>
			<point x="609" y="798"/>
			<point x="675" y="801"/>
			<point x="714" y="801" type="curve" smooth="yes"/>
			<point x="862" y="801"/>
			<point x="916" y="734"/>
			<point x="916" y="528" type="curve" smooth="yes"/>
			<point x="916" y="300"/>
			<point x="856" y="240"/>
			<point x="760" y="240" type="curve" smooth="yes"/>
			<point x="659" y="240"/>
			<point x="623" y="281"/>
			<point x="623" y="454" type="curve" smooth="yes"/>
			<point x="623" y="1194" type="line"/>
			<point x="649" y="1494" type="line"/>
			<point x="527" y="1494" type="line"/>
			<point x="-37" y="1396" type="line"/>
			<point x="-37" y="1264" type="line"/>
			<point x="41" y="1210.1630434783"/>
			<point x="121" y="1154.9456521739"/>
		</contour>
	</outline>
</glyph>
<glyph name="Aogonek" format="2">
	<unicode hex="0104"/>
	<advance width="1961"/>
	<outline>
		<contour>
			<point x="450" y="368" type="line"/>
			<point x="1206" y="368" type="line"/>
			<point x="1206" y="634" type="line"/>
			<point x="450" y="634" type="line"/>
		</contour>
		<contour>
			<point x="1767" y="189" type="line"/>
			<point x="1297" y="1414" type="line"/>
			<point x="658" y="1414" type="line"/>
			<point x="180" y="169" type="line"/>
			<point x="12" y="136" type="line"/>
			<point x="12" y="0" type="line"/>
			<point x="663" y="0" type="line"/>
			<point x="663" y="136" type="line"/>
			<point x="506" y="175" type="line"/>
			<point x="866" y="1204" type="line"/>
			<point x="831" y="1204" type="line"/>
			<point x="1199" y="169" type="line"/>
			<point x="1039" y="136" type="line"/>
			<point x="1039" y="0" type="line"/>
			<point x="1952" y="0" type="line"/>
			<point x="1952" y="136" type="line"/>
		</contour>
		<contour>
			<point x="1564" y="-76" type="curve" smooth="yes"/>
			<point x="1692" y="97" type="line"/>
			<point x="1583" y="97" type="line"/>
			<point x="1444" y="-30" type="line" smooth="yes"/>
			<point x="1300" y="-161"/>
			<point x="1279" y="-218"/>
			<point x="1279" y="-291" type="curve" smooth="yes"/>
			<point x="1279" y="-403"/>
			<point x="1336" y="-465"/>
			<point x="1479" y="-465" type="curve" smooth="yes"/>
			<point x="1553" y="-465"/>
			<point x="1603" y="-447"/>
			<point x="1695" y="-387" type="curve"/>
			<point x="1695" y="-277" type="line"/>
			<point x="1641" y="-299"/>
			<point x="1614" y="-303"/>
			<point x="1572" y="-303" type="curve" smooth="yes"/>
			<point x="1527" y="-303"/>
			<point x="1491" y="-282"/>
			<point x="1491" y="-236" type="curve" smooth="yes"/>
			<point x="1491" y="-195"/>
			<point x="1504" y="-157"/>
		</contour>
	</outline>
</glyph>
<glyph name="aogonek" format="2">
	<unicode hex="0105"/>
	<advance width="1384"/>
	<outline>
		<contour>
			<point x="1363" y="51" type="line"/>
			<point x="1363" y="192" type="line"/>
			<point x="1331" y="187"/>
			<point x="1310" y="185"/>
			<point x="1292" y="185" type="curve" smooth="yes"/>
			<point x="1242" y="185"/>
			<point x="1219" y="200"/>
			<point x="1219" y="257" type="curve" smooth="yes"/>
			<point x="1219" y="691" type="line" smooth="yes"/>
			<point x="1219" y="937"/>
			<point x="1096" y="1074"/>
			<point x="751" y="1074" type="curve" smooth="yes"/>
			<point x="346" y="1074"/>
			<point x="93" y="901"/>
			<point x="93" y="784" type="curve" smooth="yes"/>
			<point x="93" y="726"/>
			<point x="139" y="689"/>
			<point x="244" y="689" type="curve" smooth="yes"/>
			<point x="358" y="689"/>
			<point x="411" y="705"/>
			<point x="434" y="771" type="curve" smooth="yes"/>
			<point x="457" y="835"/>
			<point x="476" y="904"/>
			<point x="494" y="983" type="curve"/>
			<point x="438" y="895" type="line"/>
			<point x="465" y="899"/>
			<point x="500" y="902"/>
			<point x="575" y="902" type="curve" smooth="yes"/>
			<point x="696" y="902"/>
			<point x="745" y="843"/>
			<point x="745" y="722" type="curve" smooth="yes"/>
			<point x="745" y="336" type="line" smooth="yes"/>
			<point x="745" y="285"/>
			<point x="702" y="253"/>
			<point x="624" y="253" type="curve" smooth="yes"/>
			<point x="536" y="253"/>
			<point x="522" y="277"/>
			<point x="522" y="360" type="curve" smooth="yes"/>
			<point x="522" y="448"/>
			<point x="556" y="478"/>
			<point x="779" y="493" type="curve"/>
			<point x="779" y="646" type="line"/>
			<point x="170" y="572"/>
			<point x="70" y="468"/>
			<point x="70" y="267" type="curve" smooth="yes"/>
			<point x="70" y="65"/>
			<point x="192" y="-30"/>
			<point x="418" y="-30" type="curve" smooth="yes"/>
			<point x="618" y="-30"/>
			<point x="713" y="42"/>
			<point x="778" y="304" type="curve"/>
			<point x="763" y="288" type="line"/>
			<point x="778" y="58"/>
			<point x="871" y="-30"/>
			<point x="1050" y="-30" type="curve" smooth="yes"/>
			<point x="1110" y="-30"/>
			<point x="1166" y="-21"/>
			<point x="1219" y="-6" type="curve"/>
			<point x="1209" y="10" type="line"/>
			<point x="1155" y="-30" type="line" smooth="yes"/>
			<point x="987" y="-155"/>
			<point x="950" y="-218"/>
			<point x="950" y="-291" type="curve" smooth="yes"/>
			<point x="950" y="-403"/>
			<point x="1007" y="-465"/>
			<point x="1150" y="-465" type="curve" smooth="yes"/>
			<point x="1224" y="-465"/>
			<point x="1274" y="-447"/>
			<point x="1366" y="-387" type="curve"/>
			<point x="1366" y="-277" type="line"/>
			<point x="1312" y="-299"/>
			<point x="1285" y="-303"/>
			<point x="1243" y="-303" type="curve" smooth="yes"/>
			<point x="1198" y="-303"/>
			<point x="1162" y="-282"/>
			<point x="1162" y="-236" type="curve" smooth="yes"/>
			<point x="1162" y="-200"/>
			<point x="1171" y="-172"/>
			<point x="1234" y="-99" type="curve" smooth="yes"/>
		</contour>
	</outline>
</glyph>
<glyph name="Dcroat" format="2">
	<unicode hex="0110"/>
	<advance width="1847"/>
	<outline>
		<contour>
			<point x="98" y="606" type="line"/>
			<point x="1028" y="606" type="line"/>
			<point x="1028" y="828" type="line"/>
			<point x="98" y="828" type="line"/>
		</contour>
		<contour>
			<point x="1205" y="721" type="curve" smooth="yes"/>
			<point x="1205" y="417"/>
			<point x="1145" y="294"/>
			<point x="982" y="294" type="curve" smooth="yes"/>
			<point x="577" y="294" type="line"/>
			<point x="523" y="0" type="line"/>
			<point x="995" y="0" type="line" smooth="yes"/>
			<point x="1454" y="0"/>
			<point x="1753" y="257"/>
			<point x="1753" y="736" type="curve" smooth="yes"/>
			<point x="1753" y="1177"/>
			<point x="1499" y="1414"/>
			<point x="1004" y="1414" type="curve" smooth="yes"/>
			<point x="523" y="1414" type="line"/>
			<point x="577" y="1120" type="line"/>
			<point x="939" y="1120" type="line" smooth="yes"/>
			<point x="1147" y="1120"/>
			<point x="1205" y="1004"/>
		</contour>
		<contour>
			<point x="98" y="0" type="line"/>
			<point x="804" y="0" type="line"/>
			<point x="804" y="1414" type="line"/>
			<point x="98" y="1414" type="line"/>
			<point x="98" y="1278" type="line"/>
			<point x="266" y="1229" type="line"/>
			<point x="266" y="185" type="line"/>
			<point x="98" y="136" type="line"/>
		</contour>
	</outline>
</glyph>
<glyph name="dcroat" format="2">
	<unicode hex="0111"/>
	<advance width="1502"/>
	<outline>
		<contour>
			<point x="833" y="654" type="curve" smooth="yes"/>
			<point x="833" y="197" type="line"/>
			<point x="938" y="-30" type="line"/>
			<point x="1001" y="-30" type="line"/>
			<point x="1477" y="99" type="line"/>
			<point x="1477" y="189" type="line"/>
			<point x="1435" y="221"/>
			<point x="1333" y="298.7142857143"/>
			<point x="1309" y="317" type="curve"/>
			<point x="1309" y="1194" type="line"/>
			<point x="1335" y="1494" type="line"/>
			<point x="1213" y="1494" type="line"/>
			<point x="793" y="1464" type="line"/>
			<point x="793" y="1332" type="line"/>
			<point x="807" y="1312"/>
			<point x="820" y="1292"/>
			<point x="833" y="1272" type="curve"/>
			<point x="833" y="970" type="line"/>
			<point x="1130" y="970" type="line"/>
			<point x="978" y="1049"/>
			<point x="877" y="1074"/>
			<point x="715" y="1074" type="curve" smooth="yes"/>
			<point x="357" y="1074"/>
			<point x="78" y="853"/>
			<point x="78" y="482" type="curve" smooth="yes"/>
			<point x="78" y="165"/>
			<point x="224" y="-30"/>
			<point x="518" y="-30" type="curve" smooth="yes"/>
			<point x="597" y="-30"/>
			<point x="636" y="-17"/>
			<point x="903" y="179" type="curve"/>
			<point x="903" y="252" type="line"/>
			<point x="847" y="246"/>
			<point x="781" y="243"/>
			<point x="742" y="243" type="curve" smooth="yes"/>
			<point x="594" y="243"/>
			<point x="540" y="310"/>
			<point x="540" y="525" type="curve" smooth="yes"/>
			<point x="540" y="762"/>
			<point x="606" y="826"/>
			<point x="724" y="826" type="curve" smooth="yes"/>
			<point x="803" y="826"/>
			<point x="833" y="783"/>
		</contour>
		<contour>
			<point x="624" y="1142" type="line"/>
			<point x="1454" y="1142" type="line"/>
			<point x="1454" y="1272" type="line"/>
			<point x="624" y="1272" type="line"/>
		</contour>
	</outline>
</glyph>
<glyph name="Eogonek" format="2">
	<unicode hex="0118"/>
	<advance width="1725"/>
	<outline>
		<contour>
			<point x="1202" y="990" type="line"/>
			<point x="1018" y="990" type="line"/>
			<point x="1001" y="846" type="line"/>
			<point x="547" y="846" type="line"/>
			<point x="547" y="628" type="line"/>
			<point x="1001" y="628" type="line"/>
			<point x="1018" y="480" type="line"/>
			<point x="1202" y="480" type="line"/>
			<point x="1202" y="735" type="line"/>
		</contour>
		<contour>
			<point x="1595" y="948" type="line"/>
			<point x="1595" y="1512" type="line"/>
			<point x="1453" y="1512" type="line"/>
			<point x="1322" y="1414" type="line"/>
			<point x="547" y="1414" type="line"/>
			<point x="547" y="1157" type="line"/>
			<point x="1392" y="1157" type="line"/>
			<point x="1239" y="1328" type="line"/>
			<point x="1391" y="948" type="line"/>
		</contour>
		<contour>
			<point x="1206" y="91" type="line"/>
			<point x="1344" y="257" type="line"/>
			<point x="547" y="257" type="line"/>
			<point x="547" y="0" type="line"/>
			<point x="1282" y="0" type="line"/>
			<point x="1386" y="-103" type="line"/>
			<point x="1550" y="-103" type="line"/>
			<point x="1653" y="535" type="line"/>
			<point x="1438" y="535" type="line"/>
		</contour>
		<contour>
			<point x="94" y="0" type="line"/>
			<point x="800" y="0" type="line"/>
			<point x="800" y="1414" type="line"/>
			<point x="94" y="1414" type="line"/>
			<point x="94" y="1278" type="line"/>
			<point x="262" y="1229" type="line"/>
			<point x="262" y="185" type="line"/>
			<point x="94" y="136" type="line"/>
		</contour>
		<contour>
			<point x="1307" y="-66" type="curve" smooth="yes"/>
			<point x="1376" y="97" type="line"/>
			<point x="1267" y="97" type="line"/>
			<point x="1175" y="-20" type="line" smooth="yes"/>
			<point x="1069" y="-154"/>
			<point x="1050" y="-218"/>
			<point x="1050" y="-291" type="curve" smooth="yes"/>
			<point x="1050" y="-403"/>
			<point x="1107" y="-465"/>
			<point x="1250" y="-465" type="curve" smooth="yes"/>
			<point x="1324" y="-465"/>
			<point x="1374" y="-447"/>
			<point x="1466" y="-387" type="curve"/>
			<point x="1466" y="-277" type="line"/>
			<point x="1412" y="-299"/>
			<point x="1385" y="-303"/>
			<point x="1343" y="-303" type="curve" smooth="yes"/>
			<point x="1289" y="-303"/>
			<point x="1262" y="-279"/>
			<point x="1262" y="-224" type="curve" smooth="yes"/>
			<point x="1262" y="-186"/>
			<point x="1272" y="-148"/>
		</contour>
	</outline>
</glyph>
<glyph name="eogonek" format="2">
	<unicode hex="0119"/>
	<advance width="1284"/>
	<outline>
		<contour>
			<point x="1174" y="168" type="line"/>
			<point x="1174" y="309" type="line"/>
			<point x="1064" y="289"/>
			<point x="957" y="280"/>
			<point x="815" y="280" type="curve" smooth="yes"/>
			<point x="578" y="280"/>
			<point x="507" y="347"/>
			<point x="507" y="612" type="curve" smooth="yes"/>
			<point x="507" y="803"/>
			<point x="542" y="849"/>
			<point x="638" y="849" type="curve" smooth="yes"/>
			<point x="742" y="849"/>
			<point x="782" y="813"/>
			<point x="774" y="565" type="curve"/>
			<point x="858" y="643" type="line"/>
			<point x="391" y="643" type="line"/>
			<point x="391" y="483" type="line"/>
			<point x="1211" y="483" type="line"/>
			<point x="1192" y="919"/>
			<point x="1028" y="1074"/>
			<point x="665" y="1074" type="curve" smooth="yes"/>
			<point x="279" y="1074"/>
			<point x="77" y="856"/>
			<point x="77" y="504" type="curve" smooth="yes"/>
			<point x="77" y="154"/>
			<point x="288" y="-30"/>
			<point x="673" y="-30" type="curve" smooth="yes"/>
			<point x="768" y="-30"/>
			<point x="875" y="-1"/>
			<point x="1023" y="78" type="curve"/>
			<point x="1011" y="92" type="line"/>
			<point x="946" y="25" type="line" smooth="yes"/>
			<point x="803" y="-123"/>
			<point x="761" y="-197"/>
			<point x="761" y="-291" type="curve" smooth="yes"/>
			<point x="761" y="-403"/>
			<point x="818" y="-465"/>
			<point x="961" y="-465" type="curve" smooth="yes"/>
			<point x="1035" y="-465"/>
			<point x="1085" y="-447"/>
			<point x="1177" y="-387" type="curve"/>
			<point x="1177" y="-277" type="line"/>
			<point x="1123" y="-299"/>
			<point x="1096" y="-303"/>
			<point x="1054" y="-303" type="curve" smooth="yes"/>
			<point x="1003" y="-303"/>
			<point x="973" y="-282"/>
			<point x="973" y="-222" type="curve" smooth="yes"/>
			<point x="973" y="-187"/>
			<point x="981" y="-131"/>
			<point x="1036" y="-46" type="curve" smooth="yes"/>
		</contour>
	</outline>
</glyph>
<glyph name="Hbar" format="2">
	<unicode hex="0126"/>
	<advance width="2058"/>
	<outline>
		<contour>
			<point x="804" y="185" type="line"/>
			<point x="804" y="1229" type="line"/>
			<point x="972" y="1278" type="line"/>
			<point x="972" y="1414" type="line"/>
			<point x="98" y="1414" type="line"/>
			<point x="98" y="1278" type="line"/>
			<point x="266" y="1229" type="line"/>
			<point x="266" y="185" type="line"/>
			<point x="98" y="136" type="line"/>
			<point x="98" y="0" type="line"/>
			<point x="972" y="0" type="line"/>
			<point x="972" y="136" type="line"/>
		</contour>
		<contour>
			<point x="1792" y="185" type="line"/>
			<point x="1792" y="1229" type="line"/>
			<point x="1960" y="1278" type="line"/>
			<point x="1960" y="1414" type="line"/>
			<point x="1086" y="1414" type="line"/>
			<point x="1086" y="1278" type="line"/>
			<point x="1254" y="1229" type="line"/>
			<point x="1254" y="185" type="line"/>
			<point x="1086" y="136" type="line"/>
			<point x="1086" y="0" type="line"/>
			<point x="1960" y="0" type="line"/>
			<point x="1960" y="136" type="line"/>
		</contour>
		<contour>
			<point x="98" y="969" type="line"/>
			<point x="1960" y="969" type="line"/>
			<point x="1960" y="1191" type="line"/>
			<point x="98" y="1191" type="line"/>
		</contour>
		<contour>
			<point x="527" y="576" type="line"/>
			<point x="1533" y="576" type="line"/>
			<point x="1533" y="870" type="line"/>
			<point x="527" y="870" type="line"/>
		</contour>
	</outline>
</glyph>
<glyph name="hbar" format="2">
	<unicode hex="0127"/>
	<advance width="1554"/>
	<outline>
		<contour>
			<point x="850" y="119" type="line"/>
			<point x="850" y="0" type="line"/>
			<point x="1504" y="0" type="line"/>
			<point x="1504" y="119" type="line"/>
			<point x="1381" y="152" type="line"/>
			<point x="1381" y="759" type="line" smooth="yes"/>
			<point x="1381" y="958"/>
			<point x="1265" y="1074"/>
			<point x="1025" y="1074" type="curve" smooth="yes"/>
			<point x="921" y="1074"/>
			<point x="902" y="1067"/>
			<point x="590" y="821" type="curve"/>
			<point x="610" y="712" type="line"/>
			<point x="674" y="724"/>
			<point x="736" y="730"/>
			<point x="785" y="730" type="curve" smooth="yes"/>
			<point x="879" y="730"/>
			<point x="905" y="695"/>
			<point x="905" y="631" type="curve" smooth="yes"/>
			<point x="905" y="138" type="line"/>
		</contour>
		<contour>
			<point x="710" y="0" type="line"/>
			<point x="710" y="119" type="line"/>
			<point x="655" y="138" type="line"/>
			<point x="655" y="1194" type="line"/>
			<point x="681" y="1494" type="line"/>
			<point x="559" y="1494" type="line"/>
			<point x="139" y="1464" type="line"/>
			<point x="139" y="1394" type="line"/>
			<point x="152" y="1313"/>
			<point x="164" y="1239"/>
			<point x="179" y="1137" type="curve"/>
			<point x="179" y="152" type="line"/>
			<point x="57" y="119" type="line"/>
			<point x="57" y="0" type="line"/>
		</contour>
		<contour>
			<point x="34" y="1142" type="line"/>
			<point x="864" y="1142" type="line"/>
			<point x="864" y="1272" type="line"/>
			<point x="34" y="1272" type="line"/>
		</contour>
	</outline>
</glyph>
<glyph name="Iogonek" format="2">
	<unicode hex="012E"/>
	<advance width="1062"/>
	<outline>
		<contour>
			<point x="968" y="136" type="line"/>
			<point x="800" y="185" type="line"/>
			<point x="800" y="1229" type="line"/>
			<point x="968" y="1278" type="line"/>
			<point x="968" y="1414" type="line"/>
			<point x="94" y="1414" type="line"/>
			<point x="94" y="1278" type="line"/>
			<point x="262" y="1229" type="line"/>
			<point x="262" y="185" type="line"/>
			<point x="94" y="136" type="line"/>
			<point x="94" y="0" type="line"/>
			<point x="968" y="0" type="line"/>
		</contour>
		<contour>
			<point x="576" y="-66" type="curve" smooth="yes"/>
			<point x="653" y="97" type="line"/>
			<point x="544" y="97" type="line"/>
			<point x="445" y="-28" type="line" smooth="yes"/>
			<point x="338" y="-164"/>
			<point x="318" y="-218"/>
			<point x="318" y="-291" type="curve" smooth="yes"/>
			<point x="318" y="-403"/>
			<point x="375" y="-465"/>
			<point x="518" y="-465" type="curve" smooth="yes"/>
			<point x="592" y="-465"/>
			<point x="642" y="-447"/>
			<point x="734" y="-387" type="curve"/>
			<point x="734" y="-277" type="line"/>
			<point x="680" y="-299"/>
			<point x="653" y="-303"/>
			<point x="611" y="-303" type="curve" smooth="yes"/>
			<point x="566" y="-303"/>
			<point x="530" y="-282"/>
			<point x="530" y="-236" type="curve" smooth="yes"/>
			<point x="530" y="-195"/>
			<point x="537" y="-148"/>
		</contour>
	</outline>
</glyph>
<glyph name="iogonek" format="2">
	<unicode hex="012F"/>
	<advance width="871"/>
	<outline>
		<contour>
			<point x="447" y="1164" type="curve" smooth="yes"/>
			<point x="642" y="1164"/>
			<point x="727" y="1221"/>
			<point x="727" y="1332" type="curve" smooth="yes"/>
			<point x="727" y="1442"/>
			<point x="642" y="1494"/>
			<point x="447" y="1494" type="curve" smooth="yes"/>
			<point x="252" y="1494"/>
			<point x="167" y="1442"/>
			<point x="167" y="1332" type="curve" smooth="yes"/>
			<point x="167" y="1221"/>
			<point x="252" y="1164"/>
		</contour>
		<contour>
			<point x="716" y="1074" type="line"/>
			<point x="574" y="1074" type="line"/>
			<point x="60" y="948" type="line"/>
			<point x="60" y="844" type="line"/>
			<point x="121" y="784.9805194805"/>
			<point x="192" y="716.2857142857"/>
			<point x="214" y="695" type="curve"/>
			<point x="214" y="152" type="line"/>
			<point x="92" y="119" type="line"/>
			<point x="92" y="0" type="line"/>
			<point x="812" y="0" type="line"/>
			<point x="812" y="119" type="line"/>
			<point x="690" y="152" type="line"/>
			<point x="690" y="704" type="line"/>
		</contour>
		<contour>
			<point x="482" y="-76" type="curve" smooth="yes"/>
			<point x="584" y="97" type="line"/>
			<point x="475" y="97" type="line"/>
			<point x="361" y="-31" type="line" smooth="yes"/>
			<point x="240" y="-166"/>
			<point x="219" y="-218"/>
			<point x="219" y="-291" type="curve" smooth="yes"/>
			<point x="219" y="-403"/>
			<point x="276" y="-465"/>
			<point x="419" y="-465" type="curve" smooth="yes"/>
			<point x="493" y="-465"/>
			<point x="543" y="-447"/>
			<point x="635" y="-387" type="curve"/>
			<point x="635" y="-277" type="line"/>
			<point x="581" y="-299"/>
			<point x="554" y="-303"/>
			<point x="512" y="-303" type="curve" smooth="yes"/>
			<point x="457" y="-303"/>
			<point x="431" y="-280"/>
			<point x="431" y="-225" type="curve" smooth="yes"/>
			<point x="431" y="-189"/>
			<point x="434" y="-157"/>
		</contour>
	</outline>
</glyph>
<glyph name="dotlessi" format="2">
	<unicode hex="0131"/>
	<advance width="871"/>
	<outline>
		<contour>
			<point x="716" y="1074" type="line"/>
			<point x="574" y="1074" type="line"/>
			<point x="60" y="948" type="line"/>
			<point x="60" y="844" type="line"/>
			<point x="121" y="784.9805194805"/>
			<point x="192" y="716.2857142857"/>
			<point x="214" y="695" type="curve"/>
			<point x="214" y="152" type="line"/>
			<point x="92" y="119" type="line"/>
			<point x="92" y="0" type="line"/>
			<point x="812" y="0" type="line"/>
			<point x="812" y="119" type="line"/>
			<point x="690" y="152" type="line"/>
			<point x="690" y="704" type="line"/>
		</contour>
	</outline>
	<anchor name="top" x="426" y="1044"/>
	<anchor name="bottom" x="452" y="0"/>
	<anchor name="right" x="632" y="0"/>
</glyph>
<glyph name="kgreenlandic" format="2">
	<unicode hex="0138"/>
	<advance width="1642"/>
	<outline>
		<contour>
			<point x="849" y="419" type="line"/>
			<point x="1059" y="102" type="line"/>
			<point x="1059" y="102" type="line"/>
			<point x="1059" y="0" type="line"/>
			<point x="1641" y="0" type="line"/>
			<point x="1641" y="102" type="line"/>
			<point x="1540" y="159" type="line"/>
			<point x="1128" y="767" type="line"/>
			<point x="909" y="468" type="line"/>
			<point x="1387" y="905" type="line"/>
			<point x="1556" y="935" type="line"/>
			<point x="1556" y="1044" type="line"/>
			<point x="940" y="1044" type="line"/>
			<point x="940" y="935" type="line"/>
			<point x="1100" y="907" type="line"/>
			<point x="850" y="651" type="line"/>
			<point x="497" y="651" type="line"/>
			<point x="497" y="419" type="line"/>
		</contour>
		<contour>
			<point x="716" y="1074" type="line"/>
			<point x="574" y="1074" type="line"/>
			<point x="60" y="948" type="line"/>
			<point x="60" y="844" type="line"/>
			<point x="121" y="784.9805194805"/>
			<point x="192" y="716.2857142857"/>
			<point x="214" y="695" type="curve"/>
			<point x="214" y="152" type="line"/>
			<point x="92" y="119" type="line"/>
			<point x="92" y="0" type="line"/>
			<point x="812" y="0" type="line"/>
			<point x="812" y="119" type="line"/>
			<point x="690" y="152" type="line"/>
			<point x="690" y="704" type="line"/>
		</contour>
	</outline>
</glyph>
<glyph name="Lslash" format="2">
	<unicode hex="0141"/>
	<advance width="1639"/>
	<outline>
		<contour>
			<point x="478" y="554" type="line"/>
			<point x="661" y="590" type="line"/>
			<point x="1104" y="820" type="line"/>
			<point x="1104" y="1049" type="line"/>
			<point x="661" y="819" type="line"/>
			<point x="478" y="783" type="line"/>
			<point x="118" y="595" type="line"/>
			<point x="118" y="366" type="line"/>
		</contour>
		<contour>
			<point x="1483" y="-103" type="line"/>
			<point x="1605" y="603" type="line"/>
			<point x="1390" y="603" type="line"/>
			<point x="1127" y="148" type="line"/>
			<point x="1290" y="294" type="line"/>
			<point x="584" y="294" type="line"/>
			<point x="571" y="0" type="line"/>
			<point x="1215" y="0" type="line"/>
			<point x="1319" y="-103" type="line"/>
		</contour>
		<contour>
			<point x="824" y="1229" type="line"/>
			<point x="992" y="1278" type="line"/>
			<point x="992" y="1414" type="line"/>
			<point x="118" y="1414" type="line"/>
			<point x="118" y="1278" type="line"/>
			<point x="286" y="1229" type="line"/>
			<point x="286" y="185" type="line"/>
			<point x="118" y="136" type="line"/>
			<point x="118" y="0" type="line"/>
			<point x="824" y="0" type="line"/>
		</contour>
	</outline>
</glyph>
<glyph name="lslash" format="2">
	<unicode hex="0142"/>
	<advance width="902"/>
	<outline>
		<contour>
			<point x="342" y="568" type="line"/>
			<point x="473" y="554" type="line"/>
			<point x="831" y="810" type="line"/>
			<point x="831" y="976" type="line"/>
			<point x="473" y="720" type="line"/>
			<point x="342" y="734" type="line"/>
			<point x="83" y="550" type="line"/>
			<point x="83" y="384" type="line"/>
		</contour>
		<contour>
			<point x="685" y="152" type="line"/>
			<point x="685" y="1194" type="line"/>
			<point x="711" y="1494" type="line"/>
			<point x="589" y="1494" type="line"/>
			<point x="25" y="1396" type="line"/>
			<point x="25" y="1264" type="line"/>
			<point x="103" y="1210.1630434783"/>
			<point x="183" y="1154.9456521739"/>
			<point x="209" y="1137" type="curve"/>
			<point x="209" y="152" type="line"/>
			<point x="87" y="119" type="line"/>
			<point x="87" y="0" type="line"/>
			<point x="807" y="0" type="line"/>
			<point x="807" y="119" type="line"/>
		</contour>
	</outline>
</glyph>
<glyph name="Eng" format="2">
	<unicode hex="014A"/>
	<advance width="1929"/>
	<outline>
		<contour>
			<point x="1470" y="694" type="line"/>
			<point x="917" y="1414" type="line"/>
			<point x="80" y="1414" type="line"/>
			<point x="80" y="1278" type="line"/>
			<point x="268" y="1211" type="line"/>
			<point x="268" y="183" type="line"/>
			<point x="100" y="136" type="line"/>
			<point x="100" y="0" type="line"/>
			<point x="720" y="0" type="line"/>
			<point x="720" y="136" type="line"/>
			<point x="552" y="183" type="line"/>
			<point x="552" y="1298" type="line"/>
			<point x="412" y="1260" type="line"/>
			<point x="1470" y="-148" type="line"/>
		</contour>
		<contour>
			<point x="1688" y="-11" type="curve" smooth="yes"/>
			<point x="1688" y="1231" type="line"/>
			<point x="1856" y="1278" type="line"/>
			<point x="1856" y="1414" type="line"/>
			<point x="1236" y="1414" type="line"/>
			<point x="1236" y="1278" type="line"/>
			<point x="1404" y="1231" type="line"/>
			<point x="1404" y="-2" type="line" smooth="yes"/>
			<point x="1404" y="-142"/>
			<point x="1363" y="-186"/>
			<point x="1237" y="-186" type="curve" smooth="yes"/>
			<point x="1133" y="-186"/>
			<point x="1031" y="-66"/>
			<point x="989" y="-66" type="curve" smooth="yes"/>
			<point x="914" y="-66"/>
			<point x="845" y="-138"/>
			<point x="845" y="-231" type="curve" smooth="yes"/>
			<point x="845" y="-379"/>
			<point x="922" y="-465"/>
			<point x="1180" y="-465" type="curve" smooth="yes"/>
			<point x="1539" y="-465"/>
			<point x="1688" y="-319"/>
		</contour>
	</outline>
</glyph>
<glyph name="eng" format="2">
	<unicode hex="014B"/>
	<advance width="1550"/>
	<outline>
		<contour>
			<point x="691" y="824" type="line"/>
			<point x="567" y="1074" type="line"/>
			<point x="475" y="1074" type="line"/>
			<point x="61" y="948" type="line"/>
			<point x="61" y="844" type="line"/>
			<point x="152" y="755.9545454545"/>
			<point x="193" y="716.2857142857"/>
			<point x="215" y="695" type="curve"/>
			<point x="215" y="152" type="line"/>
			<point x="93" y="119" type="line"/>
			<point x="93" y="0" type="line"/>
			<point x="745" y="0" type="line"/>
			<point x="745" y="119" type="line"/>
			<point x="691" y="138" type="line"/>
		</contour>
		<contour>
			<point x="941" y="70" type="line" smooth="yes"/>
			<point x="941" y="-66"/>
			<point x="934" y="-88"/>
			<point x="708" y="-290" type="curve"/>
			<point x="820" y="-465" type="line"/>
			<point x="1355" y="-240"/>
			<point x="1417" y="-152"/>
			<point x="1417" y="110" type="curve" smooth="yes"/>
			<point x="1417" y="759" type="line" smooth="yes"/>
			<point x="1417" y="958"/>
			<point x="1301" y="1074"/>
			<point x="1061" y="1074" type="curve" smooth="yes"/>
			<point x="957" y="1074"/>
			<point x="938" y="1067"/>
			<point x="626" y="821" type="curve"/>
			<point x="646" y="712" type="line"/>
			<point x="710" y="724"/>
			<point x="772" y="730"/>
			<point x="821" y="730" type="curve" smooth="yes"/>
			<point x="915" y="730"/>
			<point x="941" y="695"/>
			<point x="941" y="631" type="curve" smooth="yes"/>
		</contour>
	</outline>
</glyph>
<glyph name="OE" format="2">
	<unicode hex="0152"/>
	<advance width="2556"/>
	<outline>
		<contour>
			<point x="2033" y="990" type="line"/>
			<point x="1849" y="990" type="line"/>
			<point x="1832" y="846" type="line"/>
			<point x="1378" y="846" type="line"/>
			<point x="1378" y="628" type="line"/>
			<point x="1832" y="628" type="line"/>
			<point x="1849" y="480" type="line"/>
			<point x="2033" y="480" type="line"/>
			<point x="2033" y="735" type="line"/>
		</contour>
		<contour>
			<point x="1093" y="1414" type="line"/>
			<point x="1093" y="0" type="line"/>
			<point x="1631" y="0" type="line"/>
			<point x="1631" y="1414" type="line"/>
		</contour>
		<contour>
			<point x="843" y="0" type="curve" smooth="yes"/>
			<point x="2113" y="0" type="line"/>
			<point x="2217" y="-103" type="line"/>
			<point x="2381" y="-103" type="line"/>
			<point x="2484" y="535" type="line"/>
			<point x="2269" y="535" type="line"/>
			<point x="2037" y="91" type="line"/>
			<point x="2175" y="257" type="line"/>
			<point x="931" y="257" type="line" smooth="yes"/>
			<point x="705" y="258"/>
			<point x="642" y="383"/>
			<point x="642" y="691" type="curve" smooth="yes"/>
			<point x="642" y="1023"/>
			<point x="707" y="1157"/>
			<point x="885" y="1157" type="curve" smooth="yes"/>
			<point x="2223" y="1157" type="line"/>
			<point x="2070" y="1328" type="line"/>
			<point x="2222" y="948" type="line"/>
			<point x="2426" y="948" type="line"/>
			<point x="2426" y="1512" type="line"/>
			<point x="2284" y="1512" type="line"/>
			<point x="2153" y="1414" type="line"/>
			<point x="852" y="1414" type="line" smooth="yes"/>
			<point x="393" y="1414"/>
			<point x="94" y="1157"/>
			<point x="94" y="678" type="curve" smooth="yes"/>
			<point x="94" y="237"/>
			<point x="348" y="-1"/>
		</contour>
	</outline>
</glyph>
<glyph name="oe" format="2">
	<unicode hex="0153"/>
	<advance width="2055"/>
	<outline>
		<contour>
			<point x="682" y="240" type="curve" smooth="yes"/>
			<point x="576" y="240"/>
			<point x="538" y="317"/>
			<point x="538" y="540" type="curve" smooth="yes"/>
			<point x="538" y="736"/>
			<point x="578" y="804"/>
			<point x="692" y="804" type="curve" smooth="yes"/>
			<point x="798" y="804"/>
			<point x="836" y="727"/>
			<point x="836" y="504" type="curve" smooth="yes"/>
			<point x="836" y="308"/>
			<point x="796" y="240"/>
		</contour>
		<contour>
			<point x="1225" y="268" type="curve"/>
			<point x="908" y="268" type="line"/>
			<point x="1003" y="95"/>
			<point x="1187" y="-30"/>
			<point x="1446" y="-30" type="curve" smooth="yes"/>
			<point x="1571" y="-30"/>
			<point x="1715" y="19"/>
			<point x="1947" y="168" type="curve"/>
			<point x="1947" y="309" type="line"/>
			<point x="1837" y="289"/>
			<point x="1730" y="280"/>
			<point x="1588" y="280" type="curve" smooth="yes"/>
			<point x="1351" y="280"/>
			<point x="1280" y="347"/>
			<point x="1280" y="612" type="curve" smooth="yes"/>
			<point x="1280" y="803"/>
			<point x="1315" y="849"/>
			<point x="1411" y="849" type="curve" smooth="yes"/>
			<point x="1515" y="849"/>
			<point x="1555" y="813"/>
			<point x="1547" y="565" type="curve"/>
			<point x="1731" y="643" type="line"/>
			<point x="1164" y="643" type="line"/>
			<point x="1164" y="483" type="line"/>
			<point x="1984" y="483" type="line"/>
			<point x="1965" y="919"/>
			<point x="1801" y="1074"/>
			<point x="1438" y="1074" type="curve" smooth="yes"/>
			<point x="1212" y="1074"/>
			<point x="1049" y="958"/>
			<point x="946" y="808" type="curve"/>
			<point x="1210" y="808" type="line"/>
			<point x="1105" y="960"/>
			<point x="934" y="1074"/>
			<point x="707" y="1074" type="curve" smooth="yes"/>
			<point x="305" y="1074"/>
			<point x="76" y="871"/>
			<point x="76" y="515" type="curve" smooth="yes"/>
			<point x="76" y="168"/>
			<point x="291" y="-30"/>
			<point x="667" y="-30" type="curve" smooth="yes"/>
			<point x="928" y="-30"/>
			<point x="1120" y="98"/>
		</contour>
	</outline>
	<anchor name="top" x="1030" y="1044"/>
	<anchor name="bottom" x="1030" y="0"/>
</glyph>
<glyph name="Scedilla" format="2">
	<unicode hex="015E"/>
	<advance width="1535"/>
	<outline>
		<contour>
			<point x="1256" y="1364" type="line"/>
			<point x="1108" y="1425"/>
			<point x="981" y="1444"/>
			<point x="818" y="1444" type="curve" smooth="yes"/>
			<point x="369" y="1444"/>
			<point x="104" y="1286"/>
			<point x="104" y="964" type="curve" smooth="yes"/>
			<point x="104" y="630"/>
			<point x="312" y="556"/>
			<point x="526" y="530" type="curve" smooth="yes"/>
			<point x="740" y="504"/>
			<point x="964" y="527"/>
			<point x="964" y="372" type="curve" smooth="yes"/>
			<point x="964" y="276"/>
			<point x="899" y="225"/>
			<point x="612" y="225" type="curve" smooth="yes"/>
			<point x="456" y="225"/>
			<point x="353" y="240"/>
			<point x="224" y="294" type="curve"/>
			<point x="570" y="29" type="line"/>
			<point x="296" y="440" type="line"/>
			<point x="129" y="440" type="line"/>
			<point x="162" y="18" type="line"/>
			<point x="324" y="-28"/>
			<point x="471" y="-30"/>
			<point x="664" y="-30" type="curve" smooth="yes"/>
			<point x="1188" y="-30"/>
			<point x="1438" y="139"/>
			<point x="1438" y="480" type="curve" smooth="yes"/>
			<point x="1438" y="828"/>
			<point x="1185" y="897"/>
			<point x="968" y="927" type="curve" smooth="yes"/>
			<point x="751" y="957"/>
			<point x="572" y="955"/>
			<point x="572" y="1080" type="curve" smooth="yes"/>
			<point x="572" y="1172"/>
			<point x="658" y="1188"/>
			<point x="830" y="1188" type="curve" smooth="yes"/>
			<point x="986" y="1188"/>
			<point x="1098" y="1168"/>
			<point x="1167" y="1122" type="curve"/>
			<point x="1057" y="1251" type="line"/>
			<point x="1182" y="1007" type="line"/>
			<point x="1374" y="1007" type="line"/>
			<point x="1374" y="1512" type="line"/>
			<point x="1214" y="1512" type="line"/>
			<point x="1093" y="1350" type="line"/>
		</contour>
		<contour>
			<point x="667" y="-465" type="curve" smooth="yes"/>
			<point x="865" y="-465"/>
			<point x="1005" y="-419"/>
			<point x="1005" y="-263" type="curve" smooth="yes"/>
			<point x="1005" y="-159"/>
			<point x="965" y="-102"/>
			<point x="698" y="-65" type="curve"/>
			<point x="704" y="-190" type="line"/>
			<point x="923" y="49" type="line"/>
			<point x="759" y="49" type="line"/>
			<point x="551" y="-184" type="line"/>
			<point x="551" y="-229" type="line"/>
			<point x="749" y="-250"/>
			<point x="781" y="-264"/>
			<point x="781" y="-307" type="curve" smooth="yes"/>
			<point x="781" y="-342"/>
			<point x="763" y="-356"/>
			<point x="704" y="-356" type="curve" smooth="yes"/>
			<point x="640" y="-356"/>
			<point x="559" y="-312"/>
			<point x="534" y="-312" type="curve" smooth="yes"/>
			<point x="511" y="-312"/>
			<point x="483" y="-329"/>
			<point x="483" y="-373" type="curve" smooth="yes"/>
			<point x="483" y="-437"/>
			<point x="516" y="-465"/>
		</contour>
	</outline>
</glyph>
<glyph name="scedilla" format="2">
  <advance width="1221.0"/>
  <unicode hex="015F"/>
  <outline>
    <contour>
      <point x="675.0" y="1074.0" type="curve" smooth="yes"/>
      <point x="282.0" y="1074.0"/>
      <point x="89.0" y="950.0"/>
      <point x="89.0" y="706.0" type="curve" smooth="yes"/>
      <point x="89.0" y="559.0"/>
      <point x="141.0" y="455.0"/>
      <point x="392.0" y="409.0" type="curve" smooth="yes"/>
      <point x="643.0" y="363.0"/>
      <point x="696.0" y="350.0"/>
      <point x="696.0" y="267.0" type="curve" smooth="yes"/>
      <point x="696.0" y="201.0"/>
      <point x="652.0" y="167.0"/>
      <point x="486.0" y="167.0" type="curve" smooth="yes"/>
      <point x="402.0" y="167.0"/>
      <point x="284.0" y="177.0"/>
      <point x="230.0" y="188.0" type="curve"/>
      <point x="407.0" y="55.0" type="line"/>
      <point x="224.0" y="324.0" type="line"/>
      <point x="86.0" y="324.0" type="line"/>
      <point x="136.0" y="0.0" type="line"/>
      <point x="230.0" y="-16.0"/>
      <point x="394.0" y="-30.0"/>
      <point x="560.0" y="-30.0" type="curve" smooth="yes"/>
      <point x="983.0" y="-30.0"/>
      <point x="1150.0" y="116.0"/>
      <point x="1150.0" y="343.0" type="curve" smooth="yes"/>
      <point x="1150.0" y="545.0"/>
      <point x="1049.0" y="637.0"/>
      <point x="793.0" y="676.0" type="curve" smooth="yes"/>
      <point x="537.0" y="715.0"/>
      <point x="514.0" y="741.0"/>
      <point x="514.0" y="802.0" type="curve" smooth="yes"/>
      <point x="514.0" y="860.0"/>
      <point x="559.0" y="887.0"/>
      <point x="684.0" y="887.0" type="curve" smooth="yes"/>
      <point x="731.0" y="887.0"/>
      <point x="822.0" y="876.0"/>
      <point x="902.0" y="856.0" type="curve"/>
      <point x="754.0" y="997.0" type="line"/>
      <point x="913.0" y="759.0" type="line"/>
      <point x="1066.0" y="759.0" type="line"/>
      <point x="1038.0" y="1044.0" type="line"/>
      <point x="935.0" y="1066.0"/>
      <point x="825.0" y="1074.0"/>
    </contour>
    <contour>
      <point x="514.0" y="-465.0" type="curve" smooth="yes"/>
      <point x="712.0" y="-465.0"/>
      <point x="852.0" y="-419.0"/>
      <point x="852.0" y="-263.0" type="curve" smooth="yes"/>
      <point x="852.0" y="-159.0"/>
      <point x="812.0" y="-102.0"/>
      <point x="545.0" y="-65.0" type="curve"/>
      <point x="551.0" y="-190.0" type="line"/>
      <point x="770.0" y="49.0" type="line"/>
      <point x="606.0" y="49.0" type="line"/>
      <point x="398.0" y="-184.0" type="line"/>
      <point x="398.0" y="-229.0" type="line"/>
      <point x="596.0" y="-250.0"/>
      <point x="628.0" y="-264.0"/>
      <point x="628.0" y="-307.0" type="curve" smooth="yes"/>
      <point x="628.0" y="-342.0"/>
      <point x="610.0" y="-356.0"/>
      <point x="551.0" y="-356.0" type="curve" smooth="yes"/>
      <point x="487.0" y="-356.0"/>
      <point x="406.0" y="-312.0"/>
      <point x="381.0" y="-312.0" type="curve" smooth="yes"/>
      <point x="358.0" y="-312.0"/>
      <point x="330.0" y="-329.0"/>
      <point x="330.0" y="-373.0" type="curve" smooth="yes"/>
      <point x="330.0" y="-437.0"/>
      <point x="363.0" y="-465.0"/>
    </contour>
  </outline>
</glyph>
<glyph name="uni0162" format="2">
	<unicode hex="0162"/>
	<advance width="1740"/>
	<outline>
		<contour>
			<point x="601" y="1359" type="line"/>
			<point x="601" y="185" type="line"/>
			<point x="433" y="136" type="line"/>
			<point x="433" y="0" type="line"/>
			<point x="1307" y="0" type="line"/>
			<point x="1307" y="136" type="line"/>
			<point x="1139" y="185" type="line"/>
			<point x="1139" y="1359" type="line"/>
		</contour>
		<contour>
			<point x="1442" y="1120" type="line"/>
			<point x="1312" y="1267" type="line"/>
			<point x="1491" y="858" type="line"/>
			<point x="1696" y="858" type="line"/>
			<point x="1624" y="1514" type="line"/>
			<point x="1473" y="1514" type="line"/>
			<point x="1352" y="1365" type="line"/>
			<point x="1516" y="1414" type="line"/>
			<point x="223" y="1414" type="line"/>
			<point x="388" y="1365" type="line"/>
			<point x="267" y="1514" type="line"/>
			<point x="116" y="1514" type="line"/>
			<point x="44" y="858" type="line"/>
			<point x="249" y="858" type="line"/>
			<point x="428" y="1267" type="line"/>
			<point x="298" y="1120" type="line"/>
		</contour>
		<contour>
			<point x="766" y="-465" type="curve" smooth="yes"/>
			<point x="964" y="-465"/>
			<point x="1104" y="-419"/>
			<point x="1104" y="-263" type="curve" smooth="yes"/>
			<point x="1104" y="-159"/>
			<point x="1064" y="-102"/>
			<point x="797" y="-65" type="curve"/>
			<point x="803" y="-190" type="line"/>
			<point x="1022" y="49" type="line"/>
			<point x="858" y="49" type="line"/>
			<point x="650" y="-184" type="line"/>
			<point x="650" y="-229" type="line"/>
			<point x="848" y="-250"/>
			<point x="880" y="-264"/>
			<point x="880" y="-307" type="curve" smooth="yes"/>
			<point x="880" y="-342"/>
			<point x="862" y="-356"/>
			<point x="803" y="-356" type="curve" smooth="yes"/>
			<point x="739" y="-356"/>
			<point x="658" y="-312"/>
			<point x="633" y="-312" type="curve" smooth="yes"/>
			<point x="610" y="-312"/>
			<point x="582" y="-329"/>
			<point x="582" y="-373" type="curve" smooth="yes"/>
			<point x="582" y="-437"/>
			<point x="615" y="-465"/>
		</contour>
	</outline>
</glyph>
<glyph name="uni0163" format="2">
	<unicode hex="0163"/>
	<advance width="1146"/>
	<outline>
		<contour>
			<point x="685" y="397" type="curve" smooth="yes"/>
			<point x="685" y="1023" type="line"/>
			<point x="685" y="1342" type="line"/>
			<point x="565" y="1342" type="line"/>
			<point x="383.0936454849" y="1244"/>
			<point x="50.8361204013" y="1065"/>
			<point x="10" y="1043" type="curve"/>
			<point x="10" y="941" type="line"/>
			<point x="211" y="765" type="line"/>
			<point x="211" y="309" type="line" smooth="yes"/>
			<point x="211" y="85"/>
			<point x="341" y="-30"/>
			<point x="597" y="-30" type="curve" smooth="yes"/>
			<point x="725" y="-30"/>
			<point x="819" y="-2"/>
			<point x="1109" y="115" type="curve"/>
			<point x="1109" y="281" type="line"/>
			<point x="1015" y="264"/>
			<point x="941" y="258"/>
			<point x="876" y="258" type="curve" smooth="yes"/>
			<point x="725" y="258"/>
			<point x="685" y="292"/>
		</contour>
		<contour>
			<point x="489" y="790" type="line"/>
			<point x="1076" y="790" type="line"/>
			<point x="1076" y="1044" type="line"/>
			<point x="495" y="1044" type="line"/>
		</contour>
		<contour>
			<point x="566" y="-465" type="curve" smooth="yes"/>
			<point x="764" y="-465"/>
			<point x="904" y="-419"/>
			<point x="904" y="-263" type="curve" smooth="yes"/>
			<point x="904" y="-159"/>
			<point x="864" y="-102"/>
			<point x="597" y="-65" type="curve"/>
			<point x="603" y="-190" type="line"/>
			<point x="822" y="49" type="line"/>
			<point x="658" y="49" type="line"/>
			<point x="450" y="-184" type="line"/>
			<point x="450" y="-229" type="line"/>
			<point x="648" y="-250"/>
			<point x="680" y="-264"/>
			<point x="680" y="-307" type="curve" smooth="yes"/>
			<point x="680" y="-342"/>
			<point x="662" y="-356"/>
			<point x="603" y="-356" type="curve" smooth="yes"/>
			<point x="539" y="-356"/>
			<point x="458" y="-312"/>
			<point x="433" y="-312" type="curve" smooth="yes"/>
			<point x="410" y="-312"/>
			<point x="382" y="-329"/>
			<point x="382" y="-373" type="curve" smooth="yes"/>
			<point x="382" y="-437"/>
			<point x="415" y="-465"/>
		</contour>
	</outline>
</glyph>
<glyph name="tbar" format="2">
	<unicode hex="0167"/>
	<advance width="1152"/>
	<outline>
		<contour>
			<point x="61" y="471" type="line"/>
			<point x="1011" y="471" type="line"/>
			<point x="1011" y="601" type="line"/>
			<point x="61" y="601" type="line"/>
		</contour>
		<contour>
			<point x="696" y="397" type="curve" smooth="yes"/>
			<point x="696" y="1023" type="line"/>
			<point x="696" y="1342" type="line"/>
			<point x="576" y="1342" type="line"/>
			<point x="394.0936454849" y="1244"/>
			<point x="61.8361204013" y="1065"/>
			<point x="21" y="1043" type="curve"/>
			<point x="21" y="941" type="line"/>
			<point x="222" y="765" type="line"/>
			<point x="222" y="309" type="line" smooth="yes"/>
			<point x="222" y="85"/>
			<point x="352" y="-30"/>
			<point x="608" y="-30" type="curve" smooth="yes"/>
			<point x="736" y="-30"/>
			<point x="830" y="-2"/>
			<point x="1120" y="115" type="curve"/>
			<point x="1120" y="281" type="line"/>
			<point x="1026" y="264"/>
			<point x="952" y="258"/>
			<point x="887" y="258" type="curve" smooth="yes"/>
			<point x="736" y="258"/>
			<point x="696" y="292"/>
		</contour>
		<contour>
			<point x="500" y="790" type="line"/>
			<point x="1087" y="790" type="line"/>
			<point x="1087" y="1044" type="line"/>
			<point x="506" y="1044" type="line"/>
		</contour>
	</outline>
</glyph>
<glyph name="Uogonek" format="2">
	<unicode hex="0172"/>
	<advance width="1834"/>
	<outline>
		<contour>
			<point x="1339" y="612" type="line" smooth="yes"/>
			<point x="1339" y="426"/>
			<point x="1255" y="338"/>
			<point x="1048" y="338" type="curve" smooth="yes"/>
			<point x="850" y="338"/>
			<point x="752" y="409"/>
			<point x="752" y="565" type="curve" smooth="yes"/>
			<point x="752" y="1231" type="line"/>
			<point x="920" y="1278" type="line"/>
			<point x="920" y="1414" type="line"/>
			<point x="46" y="1414" type="line"/>
			<point x="46" y="1278" type="line"/>
			<point x="214" y="1231" type="line"/>
			<point x="214" y="528" type="line" smooth="yes"/>
			<point x="214" y="130"/>
			<point x="453" y="-30"/>
			<point x="944" y="-30" type="curve" smooth="yes"/>
			<point x="1393" y="-30"/>
			<point x="1623" y="154"/>
			<point x="1623" y="580" type="curve" smooth="yes"/>
			<point x="1623" y="1231" type="line"/>
			<point x="1791" y="1278" type="line"/>
			<point x="1791" y="1414" type="line"/>
			<point x="1171" y="1414" type="line"/>
			<point x="1171" y="1278" type="line"/>
			<point x="1339" y="1231" type="line"/>
		</contour>
		<contour>
			<point x="1073" y="-76" type="curve" smooth="yes"/>
			<point x="1201" y="97" type="line"/>
			<point x="1092" y="97" type="line"/>
			<point x="953" y="-30" type="line" smooth="yes"/>
			<point x="809" y="-161"/>
			<point x="788" y="-218"/>
			<point x="788" y="-291" type="curve" smooth="yes"/>
			<point x="788" y="-403"/>
			<point x="845" y="-465"/>
			<point x="988" y="-465" type="curve" smooth="yes"/>
			<point x="1062" y="-465"/>
			<point x="1112" y="-447"/>
			<point x="1204" y="-387" type="curve"/>
			<point x="1204" y="-277" type="line"/>
			<point x="1150" y="-299"/>
			<point x="1123" y="-303"/>
			<point x="1081" y="-303" type="curve" smooth="yes"/>
			<point x="1036" y="-303"/>
			<point x="1000" y="-282"/>
			<point x="1000" y="-236" type="curve" smooth="yes"/>
			<point x="1000" y="-187"/>
			<point x="1013" y="-157"/>
		</contour>
	</outline>
</glyph>
<glyph name="uogonek" format="2">
	<unicode hex="0173"/>
	<advance width="1555"/>
	<outline>
		<contour>
			<point x="659" y="403" type="curve" smooth="yes"/>
			<point x="659" y="886" type="line"/>
			<point x="680" y="1054" type="line"/>
			<point x="30" y="1024" type="line"/>
			<point x="30" y="922" type="line"/>
			<point x="183" y="812" type="line"/>
			<point x="183" y="272" type="line" smooth="yes"/>
			<point x="183" y="81"/>
			<point x="295" y="-30"/>
			<point x="525" y="-30" type="curve" smooth="yes"/>
			<point x="624" y="-30"/>
			<point x="645" y="-24"/>
			<point x="943" y="213" type="curve"/>
			<point x="924" y="331" type="line"/>
			<point x="859" y="319"/>
			<point x="803" y="314"/>
			<point x="767" y="314" type="curve" smooth="yes"/>
			<point x="687" y="314"/>
			<point x="659" y="339"/>
		</contour>
		<contour>
			<point x="982" y="-30" type="line"/>
			<point x="1045" y="-30" type="line"/>
			<point x="1521" y="99" type="line"/>
			<point x="1521" y="189" type="line"/>
			<point x="1479" y="221"/>
			<point x="1377" y="298.7142857143"/>
			<point x="1353" y="317" type="curve"/>
			<point x="1353" y="872" type="line"/>
			<point x="1353" y="1044" type="line"/>
			<point x="877" y="1044" type="line"/>
			<point x="877" y="942" type="line"/>
			<point x="877" y="863" type="line"/>
			<point x="877" y="197" type="line"/>
		</contour>
		<contour>
			<point x="1103" y="-76" type="curve" smooth="yes"/>
			<point x="1231" y="97" type="line"/>
			<point x="1122" y="97" type="line"/>
			<point x="983" y="-30" type="line" smooth="yes"/>
			<point x="839" y="-161"/>
			<point x="818" y="-218"/>
			<point x="818" y="-291" type="curve" smooth="yes"/>
			<point x="818" y="-403"/>
			<point x="875" y="-465"/>
			<point x="1018" y="-465" type="curve" smooth="yes"/>
			<point x="1092" y="-465"/>
			<point x="1142" y="-447"/>
			<point x="1234" y="-387" type="curve"/>
			<point x="1234" y="-277" type="line"/>
			<point x="1180" y="-299"/>
			<point x="1153" y="-303"/>
			<point x="1111" y="-303" type="curve" smooth="yes"/>
			<point x="1066" y="-303"/>
			<point x="1030" y="-282"/>
			<point x="1030" y="-234" type="curve" smooth="yes"/>
			<point x="1030" y="-185"/>
			<point x="1043" y="-157"/>
		</contour>
	</outline>
</glyph>
<glyph name="uni018F" format="2">
	<unicode hex="018F"/>
	<advance width="1695"/>
	<outline>
		<contour>
			<point x="422" y="505" type="line"/>
			<point x="1182" y="505" type="line"/>
			<point x="1182" y="799" type="line"/>
			<point x="86" y="799" type="line"/>
			<point x="110" y="189"/>
			<point x="329" y="-30"/>
			<point x="813" y="-30" type="curve" smooth="yes"/>
			<point x="1330" y="-30"/>
			<point x="1602" y="259"/>
			<point x="1602" y="731" type="curve" smooth="yes"/>
			<point x="1602" y="1197"/>
			<point x="1318" y="1444"/>
			<point x="804" y="1444" type="curve" smooth="yes"/>
			<point x="636" y="1444"/>
			<point x="439" y="1400"/>
			<point x="135" y="1219" type="curve"/>
			<point x="135" y="1033" type="line"/>
			<point x="292" y="1059"/>
			<point x="442" y="1073"/>
			<point x="645" y="1073" type="curve" smooth="yes"/>
			<point x="983" y="1073"/>
			<point x="1085" y="977"/>
			<point x="1085" y="604" type="curve" smooth="yes"/>
			<point x="1085" y="335"/>
			<point x="1023" y="269"/>
			<point x="847" y="269" type="curve" smooth="yes"/>
			<point x="661" y="269"/>
			<point x="590" y="320"/>
			<point x="605" y="669" type="curve"/>
		</contour>
	</outline>
</glyph>
<glyph name="Ohorn" format="2">
	<unicode hex="01A0"/>
	<advance width="1820"/>
	<outline>
		<contour>
			<point x="897" y="275" type="curve" smooth="yes"/>
			<point x="701" y="275"/>
			<point x="633" y="417"/>
			<point x="633" y="773" type="curve" smooth="yes"/>
			<point x="633" y="1045"/>
			<point x="725" y="1140"/>
			<point x="900" y="1140" type="curve" smooth="yes"/>
			<point x="1096" y="1140"/>
			<point x="1164" y="998"/>
			<point x="1164" y="642" type="curve" smooth="yes"/>
			<point x="1164" y="370"/>
			<point x="1072" y="275"/>
		</contour>
		<contour>
			<point x="933" y="1444" type="curve" smooth="yes"/>
			<point x="410" y="1444"/>
			<point x="92" y="1181"/>
			<point x="92" y="706" type="curve" smooth="yes"/>
			<point x="92" y="234"/>
			<point x="363" y="-29"/>
			<point x="864" y="-29" type="curve" smooth="yes"/>
			<point x="1387" y="-29"/>
			<point x="1705" y="234"/>
			<point x="1705" y="709" type="curve" smooth="yes"/>
			<point x="1705" y="955"/>
			<point x="1631" y="1160"/>
			<point x="1453" y="1296" type="curve"/>
			<point x="1453" y="1278" type="line"/>
			<point x="1638" y="1313"/>
			<point x="1705" y="1415"/>
			<point x="1705" y="1567" type="curve" smooth="yes"/>
			<point x="1705" y="1693"/>
			<point x="1628" y="1737"/>
			<point x="1533" y="1737" type="curve" smooth="yes"/>
			<point x="1460" y="1737"/>
			<point x="1392" y="1695"/>
			<point x="1390" y="1644" type="curve" smooth="yes"/>
			<point x="1389" y="1625"/>
			<point x="1430" y="1587"/>
			<point x="1430" y="1517" type="curve" smooth="yes"/>
			<point x="1430" y="1459"/>
			<point x="1406" y="1414"/>
			<point x="1279" y="1414" type="curve" smooth="yes"/>
			<point x="1169" y="1414"/>
			<point x="1085" y="1444"/>
		</contour>
	</outline>
	<anchor name="UCtop" x="898" y="1414"/>
	<anchor name="bottom" x="898" y="0"/>
</glyph>
<glyph name="ohorn" format="2">
	<unicode hex="01A1"/>
	<advance width="1399"/>
	<outline>
		<contour>
			<point x="682" y="240" type="curve" smooth="yes"/>
			<point x="576" y="240"/>
			<point x="538" y="317"/>
			<point x="538" y="540" type="curve" smooth="yes"/>
			<point x="538" y="736"/>
			<point x="578" y="804"/>
			<point x="692" y="804" type="curve" smooth="yes"/>
			<point x="798" y="804"/>
			<point x="836" y="727"/>
			<point x="836" y="504" type="curve" smooth="yes"/>
			<point x="836" y="308"/>
			<point x="796" y="240"/>
		</contour>
		<contour>
			<point x="1378" y="1197" type="curve" smooth="yes"/>
			<point x="1378" y="1323"/>
			<point x="1301" y="1367"/>
			<point x="1206" y="1367" type="curve" smooth="yes"/>
			<point x="1133" y="1367"/>
			<point x="1065" y="1325"/>
			<point x="1063" y="1274" type="curve" smooth="yes"/>
			<point x="1062" y="1255"/>
			<point x="1103" y="1217"/>
			<point x="1103" y="1147" type="curve" smooth="yes"/>
			<point x="1103" y="1088"/>
			<point x="1077" y="1044"/>
			<point x="975" y="1044" type="curve" smooth="yes"/>
			<point x="905" y="1044"/>
			<point x="858" y="1074"/>
			<point x="707" y="1074" type="curve" smooth="yes"/>
			<point x="305" y="1074"/>
			<point x="76" y="871"/>
			<point x="76" y="515" type="curve" smooth="yes"/>
			<point x="76" y="168"/>
			<point x="291" y="-30"/>
			<point x="667" y="-30" type="curve" smooth="yes"/>
			<point x="1069" y="-30"/>
			<point x="1298" y="173"/>
			<point x="1298" y="529" type="curve" smooth="yes"/>
			<point x="1298" y="701"/>
			<point x="1245" y="847"/>
			<point x="1122" y="947" type="curve"/>
			<point x="1122" y="929" type="line"/>
			<point x="1314" y="957"/>
			<point x="1378" y="1054"/>
		</contour>
	</outline>
	<anchor name="top" x="687" y="1044"/>
	<anchor name="bottom" x="687" y="0"/>
</glyph>
<glyph name="Uhorn" format="2">
	<unicode hex="01AF"/>
	<advance width="1892"/>
	<outline>
		<contour>
			<point x="1736" y="1517" type="curve" smooth="yes"/>
			<point x="1736" y="1450"/>
			<point x="1704" y="1414"/>
			<point x="1600" y="1414" type="curve" smooth="yes"/>
			<point x="1171" y="1414" type="line"/>
			<point x="1171" y="1278" type="line"/>
			<point x="1339" y="1231" type="line"/>
			<point x="1339" y="612" type="line" smooth="yes"/>
			<point x="1339" y="426"/>
			<point x="1255" y="338"/>
			<point x="1048" y="338" type="curve" smooth="yes"/>
			<point x="850" y="338"/>
			<point x="752" y="409"/>
			<point x="752" y="565" type="curve" smooth="yes"/>
			<point x="752" y="1231" type="line"/>
			<point x="920" y="1278" type="line"/>
			<point x="920" y="1414" type="line"/>
			<point x="46" y="1414" type="line"/>
			<point x="46" y="1278" type="line"/>
			<point x="214" y="1231" type="line"/>
			<point x="214" y="528" type="line" smooth="yes"/>
			<point x="214" y="130"/>
			<point x="453" y="-30"/>
			<point x="944" y="-30" type="curve" smooth="yes"/>
			<point x="1393" y="-30"/>
			<point x="1623" y="154"/>
			<point x="1623" y="580" type="curve" smooth="yes"/>
			<point x="1623" y="1235" type="line"/>
			<point x="1919" y="1274"/>
			<point x="2011" y="1389"/>
			<point x="2011" y="1567" type="curve" smooth="yes"/>
			<point x="2011" y="1693"/>
			<point x="1934" y="1737"/>
			<point x="1839" y="1737" type="curve" smooth="yes"/>
			<point x="1766" y="1737"/>
			<point x="1698" y="1695"/>
			<point x="1696" y="1644" type="curve" smooth="yes"/>
			<point x="1695" y="1625"/>
			<point x="1736" y="1587"/>
		</contour>
	</outline>
	<anchor name="UCtop" x="1019" y="1414"/>
	<anchor name="bottom" x="989" y="0"/>
</glyph>
